<svg xmlns="http://www.w3.org/2000/svg" viewBox="0 0 417.79 233.63"><defs><style>.cls-1{fill:#fdb44d;}.cls-2{fill:#fff;}.cls-3{fill:#ef433e;}.cls-4{fill:#d23a36;}.cls-5{fill:#fa9149;}.cls-6{fill:#663210;}.cls-7{opacity:0.5;}.cls-8{fill:#6cc9d0;}.cls-9{fill:#47b3b2;}.cls-10{fill:#d7eaf4;}</style></defs><g id="Layer_2" data-name="Layer 2"><g id="OBJECTS"><path class="cls-1" d="M300.51,72.62a.39.39,0,0,1-.29.13h0a.42.42,0,0,1-.3-.13,29.26,29.26,0,0,0-2.82-2.51l-.87-.72a43.06,43.06,0,0,1,3.6,3.42.41.41,0,0,1,0,.55l-.41.42c-.18.19-.65.67-1.24,1.23a.43.43,0,0,1-.28.11.39.39,0,0,1-.27-.11c-.56-.53-1.11-1.11-1.68-1.69-2.31-2.41-4.7-4.9-7.89-4.9a5.42,5.42,0,0,0-.89.07,10.17,10.17,0,0,1-1.34.09,6.4,6.4,0,0,1-4.88-1.88,4.93,4.93,0,0,1-1-4,4.7,4.7,0,0,1,2.5-3.43.45.45,0,0,1,.19-.05.48.48,0,0,1,.23.07.41.41,0,0,1,.17.38,4.85,4.85,0,0,0,.67,3.64,1.5,1.5,0,0,0,1.19.52,3.2,3.2,0,0,0,1.2-.27,1.8,1.8,0,0,0,1.17-1.7,3.59,3.59,0,0,0-1.81-3.06,3,3,0,0,0-1.14-.29.4.4,0,0,1-.33-.21.41.41,0,0,1,0-.4,5.12,5.12,0,0,1,4-2.64,3.24,3.24,0,0,1,2.79,1.71c.83,1.29.69,3,.57,4.51a13.53,13.53,0,0,0-.07,2c.1,1.62,1.7,3,2.87,4.1l.11.09.51.46c-1.89-1.77-3.42-3.76-3.29-6.18.18-3.13.1-5.61-2.55-6.62a3.31,3.31,0,0,0-1.19-.23c-1.93,0-3.65,1.7-4.35,3.37a.39.39,0,0,1-.24.23,5.87,5.87,0,0,0-3.38,3.92c-.71,2.78,1.47,5.34,4,6.21a4.74,4.74,0,0,0,1.54.24,12.81,12.81,0,0,0,1.62-.14,13.44,13.44,0,0,1,1.7-.14,5.08,5.08,0,0,1,2.73.74,23.4,23.4,0,0,1,4.47,3.94c.56.58,1.11,1.16,1.67,1.69a.42.42,0,0,1,.12.3.39.39,0,0,1-.13.29c-1.51,1.33-2.59,2-3.32,2a1,1,0,0,1-.63-.22c-2.59-2.19-5.69-2.71-9.57-2.83h-.3c-5.65-.18-11-.34-15.7-4.16-6.61-5.36-8.07-16.28-3.18-23.84a19.05,19.05,0,0,1,16.12-8.67,18.54,18.54,0,0,1,12.57,4.82c4.68,4.27,5.23,9.85,5.4,15.21.13,4,.46,7.11,3.6,9.9a.64.64,0,0,1,.1.13.23.23,0,0,1,.07.07C303.2,68.93,302.52,70.41,300.51,72.62Zm-15.75-8.93a2.44,2.44,0,0,0,.86-.19c1.59-.66,1.65-1.65,1.55-2.18a3.82,3.82,0,0,0-3.43-2.49.4.4,0,0,0-.37.27,4.66,4.66,0,0,0-.28,1.54C283.09,61.39,283.09,63.69,284.76,63.69Z"/><path class="cls-2" d="M306,85.11a3.17,3.17,0,0,1-1.28-.29.39.39,0,0,1-.23-.33.42.42,0,0,1,.17-.37A19.35,19.35,0,0,0,307.17,82a17.92,17.92,0,0,0,2.28-2.61.37.37,0,0,1,.32-.17h0a.4.4,0,0,1,.33.18c1.16,1.78-.51,3.47-1.14,4.11A4.51,4.51,0,0,1,306,85.11Z"/><path class="cls-3" d="M301.42,85a4.54,4.54,0,0,1-1.9-.43c-2.38-1.1-5.19-3.61-6-6.29a.43.43,0,0,1,.08-.36.4.4,0,0,1,.31-.15h0c1.68,0,4-2.33,5-3.32l.28-.28c1-1,3.82-3.72,3.69-5.55a.39.39,0,0,1,.16-.34.36.36,0,0,1,.24-.09l.12,0c2.29.73,4.5,2.74,6.58,6,1.78,2.76-1.48,6.07-3,7.67S303.64,85,301.42,85Z"/><path class="cls-4" d="M310.58,75.94l0,0c-2.38,1.85-4.28,4-7.25,4.9-4.36,1.37-5.17-2.34-5-5.74-1.16,1.11-3,2.66-4.35,2.66h0a.4.4,0,0,0-.31.15.43.43,0,0,0-.08.36c.78,2.68,3.59,5.19,6,6.29a4.54,4.54,0,0,0,1.9.43c2.22,0,4.16-1.68,5.61-3.15C308.27,80.6,310.58,78.24,310.58,75.94Z"/><path class="cls-5" d="M293.75,74.81c-4-3.41-8.68-3.1-13.59-3.06-8.28.06-13.91-5.93-15.66-13.64-1.09-4.8-.05-9.35,1.82-13.62a17.57,17.57,0,0,0-1.6,2.12c-4.89,7.56-3.43,18.48,3.18,23.84,4.71,3.82,10.05,4,15.7,4.16h.3c3.88.12,7,.64,9.57,2.83a1,1,0,0,0,.63.22,3.62,3.62,0,0,0,1.85-.81A30,30,0,0,0,293.75,74.81Z"/><path class="cls-6" d="M310.93,74.56c-.64-1.69-2.23-3.11-3.45-4.37a7.73,7.73,0,0,0-4.64-2.74c-2.38-2.12-3.13-4.24-3.34-7.37-.17-2.47-.08-4.95-.42-7.4a17.53,17.53,0,0,0-7.51-12.18c-8.43-6.09-20.16-3.16-26.43,4.52-5.09,6.23-5.09,16-.68,22.55A17.47,17.47,0,0,0,277,74.89c5.24.6,11.56-.72,15.94,2.87a.48.48,0,0,0,0,.3c.63,3.08,4.09,6.25,6.95,7.31a5,5,0,0,0,4-.32c2.1,1.34,3.9.53,5.55-1.1s2.47-3.41,1-5.24A4.94,4.94,0,0,0,310.93,74.56Zm-42.77-4.42c-6.73-5.45-7.69-16.21-3.11-23.31,6.15-9.52,19.76-11.38,28.09-3.78,4.41,4,5.09,9.28,5.27,14.93.13,4.18.5,7.31,3.73,10.19a.37.37,0,0,0,.12.13c.62.87-.88,2.77-2,4-2.79-3-8.64-6-8.39-10.44.16-2.82.24-5.85-2.81-7-2.53-1-5.07,1-6,3.37a6.24,6.24,0,0,0-3.64,4.2c-.77,3,1.55,5.75,4.24,6.69s4.88-.94,7.52.66c2.27,1.39,4.13,3.73,6.06,5.58-1.29,1.14-2.82,2.25-3.43,1.75-2.82-2.39-6.22-2.81-9.8-2.92C278.18,74,272.84,73.94,268.16,70.14Zm29.73,4.58c-3.08-2.94-6.1-7.29-10.79-6.63-3.57.51-7.39-1.07-6.81-5.36a4.36,4.36,0,0,1,2.3-3.14s0,0,0,.07c-.31,2.49.51,5.52,3.62,4.24,2.52-1,1.28-4.6-.62-5.49a3.47,3.47,0,0,0-1.29-.33c1.4-2.26,4.32-3.7,6.1-.92,1.12,1.73.31,4.36.44,6.29s1.86,3.34,3.11,4.46a72,72,0,0,1,5.59,5.17l-.41.42C298.94,73.69,298.48,74.16,297.89,74.72ZM283.75,59.23c1.9,0,4.76,2.65,1.72,3.9-2,.81-2-1.65-2-2.49A4.38,4.38,0,0,1,283.75,59.23Zm15.93,25c-2.26-1-5-3.51-5.74-6,1.93.12,4.65-2.76,5.62-3.71s3.95-3.82,3.81-5.87c2.69.86,4.89,3.51,6.37,5.8,1.57,2.45-1.41,5.56-3,7.18C304.87,83.49,302.4,85.48,299.68,84.23Zm9-1c-1.16,1.18-2.36,1.87-3.82,1.22a19.45,19.45,0,0,0,2.59-2.17,17.76,17.76,0,0,0,2.32-2.66C310.63,80.94,309.7,82.2,308.68,83.24Z"/><g class="cls-7"><path class="cls-2" d="M271.4,45a.6.6,0,0,0,.68.88,44.13,44.13,0,0,1,7.18-1.45c2.81-.24,5.36.87,8.16.65a.79.79,0,0,0,.75-1C286.09,37.19,274.13,39.87,271.4,45Z"/><path class="cls-2" d="M291.07,44.5l-.56.08-.19.08-.09,0a1.38,1.38,0,0,0-1,1.28,1.64,1.64,0,0,0,.05.45.89.89,0,0,0,.05.13,2,2,0,0,0,.51,1,2.27,2.27,0,0,0,1.79.9,1.77,1.77,0,0,0,1.72-1.72A2.35,2.35,0,0,0,291.07,44.5Z"/><path class="cls-2" d="M274.78,68.63c-.59-.14-1.21-.26-1.81-.38a7.17,7.17,0,0,0-1.92-.37c-.4,0-.81.41-.64.84.87,2.28,5.42,4.64,7.28,2.34a.76.76,0,0,0,.12-.89C277,69.09,276,68.94,274.78,68.63Z"/><path class="cls-2" d="M307.55,77.7a1.12,1.12,0,0,0-.79-1,2.39,2.39,0,0,0-2.52,1c-.43.56-1,1-1.4,1.54a.66.66,0,0,0,.13,1C304.56,81.09,307.77,79.7,307.55,77.7Z"/></g><path class="cls-3" d="M343.49,144c-2.71,13,5.73,25.62,19.22,28.78a23.75,23.75,0,0,0,5.35.62c10.39,0,19.55-7.37,22.27-17.93,2.89-13.06-4.55-26-16.92-29.55a25,25,0,0,0-6.84-.94,25.59,25.59,0,0,0-13.07,3.55C348.5,131.52,344.94,137,343.49,144Zm42-17.87a2,2,0,0,1,.24-1.9c1.13-1.57,4.53-1.73,6-1.73a12.54,12.54,0,0,1,1.48.07,11.23,11.23,0,0,1,7.57,3.72c3.61,4.48,3.45,11.17-.38,16.26l-.11.15c-.58.78-1.56,2.1-2.79,2.1a2.2,2.2,0,0,1-1.76-1.1c-.17-.23-.33-.46-.49-.7-.37-.54-.73-1.1-1.08-1.65-1-1.63-2.08-3.35-3.13-5.12l-.93-1.56A69.12,69.12,0,0,1,385.47,126.1Zm-40.08-10.93a11.23,11.23,0,0,1,7.82-3.49,9.55,9.55,0,0,1,2.48.33,13.67,13.67,0,0,1,4.53,2c.94.66,3.43,2.41,3.55,4.2a2,2,0,0,1-.75,1.7,74.08,74.08,0,0,1-8.64,5.16l-1.26.68c-1.72.93-3.72,2-5.71,3l-.31.16a7.64,7.64,0,0,1-3,1c-.77,0-1.75-.36-2-2.09C341.24,122.78,342.48,118.05,345.39,115.17Z"/><path class="cls-2" d="M368,169.76c8.8,0,16.57-6.28,18.91-15.27,2.48-11.39-4.11-22.5-15-25.3a21.11,21.11,0,0,0-5.23-.65,21.61,21.61,0,0,0-11.6,3.34c-4,2.6-6.9,7.25-8.08,13.08-2.22,11,5.09,21.72,16.66,24.31A20,20,0,0,0,368,169.76Z"/><path class="cls-1" d="M371.39,173.37a.39.39,0,0,0,0,.35c.15.36.31.73.46,1.11a12.36,12.36,0,0,0,2.44,4.27,1.62,1.62,0,0,0,1.1.56,1,1,0,0,0,.73-.34,4.87,4.87,0,0,0,.63-3,19.55,19.55,0,0,0-.84-3.85.38.38,0,0,0-.2-.23.41.41,0,0,0-.19-.05l-.12,0a22.82,22.82,0,0,1-3.71.91A.42.42,0,0,0,371.39,173.37Zm-27.66-4c.54-2.06,2.58-3.86,4.08-5.17a.35.35,0,0,1,.26-.1h0a.42.42,0,0,1,.28.14,26.32,26.32,0,0,0,2.74,2.85.43.43,0,0,1,.14.32.42.42,0,0,1-.18.31l-1.14.8c-.77.55-1.57,1.12-2.4,1.62a6.66,6.66,0,0,1-2.73.95,1.1,1.1,0,0,1-.95-.4A1.47,1.47,0,0,1,343.73,169.38Zm4.42-56.56a11.2,11.2,0,0,0-1.38.9.37.37,0,0,1-.24.08.43.43,0,0,1-.26-.09,1.76,1.76,0,0,1-.64-1.25,1.48,1.48,0,0,1,.35-1.06.91.91,0,0,1,.67-.29,1.86,1.86,0,0,1,1.68,1.21A.4.4,0,0,1,348.15,112.82Zm4.15,13.66c.87-.44,1.74-.9,2.6-1.36a.41.41,0,0,1,.16,0,.45.45,0,0,1,.16,0,.47.47,0,0,1,.25.21,11.89,11.89,0,0,1,.55,1.19.42.42,0,0,1,0,.33.41.41,0,0,1-.21.24,21.74,21.74,0,0,0-2.51,1.36.39.39,0,0,1-.21.06H353a.41.41,0,0,1-.25-.2q-.33-.65-.63-1.29A.4.4,0,0,1,352.3,126.48Zm35.49,7.69c.27-.17.55-.34.8-.53a.36.36,0,0,1,.24-.09h.08a.4.4,0,0,1,.27.19c.49.85,1,1.7,1.52,2.53a.37.37,0,0,1,.05.31.36.36,0,0,1-.18.24l-.94.59-.81.5a.39.39,0,0,1-.21.06h-.1a.39.39,0,0,1-.25-.2,23.41,23.41,0,0,0-1.47-2.44.39.39,0,0,1,.09-.54A9.13,9.13,0,0,1,387.79,134.17Zm14.27-7.08a2.15,2.15,0,0,1,1.16-.37,1.45,1.45,0,0,1,.83.25,1,1,0,0,1,.46,1.06,2,2,0,0,1-1.43,1.35H403a.4.4,0,0,1-.37-.26,10.65,10.65,0,0,0-.69-1.51A.4.4,0,0,1,402.06,127.09Z"/><path class="cls-8" d="M355.93,146.46c.22,1,1.61,2,2.74,2.65a7,7,0,0,0,3.62.91c.3,0,.6,0,.91,0a.39.39,0,0,0,.28-.15.36.36,0,0,0,.08-.3,4.64,4.64,0,0,1,0-1.34A3.12,3.12,0,0,1,364,147a.41.41,0,0,0,0-.48,7.49,7.49,0,0,0-5-2.53,3.33,3.33,0,0,0-2.8,1.43A1.25,1.25,0,0,0,355.93,146.46Zm11-.74a3.49,3.49,0,0,1,3.43,4.25,3.27,3.27,0,0,1-3.23,2.4,3.71,3.71,0,0,1-2.9-1.36,3,3,0,0,1-.47-2.71A3.24,3.24,0,0,1,366.91,145.72Zm2,.21a.37.37,0,0,1-.18-.05,2.85,2.85,0,0,0-.84-.3,4.88,4.88,0,0,0-.76-.07.39.39,0,0,1-.39-.36c-.32-3.57.16-8.42,2.57-10.35a1.87,1.87,0,0,1,1.16-.49,1.19,1.19,0,0,1,.89.4c.95,1,.9,3.46.9,3.48a11,11,0,0,1-.47,2.84,11.25,11.25,0,0,1-2.6,4.78A.38.38,0,0,1,369,145.93Z"/><path class="cls-9" d="M364.27,151a2.86,2.86,0,0,1-.5-1c1.59-.2,3.1.55,4.7-.38a2.8,2.8,0,0,0,1.29-1.72q.06-.22.12-.51a3.65,3.65,0,0,1,.46,2.59,3.23,3.23,0,0,1-3.2,2.38A3.66,3.66,0,0,1,364.27,151Z"/><path class="cls-9" d="M369,145.93a.37.37,0,0,1-.18-.05,2.85,2.85,0,0,0-.84-.3,4.88,4.88,0,0,0-.76-.07.42.42,0,0,1-.28-.12,15,15,0,0,1,1.57-1.32,7.89,7.89,0,0,0,2.31-3.6,28,28,0,0,0,1.08-5,8,8,0,0,1,.45,2.75,11,11,0,0,1-.47,2.84,11.25,11.25,0,0,1-2.6,4.78A.38.38,0,0,1,369,145.93Z"/><path class="cls-9" d="M363.55,148.19a4.64,4.64,0,0,0,0,1.34.36.36,0,0,1-.08.3.39.39,0,0,1-.28.15c-.31,0-.61,0-.91,0a7,7,0,0,1-3.62-.91c-1.13-.65-2.52-1.63-2.74-2.65a1.25,1.25,0,0,1,.21-1,3.47,3.47,0,0,1,.8-.78c1.9,1.77,3.91,3.26,6.67,3.29A2,2,0,0,1,363.55,148.19Z"/><path class="cls-4" d="M391,136.2l-.93-1.56a69.12,69.12,0,0,1-4.57-8.54,2,2,0,0,1,.24-1.9,4.73,4.73,0,0,1,2.94-1.47,20,20,0,0,0,2,7.68,42.75,42.75,0,0,0,3.94,6.81c.84,1.23,1.76,2.41,2.62,3.62,1,1.42,2,1.83,3,1.75l0,.08c-.58.78-1.56,2.1-2.79,2.1a2.2,2.2,0,0,1-1.76-1.1c-.17-.23-.33-.46-.49-.7-.37-.54-.73-1.1-1.08-1.65C393.07,139.69,392,138,391,136.2Z"/><path class="cls-4" d="M343.49,144c1.45-6.95,5-12.45,10-15.47a24.26,24.26,0,0,1,6.18-2.62,27.61,27.61,0,0,0-11.15,9.81c-5.75,8.65-5.49,20,1.61,27.72s18.8,10.31,28.17,5.69c9.94-4.9,11.62-15.77,11.84-25.68a25.91,25.91,0,0,1,.18,12c-2.72,10.56-11.88,17.93-22.27,17.93a23.75,23.75,0,0,1-5.35-.62C349.22,169.59,340.78,157,343.49,144Z"/><path class="cls-4" d="M347,126c3.39-.8,6.55-2.85,9.5-4.63s4.61-3.68,5.19-6.27c1,.83,2,2,2.1,3.1a2,2,0,0,1-.75,1.7,74.08,74.08,0,0,1-8.64,5.16l-1.26.68c-1.72.93-3.72,2-5.71,3l-.31.16a7.64,7.64,0,0,1-3,1c-.77,0-1.75-.36-2-2.09-.08-.5-.13-1-.17-1.5A13.74,13.74,0,0,0,347,126Z"/><path class="cls-5" d="M352.39,127.54c-.09-.17-.18-.35-.26-.53a.4.4,0,0,1,.17-.53c.87-.44,1.74-.9,2.6-1.36a.41.41,0,0,1,.16,0,.45.45,0,0,1,.16,0,.47.47,0,0,1,.25.21c0,.09.09.18.13.26a21.12,21.12,0,0,1-2.08,1.21C353.17,127,352.79,127.27,352.39,127.54Z"/><path class="cls-5" d="M346,169a4.92,4.92,0,0,0,3.84-3.16c.41.42.83.83,1.27,1.22a.43.43,0,0,1,.14.32.42.42,0,0,1-.18.31l-1.14.8c-.77.55-1.57,1.12-2.4,1.62a6.66,6.66,0,0,1-2.73.95,1.1,1.1,0,0,1-.95-.4,1.47,1.47,0,0,1-.13-1.32,5.17,5.17,0,0,1,.18-.51A5,5,0,0,0,346,169Z"/><path class="cls-5" d="M387.79,134.17c.27-.17.55-.34.8-.53a.36.36,0,0,1,.24-.09h.08a.4.4,0,0,1,.27.19c.49.85,1,1.7,1.52,2.53a.37.37,0,0,1,.05.31.36.36,0,0,1-.18.24l-.94.59h0a10.47,10.47,0,0,1-2.11-3.08Z"/><path class="cls-5" d="M371.68,173.16a22.36,22.36,0,0,0,2.78-.64,3.52,3.52,0,0,0-.74,1.13c-.4,1,.35,2.39,1,3.15a9.26,9.26,0,0,0,1.86,1.67,2.27,2.27,0,0,1-.43.85,1,1,0,0,1-.73.34,1.62,1.62,0,0,1-1.1-.56,12.36,12.36,0,0,1-2.44-4.27c-.15-.38-.31-.75-.46-1.11a.39.39,0,0,1,0-.35A.42.42,0,0,1,371.68,173.16Z"/><path class="cls-10" d="M350.66,136.15a24.07,24.07,0,0,0-.6,6c.14,9.28,4.83,17,14,19.53,9.5,2.63,16.62-5.48,19.18-13.56a25.6,25.6,0,0,0,1.16-9.52,21.91,21.91,0,0,1,2.5,15.9c-2.34,9-10.11,15.27-18.91,15.27a20,20,0,0,1-4.33-.49C352.05,166.68,344.74,156,347,145A23,23,0,0,1,350.66,136.15Z"/><path class="cls-6" d="M372,128.62c11.64,2.54,17.84,14.88,15.41,26-2.86,11-12.82,17.27-24,15.19a22.52,22.52,0,0,1-13.76-8.92c-3.45-4.66-4.22-10.54-3.3-16.14C348.41,132.4,360.27,126,372,128.62ZM347.35,145c-2.27,11.28,5.49,21.4,16.36,23.84,10.57,2.37,20.13-4.36,22.76-14.49,2.39-11-3.72-22-14.7-24.81a21.28,21.28,0,0,0-16.51,2.64C350.85,135.06,348.36,140,347.35,145Z"/><path class="cls-6" d="M348.13,129c-1.39.7-3.77,2.31-5.34,1.39s-1.6-4-1.6-5.72a14.4,14.4,0,0,1,4.55-10.65,2.17,2.17,0,0,1,.18-3.34c1.06-.7,2.46.24,2.94,1.31a11,11,0,0,1,2.57-.8c3.4-.63,6.89.72,9.63,2.64,2.11,1.48,5,4.14,2.41,6.44l-.06,0s0,0,0,0A63.9,63.9,0,0,1,356,125a8.49,8.49,0,0,1,.61,1.34,26.87,26.87,0,0,1,5.2-1.54,24.88,24.88,0,0,1,24.75,9.5c.58-.43,1.26-.75,1.8-1.22a63.63,63.63,0,0,1-3.45-6.85c-1.95-5.91,10-4.29,12.67-3.11a9.89,9.89,0,0,1,4.19,3.44,2.37,2.37,0,0,1,2.92.14c1.14,1.17,0,2.89-1.35,3.24a15.49,15.49,0,0,1-1.05,10.56c-.93,1.92-2.62,4.85-4.95,5-1.72.12-3.25-3.15-4-4.31s-1.63-2.56-2.44-3.87l-1.82,1.13a24.93,24.93,0,0,1,1.84,17.14,23.8,23.8,0,0,1-14.44,16.7c.61,1.9,2.15,6.68-.36,7.68-3,1.2-4.55-4.47-5.39-6.28a26,26,0,0,1-4.85.12,25.39,25.39,0,0,1-14.25-5.76l-.06.05c-1.56,1.06-6.61,5.75-8.31,2.58-.57-1.07.19-2.43.8-3.28a24.63,24.63,0,0,1,3.39-3.68,24.53,24.53,0,0,1-4.94-12.29,26.74,26.74,0,0,1,4.8-17.93,19.8,19.8,0,0,1,5-4.86c-.24-.45-.46-.91-.68-1.37Zm-1.51-17.53c-.45,0-.61.58-.59.93a1.36,1.36,0,0,0,.5,1,11.3,11.3,0,0,1,1.43-.93A1.48,1.48,0,0,0,346.62,111.51ZM360,114.32a13.75,13.75,0,0,0-4.38-1.93c-3.72-1-7.27.44-9.92,3.06-3.19,3.16-3.91,8-3.22,12.31.49,3,3.08,1.45,4.78.62,1.92-.95,3.81-2,5.7-3a84.76,84.76,0,0,0,9.86-5.82C364.82,117.7,361.06,115.08,360,114.32Zm43.85,13a1.42,1.42,0,0,0-1.54.12A11.09,11.09,0,0,1,403,129C403.71,128.83,404.62,127.86,403.82,127.3Zm-9.38,13.8c.35.55.71,1.11,1.07,1.65l.48.68c1.64,2.28,3.32-.22,4-1.15,3.43-4.56,4.11-11.15.39-15.77a10.91,10.91,0,0,0-7.31-3.57c-1.83-.22-8.28-.11-7.24,3a83.07,83.07,0,0,0,5.47,10Q392.84,138.57,394.44,141.1Zm-4.08-4.61c-.52-.84-1-1.68-1.53-2.54-.55.42-1.17.73-1.71,1.15a26.69,26.69,0,0,1,1.49,2.48Zm-15.8,42.33c1.66,1.61,1.86-1.59,1.78-2.42a18.82,18.82,0,0,0-.83-3.77,23.34,23.34,0,0,1-3.77.93C372.52,175.33,373.18,177.46,374.56,178.82Zm-30.44-9.34c-.61,2.28,2.51.75,3.21.33,1.22-.73,2.35-1.61,3.53-2.41a25.37,25.37,0,0,1-2.79-2.89C346.56,165.84,344.62,167.57,344.12,169.48Zm-.24-25.42c-2.76,13.23,6.1,25.29,18.92,28.3,12.52,2.93,24-4.92,27.14-17,2.79-12.6-4.08-25.5-16.64-29.07a25.37,25.37,0,0,0-19.59,2.57C348.29,132.12,345.14,138,343.88,144.06Zm9.24-15.95a24.15,24.15,0,0,1,2.55-1.39.26.26,0,0,1-.05-.09,7,7,0,0,0-.53-1.15c-.86.46-1.73.91-2.6,1.36C352.69,127.27,352.9,127.69,353.12,128.11Z"/><path class="cls-6" d="M371.23,133.78c1.87.61,1.75,4.08,1.61,5.52a12,12,0,0,1-3.07,6.83,4.69,4.69,0,0,1,1.15,4,3.85,3.85,0,0,1-4.49,2.89,4.15,4.15,0,0,1-3-2.48l-.16.05a8.44,8.44,0,0,1-5.8-1.54c-1-.7-2.58-2.13-2-3.55s2.42-1.92,3.88-2a6.6,6.6,0,0,1,5,2.56,4.11,4.11,0,0,1,1.89-.84C366,142.48,366.64,132.29,371.23,133.78Zm.23,7.13a10.53,10.53,0,0,0,.45-2.73c0-.78-.23-4.74-2.3-3.07-2.45,2-2.69,7.06-2.42,10a4.56,4.56,0,0,1,.82.08,3,3,0,0,1,.95.34A10.8,10.8,0,0,0,371.46,140.91Zm-15,4.77c-.84,1.15,1.68,2.67,2.4,3.08a7.06,7.06,0,0,0,4.3.82,4.62,4.62,0,0,1,0-1.44,3.27,3.27,0,0,1,.5-1.32C362,145,358.31,143.12,356.47,145.68Zm7.65,2.72c-1,3.65,4.75,5.11,5.83,1.45C370.62,146,365.16,144.54,364.12,148.4Z"/><g class="cls-7"><path class="cls-2" d="M363.29,164a45.56,45.56,0,0,1,4.64.7,17.58,17.58,0,0,0,5.69-.46.64.64,0,0,1,.5,1.17c-2.87,2.07-8.33,1.89-11.17-.13A.69.69,0,0,1,363.29,164Z"/><path class="cls-2" d="M360.24,162.63c.67.23,2.09,1,1.35,1.86-.45.52-1.33.29-1.88.07a1,1,0,1,1,.53-1.93Z"/><path class="cls-2" d="M393.7,125.91a4.07,4.07,0,0,1,4.49.65,6,6,0,0,1,2.33,4c.07.58-.62.77-1,.59a16.06,16.06,0,0,1-3-1.69c-.49-.36-1-.61-1.53-.95a11.73,11.73,0,0,1-1.42-1.4A.77.77,0,0,1,393.7,125.91Z"/><path class="cls-2" d="M348,116.48a5.24,5.24,0,0,1,3.84-2.24c1.36-.18,3.11,0,3.81,1.38a.66.66,0,0,1-.23.9,11,11,0,0,1-3.19.65,19.33,19.33,0,0,1-3.64.33C348.12,117.49,347.67,116.92,348,116.48Z"/></g><path class="cls-2" d="M101.16,62a9.6,9.6,0,0,1-3-.48c-3.89-1.3-5.26-5.15-3.76-10.57a46.23,46.23,0,0,1,1.91-5.21c.25-.62.51-1.24.75-1.86,1-2.45,6.14-15.59,6.14-15.59,2.83-7.18,5.75-14.62,8.4-22A.4.4,0,0,1,112,6l.14,0,.31.11.67.24q5.72,2.19,11.44,4.31l.57.22a.37.37,0,0,1,.23.21.42.42,0,0,1,0,.31c-4.31,10.85-8.35,22-12.26,32.85q-1.4,3.88-2.81,7.76c-.19.52-.36,1.06-.55,1.61-.73,2.21-1.48,4.5-3.11,6.17A7.58,7.58,0,0,1,101.16,62Z"/><path class="cls-10" d="M125.38,11.46a.42.42,0,0,0,0-.31.37.37,0,0,0-.23-.21l-.57-.22-3.33-1.25a4.84,4.84,0,0,1-.4,2.35c-.91,2.39-1.78,4.78-2.71,7.16-2.28,5.78-4.74,11.49-7.08,17.25-2.94,7.23-5.5,19.81-12.2,25.49a9,9,0,0,0,2.31.3,7.58,7.58,0,0,0,5.49-2.17c1.63-1.67,2.38-4,3.11-6.17.19-.55.36-1.09.55-1.61q1.41-3.87,2.81-7.76C117,33.5,121.07,22.31,125.38,11.46Z"/><path class="cls-2" d="M127,11.37a6.09,6.09,0,0,1-2.28-.74c-.27-.13-.53-.25-.74-.33l-5.74-2.16-5.48-2.08-1.68-.65a2.24,2.24,0,0,1-1.54-2.56A2.84,2.84,0,0,1,112.26.6h.2l.11,0,8.35,3.14,5.48,2.08,1.52.59a2.52,2.52,0,0,1,1.68,2.71,2.6,2.6,0,0,1-2.4,2.21Z"/><path class="cls-8" d="M101.22,59.72a8.76,8.76,0,0,1-2.33-.34,3.88,3.88,0,0,1-2.54-2.12c-1.74-3.72,1.4-10.87,3.27-15.15.33-.75.61-1.39.81-1.89l.9-2.26c1.82-4.59,3.71-9.33,5.77-13.9a.39.39,0,0,1,.31-.24h0a.37.37,0,0,1,.31.15c.91,1.11,2.87,1.74,4.18,2.15l.43.14a12.72,12.72,0,0,0,3.52.76h.37a.41.41,0,0,1,.38.54c-1.36,3.75-2.68,7.52-4,11.29l-4.48,12.76c-.16.45-.31.91-.46,1.36a31,31,0,0,1-1.44,3.79A5.3,5.3,0,0,1,101.22,59.72Z"/><path class="cls-8" d="M116,26.86a14.8,14.8,0,0,1-3.55-.78L112.1,26c-1.36-.4-3.88-1.16-4.48-2.65a.39.39,0,0,1,.06-.4,2.33,2.33,0,0,1,1.89-.65c2.3,0,5.84,1.42,7,2.82A1.58,1.58,0,0,1,117,26.4a.39.39,0,0,1-.18.27A1.51,1.51,0,0,1,116,26.86Z"/><path class="cls-9" d="M101.22,59.72a5.56,5.56,0,0,0,3.89-1.43c-2.73-.13-5-1-5.45-4.37-.48-4,.8-8.3,1.85-12.1,1.59-5.77,4.4-11.56,5.49-17.53-2,4.5-3.88,9.16-5.67,13.67l-.9,2.26c-.2.5-.48,1.14-.81,1.89-1.87,4.28-5,11.43-3.27,15.15a3.88,3.88,0,0,0,2.54,2.12A8.76,8.76,0,0,0,101.22,59.72Z"/><path class="cls-10" d="M124.27,8.3c-5.07-1.93-10.12-3.4-13.73-7.06a2.89,2.89,0,0,0-1,1.61,2.24,2.24,0,0,0,1.54,2.56l1.68.65,5.48,2.08L124,10.3c.21.08.47.2.74.33a6.09,6.09,0,0,0,2.28.74h.19a2.62,2.62,0,0,0,2.15-1.44C127.6,9.39,125.84,8.9,124.27,8.3Z"/><path class="cls-6" d="M130.2,8c-.27-1.76-2.65-2.31-4-2.83-4.5-1.73-9-3.41-13.53-5.1a.48.48,0,0,0-.26,0A3.27,3.27,0,0,0,109,4c.16,1.06,1.09,1.68,2.1,2.12-3.2,8.94-6.74,17.78-10.22,26.62C99.26,36.79,97.64,40.88,96,45a47.57,47.57,0,0,0-2.7,8c-2,10.27,12.15,13,15.84,4,2.35-5.73,4.23-11.71,6.37-17.52,3.43-9.29,6.74-18.64,10.39-27.85l.57.22C128.85,12.76,130.48,9.84,130.2,8Zm-20.26,44c-.94,2.57-1.62,5.62-3.57,7.63a7.86,7.86,0,0,1-8,1.59c-4.53-1.51-4.57-6.25-3.5-10.09a74.4,74.4,0,0,1,2.64-7c1.68-4.27,3.37-8.53,5-12.8C105.75,23,109,14.77,112,6.44l1,.34c4,1.53,8,3,12,4.53C119.68,24.73,114.86,38.37,109.94,51.94Zm17.22-41c-.9.09-2.23-.74-3-1l-5.74-2.15-5.47-2.08L111.24,5c-2.56-1-1-4.2,1.19-4l8.35,3.13,5.48,2.08,1.52.59A2.13,2.13,0,0,1,127.16,11Z"/><path class="cls-6" d="M107,22.81c-2.9,6.33-5.41,12.87-8,19.34-1.64,4.15-7.23,15.12-.77,17.62,3.34,1.29,6.63.39,8.51-2.7a25.29,25.29,0,0,0,1.83-4.9l2-5.64c2.31-6.57,4.58-13.17,7-19.72a.39.39,0,0,0,.08-.1.46.46,0,0,0,0-.42c.11-1.92-2.83-3.11-4.22-3.67S108,20.72,107,22.81Zm.78,28.65a45.78,45.78,0,0,1-1.88,5.1c-1.33,2.72-4.27,3.19-6.9,2.43-6.45-1.87.23-14.67,1.8-18.62,2.16-5.4,4.27-10.84,6.66-16.15,1.05,1.28,3.31,1.94,4.63,2.37a12.1,12.1,0,0,0,4.18.81c-1.77,4.9-3.48,9.82-5.21,14.74Q109.41,46.79,107.78,51.46Zm8.86-25.13c-.75.48-3.72-.54-4.29-.71-1.18-.35-3.81-1.1-4.36-2.46C109.33,21.51,117,24.28,116.64,26.33Z"/><g class="cls-7"><path class="cls-2" d="M103.63,40.06A14,14,0,0,0,98.9,54.44a.64.64,0,0,0,1.15.15c2.6-4.27,3.71-9,4.86-13.79A.77.77,0,0,0,103.63,40.06Z"/><path class="cls-2" d="M106.27,36.15a1.07,1.07,0,0,0-1.42.37,1.79,1.79,0,0,0-.28,1.93.7.7,0,0,0,.6.35c.79-.1,1-.67,1.47-1.24A1,1,0,0,0,106.27,36.15Z"/></g><path class="cls-2" d="M125.19,229.83c-1.25,0-2.35-.88-3.42-1.73l-.59-.47-5-3.76c-1.93-1.47-3.87-2.92-5.81-4.37-4.19-3.13-8.52-6.38-12.68-9.69-1.9-1.5-1.7-3.45-1.5-5.34,0-.37.08-.75.1-1.13a.41.41,0,0,1,.24-.35.45.45,0,0,1,.16,0,.39.39,0,0,1,.26.1l2.74,2.3c3.83,3.23,7.8,6.56,11.73,9.79,3.4,2.79,7,5.73,10.88,8.38.17.11.37.26.59.43,1,.75,2.55,1.88,3.69,1.88h0a1.25,1.25,0,0,0,.59-.14,13.74,13.74,0,0,0,3.11-2.7l.74-.77c2.33-2.35,4.54-4.77,6.79-7.25,4.94-5.45,10.1-11.37,16.24-18.63l2.21-2.58c2.05-2.39,4.17-4.86,6.09-7.39a.39.39,0,0,1,.32-.16.31.31,0,0,1,.13,0,.4.4,0,0,1,.27.4c-.09,1.34-.24,2.58-.36,3.39a.44.44,0,0,1-.13.24,25.38,25.38,0,0,0-2.2,2.31c-.32.37-.63.73-1,1.08q-3.57,3.89-7.1,7.78l-5,5.53q-6.78,7.46-13.58,14.89l-.29.32c-2,2.17-4,4.35-6,6.49A3.14,3.14,0,0,1,125.19,229.83Z"/><path class="cls-3" d="M94.73,200.89a.39.39,0,0,1-.15-.28.45.45,0,0,1,.1-.29c9.56-10.72,19.86-21.08,29.82-31.1q3.1-3.12,6.18-6.23l.23-.22c1.06-1.09,2.39-2.45,4-2.45a2.71,2.71,0,0,1,.56.05,6.29,6.29,0,0,1,2.11,1.07q.23.17.45.3c3.09,2,6,4.24,8.81,6.43l2.05,1.59c5,3.9,10.28,7.93,14.41,12.72,1,1.19.49,1.8-.19,2.58-.16.18-.34.39-.53.64-1.69,2.17-3.48,4.32-5.2,6.39-5,6-10.28,12.15-15.83,18.42l-1.86,2.11a137.85,137.85,0,0,1-11.31,11.89l-.2.19a4.64,4.64,0,0,1-1.27.92,1,1,0,0,1-.36.06,7,7,0,0,1-3-1.54l-.42-.29a122.76,122.76,0,0,1-10.72-8.14l-.79-.65c-3.84-3.14-7.7-6.4-11.44-9.54Zm68.14-10.41a.39.39,0,0,0-.27.1,36.4,36.4,0,0,0-2.94,3.14c-.44.49-.86,1-1.3,1.46q-5.54,6.06-11.07,12.15l-6.35,7q-4.29,4.71-8.59,9.4c-.52.57-1,1.2-1.59,1.85a20.54,20.54,0,0,1-4.8,4.64,1.23,1.23,0,0,1-.65.16c-1.64,0-4.24-2.29-5.8-3.65-.49-.44-.92-.82-1.23-1.05l-12.6-9.55c-2.4-1.82-4.8-3.63-7.18-5.47a10.75,10.75,0,0,1-2-1.79c-.94-1.17-.75-2.65-.55-4.21a17,17,0,0,0,.19-2,.42.42,0,0,0-.14-.36l-1.15-1a.4.4,0,0,0-.23-.08.58.58,0,0,0-.18,0,.43.43,0,0,0-.25.33c-.35,2.37-.78,5.31-.16,7.45.49,1.66,2.27,3.06,3.69,4.19.36.28.69.55,1,.8a195.82,195.82,0,0,0,15.77,12c1.65,1.15,3.27,2.32,4.89,3.5l3,2.16a5.32,5.32,0,0,0,3.08,1.24,4.37,4.37,0,0,0,2.84-1.23l.83-.74c2-1.89,3.89-3.92,5.56-5.71,6.07-6.51,11.88-13.1,16.27-18.12,3-3.47,5.37-6.17,7.54-8.72,1-1.21,2.05-2.41,3.06-3.62.11-.14.26-.31.43-.49.9-1,2.39-2.56,1.15-3.73A.39.39,0,0,0,162.87,190.48Z"/><path class="cls-8" d="M140.92,195.19a3.38,3.38,0,0,1-1.36-.33,6.35,6.35,0,0,1-1.28-.94l-.36-.3c-1.62-1.34-3.31-2.66-4.95-3.93l-.83-.65c-2.1-1.63-4.16-3.23-6.28-4.78l-.41-.27c-1-.65-2.58-1.73-2.37-3a4.82,4.82,0,0,1,1.52-2.17c.17-.17.32-.32.45-.47l1.64-1.79c1.11-1.2,2.25-2.45,3.33-3.7l.14-.16a5,5,0,0,1,1.87-1.53,1.51,1.51,0,0,1,.53-.1,5.13,5.13,0,0,1,2.63,1.31l1.83,1.38q3,2.27,6,4.55l.37.29c1.76,1.34,3.58,2.74,5.31,4.19a3.33,3.33,0,0,1,1.37,2.22,2.79,2.79,0,0,1-.79,2.05l-2.81,3.24-2.69,3.09C143.06,194.23,142.23,195.19,140.92,195.19Z"/><path class="cls-9" d="M147.2,189.47a23.27,23.27,0,0,1-4.85.87c-3.29.12-7-3.91-9.42-5.79-2.65-2.05-5.16-4.42-4.62-8.09A11.08,11.08,0,0,1,129,174c-.78.87-1.57,1.74-2.35,2.59l-1.64,1.79c-.13.15-.28.3-.45.47a4.82,4.82,0,0,0-1.52,2.17c-.21,1.27,1.41,2.35,2.37,3l.41.27c2.12,1.55,4.18,3.15,6.28,4.78l.83.65c1.64,1.27,3.33,2.59,4.95,3.93l.36.3a6.35,6.35,0,0,0,1.28.94,3.38,3.38,0,0,0,1.36.33c1.31,0,2.14-1,2.87-1.8l2.69-3.09Z"/><path class="cls-4" d="M112.82,181c-6.15,6.29-12.28,12.72-18.14,19.28a.45.45,0,0,0-.1.29.39.39,0,0,0,.15.28l5.5,4.63c3.74,3.14,7.6,6.4,11.44,9.54l.79.65a122.76,122.76,0,0,0,10.72,8.14l.42.29a7,7,0,0,0,3,1.54,1,1,0,0,0,.36-.06,4.64,4.64,0,0,0,1.27-.92l.2-.19a137.85,137.85,0,0,0,11.31-11.89l1.86-2.11c1-1.16,2-2.32,3-3.47a123.89,123.89,0,0,1-12.37,9.16c-5.71,3.52-10.37,3-16-.3a36.19,36.19,0,0,1-11.94-11.38c-3.87-5.94-.19-11.45,3.16-16.44C109.17,185.64,111,183.31,112.82,181Z"/><path class="cls-4" d="M163.4,190.89a1.78,1.78,0,0,0-.26-.31.41.41,0,0,0-.54,0,36.4,36.4,0,0,0-2.94,3.14c-.44.49-.86,1-1.3,1.46q-5.54,6.06-11.07,12.15l-6.35,7q-4.29,4.71-8.59,9.4c-.52.57-1,1.2-1.59,1.85a20.54,20.54,0,0,1-4.8,4.64,1.23,1.23,0,0,1-.65.16c-1.64,0-4.24-2.29-5.8-3.65-.49-.44-.92-.82-1.23-1.05l-12.6-9.55c-2.4-1.82-4.8-3.63-7.18-5.47a10.75,10.75,0,0,1-2-1.79c-.87-1.09-.77-2.44-.59-3.87a10.32,10.32,0,0,1-.24-3l-.82-.69a.4.4,0,0,0-.23-.08.58.58,0,0,0-.18,0,.43.43,0,0,0-.25.33,32.21,32.21,0,0,0-.47,5,10.17,10.17,0,0,0,2.44,3.54A171.86,171.86,0,0,0,110.53,222a142.83,142.83,0,0,0,11.86,8.42c3.4,2.1,5.63.16,8-2.34,6.72-7.18,13.19-14.62,19.77-21.93C154.62,201.15,159.19,196.15,163.4,190.89Z"/><path class="cls-10" d="M99.08,207.2c4.82,4.4,10.09,8.43,15.31,12.35,3.13,2.35,6.55,5.69,10.34,6.94,1.93.63,3.86-1.45,5-2.89a11.26,11.26,0,0,1-2.54,2.1,1.25,1.25,0,0,1-.59.14c-1.14,0-2.67-1.13-3.69-1.88-.22-.17-.42-.32-.59-.43-3.85-2.65-7.48-5.59-10.88-8.38-3.93-3.23-7.9-6.56-11.73-9.79L97,203.06a.39.39,0,0,0-.26-.1.45.45,0,0,0-.16,0,.41.41,0,0,0-.24.35c0,.38-.06.76-.1,1.13l0,.32C97.22,205.63,98.22,206.43,99.08,207.2Z"/><path class="cls-6" d="M163.6,181.86a63.25,63.25,0,0,0-6.82-6.37,180.36,180.36,0,0,0-18.16-14.1c-2.21-1.46-3.61-2.18-6.18-.75-1.74,1-3.33,3.09-4.72,4.49-11.41,11.49-22.94,23-33.72,35.05a.38.38,0,0,0-.2.28.43.43,0,0,0,0,.25,45.46,45.46,0,0,0-.4,7.47c.06,1.78,1.15,2.82,2.4,4a207.53,207.53,0,0,0,17,13.39c2.85,2.09,5.79,4,8.6,6.16,1.92,1.46,3.54,2.6,5.88,1.5,2.5-1.18,4.71-4.19,6.56-6.13,6.55-6.91,12.84-14.08,19.09-21.25q4.19-4.8,8.29-9.66c1.44-1.72,4.67-4.34,2.15-6.16a39.88,39.88,0,0,0,.41-4.48.57.57,0,0,0-.06-.24l.63-.87C165,183.41,164.28,182.65,163.6,181.86ZM131,163.27c1.14-1.16,2.66-2.85,4.46-2.51a8.15,8.15,0,0,1,2.42,1.32c3.05,1.95,5.93,4.19,8.79,6.41,5.61,4.37,11.73,8.84,16.4,14.25,1,1.15.27,1.42-.74,2.71-1.68,2.17-3.44,4.28-5.2,6.39q-7.75,9.33-15.81,18.41c-4.21,4.75-8.4,9.71-13.13,14a5.24,5.24,0,0,1-1.36,1c-.74.29-2.82-1.37-3.4-1.74a129.65,129.65,0,0,1-11.47-8.76c-5.7-4.66-11.3-9.44-17-14.17C106.48,187.7,118.82,175.55,131,163.27Zm30.28,31.27q-1.51,1.82-3.05,3.62-3.73,4.38-7.54,8.72C145.32,213,139.93,219.06,134.4,225c-1.81,1.93-3.62,3.87-5.55,5.68-.26.25-.54.5-.81.73-2,1.7-3.53,1.33-5.43,0-2.63-1.88-5.22-3.81-7.87-5.66A195.13,195.13,0,0,1,99,213.7c-1.44-1.24-4-2.87-4.54-4.8s-.16-5,.17-7.31l1.15,1s0,0,0,.07c0,2.2-1,4.63.45,6.48a11.25,11.25,0,0,0,2,1.86c2.86,2.21,5.75,4.39,8.63,6.57L118,226c1.57,1.2,6,5.83,8.12,4.58,2.49-1.44,4.56-4.47,6.48-6.57q4.31-4.68,8.59-9.4,8.72-9.57,17.43-19.14c1.37-1.5,2.69-3.2,4.21-4.57C164,192,162,193.68,161.25,194.54Zm1.11-4.56a44.69,44.69,0,0,0-3.18,3.42c-2.49,2.71-5,5.43-7.44,8.16q-9.12,10-18.26,20c-2.09,2.28-4.17,4.56-6.29,6.81s-4,.24-5.77-1.1l-5-3.76C110.3,218.88,104,214.31,98,209.5c-2.08-1.65-1.39-3.86-1.25-6.14,4.82,4,9.62,8.11,14.48,12.1,3.54,2.91,7.12,5.79,10.9,8.4,1.15.79,3.74,3,5.29,2.19a19,19,0,0,0,4-3.54c2.33-2.35,4.57-4.8,6.79-7.26,5.54-6.11,10.93-12.35,16.26-18.64,2.77-3.28,5.7-6.54,8.31-10C162.65,187.76,162.51,188.94,162.36,190Z"/><path class="cls-6" d="M125.93,185.05c1.77,1.3,3.51,2.65,5.25,4,2.47,1.91,4.84,4.19,7.44,5.91,3.41,2.24,5.48-1,7.57-3.42,1.27-1.46,2.54-2.91,3.8-4.38.75-.88,1.71-1.94.8-3.07-1.81-2.25-4.36-3.91-6.63-5.65-2.63-2-5.28-4-7.93-6s-4.29-2.65-6.61,0c-1.94,2.24-4,4.37-5.94,6.59-.77.86-1.51,1.85-1.07,3S124.89,184.29,125.93,185.05Zm-.58-6.43c1.66-1.83,3.36-3.63,5-5.5a5.26,5.26,0,0,1,1.86-1.58c.89-.35,2.26.77,2.9,1.26l1.7,1.28q3,2.26,6,4.55c1.91,1.46,3.83,2.92,5.68,4.47,1.24,1.05,1.76,2.27.52,3.7-1,1.19-2.06,2.38-3.09,3.57-.77.88-1.53,1.77-2.3,2.64-.93,1.07-2,2.37-3.86,1.48a9.09,9.09,0,0,1-1.55-1.18c-1.9-1.57-3.85-3.07-5.8-4.58s-4.16-3.24-6.28-4.79c-.72-.52-2.82-1.68-2.62-2.88C123.63,180.18,124.77,179.26,125.35,178.62Z"/><g class="cls-7"><path class="cls-2" d="M138.34,177A14.89,14.89,0,0,0,133,174.1a.61.61,0,0,0-.69.89,14.87,14.87,0,0,0,3.58,4.24c1.35,1.24,3.07,2.83,5,2.72a.78.78,0,0,0,.74-1C141.35,179.16,139.7,178.07,138.34,177Z"/><path class="cls-2" d="M142.46,181.82a.83.83,0,0,0-.6.78,1.43,1.43,0,0,0,.56,1.07,1,1,0,0,0,1.37-1.37A1.32,1.32,0,0,0,142.46,181.82Z"/><path class="cls-2" d="M160.47,183.41a8.19,8.19,0,0,0-2.69-3.64,20.12,20.12,0,0,0-4.09-3,.61.61,0,0,0-.73.95,49.15,49.15,0,0,0,6.36,6.38A.69.69,0,0,0,160.47,183.41Z"/></g><path class="cls-8" d="M389.06,92.77a.4.4,0,0,1,0,.68,29.07,29.07,0,0,1-3.1,1.63,28.09,28.09,0,0,1-11.66,2.5,30.93,30.93,0,0,1-12.12-2.51.41.41,0,0,1-.21-.53c.1-.24.2-.48.29-.73.26-.63.51-1.29.84-1.92a8.67,8.67,0,0,1,2.49-2.56l.54-.43a11.48,11.48,0,0,0,3.62-4.23.47.47,0,0,1,.31-.41,136.35,136.35,0,0,0,14.58-4.38.3.3,0,0,1,.13,0,.39.39,0,0,1,.27.1.36.36,0,0,1,.12.38,13.66,13.66,0,0,1-.81,2.36c-.65,1.61-1.22,3-.51,4.65C384.68,89.28,387.1,91.54,389.06,92.77ZM402,55.44a31.57,31.57,0,0,0-3.63-7.55.42.42,0,0,0-.27-.18H398a.43.43,0,0,0-.24.08,3.73,3.73,0,0,1-2.2.88,2.66,2.66,0,0,1-1.08-.23l-.81-.37a6.88,6.88,0,0,0-2.94-.92,3,3,0,0,0-1.82.6,8.11,8.11,0,0,0-2.69,3.87c-1.2,2.85-4.09,5.73-7.29,5.73A5.31,5.31,0,0,1,377,57a7.74,7.74,0,0,1-4.92-7.71,17.35,17.35,0,0,1,.68-3.74c.84-3.32,1.87-7.46-1.63-9l-.06,0-.14,0h-.06q-1.37.2-2.64.48a36.3,36.3,0,0,0-18.17,9.83.36.36,0,0,0-.11.25c-.36,4.45,3.59,5,7.08,5.53s6.53.95,6.57,4.33a10.56,10.56,0,0,1-1.49,5.2c-.2.37-.43.77-.68,1.2-1.29,2.22-2.9,5-1.91,7.35s2.6,2.51,4.21,2.75a8.28,8.28,0,0,1,2.36.6,6.8,6.8,0,0,1,2.9,2.52.42.42,0,0,0,.34.17h.11c2.9-.86,5.95-1.84,9.08-2.91a.39.39,0,0,0,.26-.27.42.42,0,0,0-.08-.36,6.44,6.44,0,0,1-.8-7.41C379.59,63,383.87,62,387,62l.8,0h1a5.09,5.09,0,0,0,5.75-4l.13-.35a3.52,3.52,0,0,1,1.29-2,4.44,4.44,0,0,1,2.11-.49,9.26,9.26,0,0,1,3.35.77.4.4,0,0,0,.15,0,.43.43,0,0,0,.28-.11A.39.39,0,0,0,402,55.44Z"/><path class="cls-3" d="M369.27,84.69a.38.38,0,0,1,0,.43,14.1,14.1,0,0,1-3.8,4l-.46.38c-1.73,1.42-2.35,2.87-3.21,4.87a.51.51,0,0,1-.24.24.58.58,0,0,1-.19,0,.31.31,0,0,1-.13,0,34,34,0,0,1-9.77-6.81.43.43,0,0,1-.09-.43.4.4,0,0,1,.35-.26,97.52,97.52,0,0,0,14.55-2c.57-.12,1.13-.25,1.69-.39l.86-.2H369A.4.4,0,0,1,369.27,84.69Zm33.67-13.1a.46.46,0,0,0-.2,0,121.34,121.34,0,0,1-17,7.86.38.38,0,0,0-.25.3,13.23,13.23,0,0,1-.77,2.27c-.7,1.78-1.49,3.8-.69,5.14a17.48,17.48,0,0,0,5.6,5.65.39.39,0,0,0,.2.06.44.44,0,0,0,.22-.07,30.62,30.62,0,0,0,13.32-20.79.41.41,0,0,0-.16-.4A.39.39,0,0,0,402.94,71.59Zm-18.52-17.2a11.2,11.2,0,0,0,1.47-2.77A9.75,9.75,0,0,1,387.31,49c1.16-1.36,2.3-2.08,3.31-2.08h.12a7.69,7.69,0,0,1,2.33.66,7.29,7.29,0,0,0,2.64.7,3.26,3.26,0,0,0,2-.65.4.4,0,0,0,.09-.56,24.55,24.55,0,0,0-7.42-6.9,29.16,29.16,0,0,0-14.89-4c-.95,0-1.92,0-2.87.13a.41.41,0,0,0-.35.29.4.4,0,0,0,.13.42c1.45,1.15,1.83,3.21,1.11,6.11l-.15.63c-.94,3.75-2.11,8.42,1.19,11.48A6.6,6.6,0,0,0,379,57,6.93,6.93,0,0,0,384.42,54.39Zm17.93,2.28a.46.46,0,0,0-.34-.28,9.8,9.8,0,0,0-3.84-1h-.23c-2.12.1-2.67,1.45-3.25,2.88l-.19.45c-.85,2-1.91,3-3.42,3.28a21,21,0,0,1-3.36.24,14.62,14.62,0,0,0-5.3.76c-3.48,1.4-5.2,3.26-5.13,5.53a7,7,0,0,0,1.86,4.86.4.4,0,0,0,.29.12l.13,0,2.06-.72a216.26,216.26,0,0,0,21.8-8.81.41.41,0,0,0,.23-.4A38,38,0,0,0,402.35,56.67ZM368.47,77a.4.4,0,0,0,.26-.26.38.38,0,0,0-.05-.36c-1.38-1.84-3.11-2.23-4.95-2.65a18.79,18.79,0,0,1-2.16-.58,3.65,3.65,0,0,1-2.22-2.45c-.58-2.67.61-4.81,1.87-7.07a17.44,17.44,0,0,0,2-4.55,4.58,4.58,0,0,0-.4-3.67c-1.12-1.73-3.58-2.22-6.18-2.74-3.36-.67-6.54-1.3-6.83-4.51a.4.4,0,0,0-.28-.35l-.12,0a.41.41,0,0,0-.3.14,23.68,23.68,0,0,0-2.14,2.9,28.19,28.19,0,0,0-3.81,16.91.63.63,0,0,0,.1.27.4.4,0,0,0-.06.26A36.39,36.39,0,0,0,346.53,81a.4.4,0,0,0,.36.22h0a52.68,52.68,0,0,0,7.48-.88A137.07,137.07,0,0,0,368.47,77Z"/><path class="cls-1" d="M347.94,87.13c-1.55,0-3.09,0-4.59-.16-2.42-.17-9.79-.69-10.36-5.88s5.33-10.4,9.43-12.63a.32.32,0,0,1,.19,0,.34.34,0,0,1,.19,0,.41.41,0,0,1,.21.31c.07.7.15,1.4.26,2.09a.41.41,0,0,1-.23.43h0c-1.94,1.06-5.16,3.56-5.72,5.83a2.21,2.21,0,0,0,.3,1.88c1.29,1.94,4.08,2.32,6.9,2.44.52,0,1,0,1.55,0,7.44,0,14.94-2.15,22.18-4.22a254.2,254.2,0,0,0,26.65-9.36c.79-.33,1.6-.65,2.42-1,4.51-1.79,9.17-3.65,12.74-6.63,1.16-1,3.75-3.41,2.78-5.12-.78-1.38-2.7-2.05-5.86-2.05-1.32,0-2.62.11-3.78.21-.54.05-1,.09-1.45.11h0a.4.4,0,0,1-.37-.24c-.21-.52-.43-1-.67-1.52a.4.4,0,0,1,.31-.57,40.86,40.86,0,0,1,5.53-.44c4.09,0,7.1.92,9.19,2.82a4.38,4.38,0,0,1,1.53,3.3c0,3-2.89,6.23-5.31,8.42-4.57,4.14-10.42,7-15.55,9.44a156.32,156.32,0,0,1-19.49,7.49C366.13,85.5,356.67,87.13,347.94,87.13Z"/><path class="cls-9" d="M370.06,84.26a.47.47,0,0,0-.31.41,11.48,11.48,0,0,1-3.62,4.23l-.54.43a8.67,8.67,0,0,0-2.49,2.56c-.33.63-.58,1.29-.84,1.92-.09.25-.19.49-.29.73a.41.41,0,0,0,.21.53c1,.41,2,.77,2.95,1.08-.15-4.62,5-7,7.07-11.12a11.44,11.44,0,0,0,.61-1.47C371.89,83.8,371,84,370.06,84.26Z"/><path class="cls-9" d="M363.64,56.93a10.56,10.56,0,0,1-1.49,5.2c-.2.37-.43.77-.68,1.2s-.52.9-.78,1.37a13.49,13.49,0,0,0-.81,2.45c-.57,2.73.8,4.8,3,6.13.29.06.59.11.89.15a8.28,8.28,0,0,1,2.36.6,6.8,6.8,0,0,1,2.9,2.52.42.42,0,0,0,.34.17h.11l2.87-.88a12.1,12.1,0,0,0-6.45-5.53c-4.13-1.64.05-8.09.87-10.52a7.72,7.72,0,0,0-.65-7.13c-1.59-2.23-4.94-2.47-7.39-2.84a6.25,6.25,0,0,1-5.64-5.69,31,31,0,0,0-3,2.7A.41.41,0,0,0,350,47a10.53,10.53,0,0,0,2.61,4.39,3.28,3.28,0,0,0,.68.48,22.64,22.64,0,0,0,3.75.76C360.43,53.09,363.6,53.55,363.64,56.93Z"/><path class="cls-9" d="M383.84,87.35c-.71-1.65-.14-3,.51-4.65a13.66,13.66,0,0,0,.81-2.36A.36.36,0,0,0,385,80a.39.39,0,0,0-.27-.1.3.3,0,0,0-.13,0c-1.13.41-2.27.8-3.41,1.18a7.26,7.26,0,0,1,0,.94,9.65,9.65,0,0,0,.45,4.43c1.2,2.77,3.81,5.31,6.9,7.28.16-.09.31-.16.47-.26a.4.4,0,0,0,0-.68C387.1,91.54,384.68,89.28,383.84,87.35Z"/><path class="cls-9" d="M395.71,53.37a5,5,0,0,0-3.14,3c-1.37,2.72-1.29,3.09-5.77,3.76-2.93.44-6.35.76-7.51,1.22-2.54,1-4.9,3.39-4.92,6.3a11.21,11.21,0,0,0,2.14,6.85l2.05-.69a.39.39,0,0,0,.26-.27.42.42,0,0,0-.08-.36,6.44,6.44,0,0,1-.8-7.41C379.59,63,383.87,62,387,62l.8,0h1a5.09,5.09,0,0,0,5.75-4l.13-.35a3.52,3.52,0,0,1,1.29-2,4.44,4.44,0,0,1,2.11-.49,9.26,9.26,0,0,1,3.35.77.4.4,0,0,0,.15,0,.43.43,0,0,0,.28-.11.39.39,0,0,0,.1-.41c-.18-.54-.38-1.06-.58-1.58A8.54,8.54,0,0,0,395.71,53.37Z"/><path class="cls-9" d="M371.17,36.56l-.06,0-.14,0h-.06l-1.21.19a5.16,5.16,0,0,1,1.41,3.45,24.65,24.65,0,0,1-.73,4.47,21,21,0,0,0-.22,6.93c.67,4.31,6.52,8.18,10.74,6.85a10.27,10.27,0,0,0,5.9-4.13c1.28-1.93,2.62-4.84,5.43-5a33.5,33.5,0,0,0,4.8-.08,5.55,5.55,0,0,0,1.74-.61c-.15-.24-.29-.5-.44-.73a.42.42,0,0,0-.27-.18H398a.43.43,0,0,0-.24.08,3.73,3.73,0,0,1-2.2.88,2.66,2.66,0,0,1-1.08-.23l-.81-.37a6.88,6.88,0,0,0-2.94-.92,3,3,0,0,0-1.82.6,8.11,8.11,0,0,0-2.69,3.87c-1.2,2.85-4.09,5.73-7.29,5.73A5.31,5.31,0,0,1,377,57a7.74,7.74,0,0,1-4.92-7.71,17.35,17.35,0,0,1,.68-3.74C373.64,42.23,374.67,38.09,371.17,36.56Z"/><path class="cls-4" d="M355.55,87l-.17-.16c-1.22.12-2.43.22-3.62.29a.4.4,0,0,0-.35.26.43.43,0,0,0,.09.43,34,34,0,0,0,9.77,6.81.31.31,0,0,0,.13,0,.58.58,0,0,0,.19,0,.51.51,0,0,0,.24-.24,21.16,21.16,0,0,1,1.28-2.65A27.57,27.57,0,0,1,355.55,87Z"/><path class="cls-4" d="M346.53,81a.4.4,0,0,0,.36.22h0c1.12,0,2.28-.13,3.53-.28-5.85-9.5-5.48-21.94-1.73-32.53A23.48,23.48,0,0,0,347,50.84a28.19,28.19,0,0,0-3.81,16.91.63.63,0,0,0,.1.27.4.4,0,0,0-.06.26A36.39,36.39,0,0,0,346.53,81Z"/><path class="cls-4" d="M402,56.39a10.88,10.88,0,0,0-3.37-1,39.11,39.11,0,0,1,2.09,8.93c0,.28,0,.56.06.84.88-.4,1.76-.82,2.64-1.24a.41.41,0,0,0,.23-.4,38,38,0,0,0-1.31-6.85A.46.46,0,0,0,402,56.39Z"/><path class="cls-4" d="M390.33,40.15a29,29,0,0,0-13.82-3.93,37.3,37.3,0,0,1,8.92,3.38A27.76,27.76,0,0,1,395,48.13l0,0a3.55,3.55,0,0,0,.73.08,3.26,3.26,0,0,0,2-.65.4.4,0,0,0,.09-.56A24.55,24.55,0,0,0,390.33,40.15Z"/><path class="cls-4" d="M387.22,91.08a13.21,13.21,0,0,0,2.37,1.78.39.39,0,0,0,.2.06.44.44,0,0,0,.22-.07,30.62,30.62,0,0,0,13.32-20.79.41.41,0,0,0-.16-.4.39.39,0,0,0-.23-.07.46.46,0,0,0-.2,0c-.75.42-1.54.83-2.31,1.24a27.56,27.56,0,0,1-3.6,9.49C394.4,86.33,391,88.91,387.22,91.08Z"/><path class="cls-5" d="M402.3,52c-.49,0-1,.08-1.46.13.17.36.33.72.48,1.09a.4.4,0,0,0,.37.24h0c.42,0,.91-.06,1.45-.11,1.16-.1,2.46-.21,3.78-.21,3.16,0,5.08.67,5.86,2.05,1,1.71-1.62,4.15-2.78,5.12-3.57,3-8.23,4.84-12.74,6.63-.82.33-1.63.65-2.42,1a254.2,254.2,0,0,1-26.65,9.36C361,79.33,353.48,81.48,346,81.48c-.52,0-1,0-1.55,0-2.82-.12-5.61-.5-6.9-2.44a2.21,2.21,0,0,1-.3-1.88c.56-2.27,3.78-4.77,5.72-5.83h0a.41.41,0,0,0,.23-.43c0-.25-.06-.5-.09-.76-1.28.81-2.5,1.65-3.67,2.45-2.88,2-6.55,7.49-1.47,9.84,5.76,2.67,13.55.66,19.56-.3a139.21,139.21,0,0,0,27.31-7.73,173.28,173.28,0,0,0,21-9.72C409.08,62.9,414,60,414.24,56,414.58,51.05,404.82,51.8,402.3,52Z"/><path class="cls-6" d="M414.63,52c-4-2.47-9.61-2-14.07-1.4a27.92,27.92,0,0,0-9-10.32c-6.64-4.58-15.15-5.46-22.92-4-8.74,1.7-17.27,6.81-22.25,14.26-3.24,4.85-4.33,11.06-3.91,17.19-5.95,3.1-15.65,14.1-6,18.4,3.62,1.61,8,1.61,11.87,1.56.69,0,1.37,0,2.06-.07a.35.35,0,0,0,.08.13c8.93,9.31,22.1,12.94,34.33,8.41,10.57-3.92,17.5-13.71,19.15-24.66a.75.75,0,0,0,0-.15c.7-.41,1.42-.79,2.1-1.21C411,67.18,423.63,57.54,414.63,52Zm-35.19,21.1a6.59,6.59,0,0,1-1.75-4.59c-.09-2.73,2.72-4.28,4.88-5.15,2.73-1.1,5.74-.47,8.58-1,2-.35,3-1.82,3.72-3.53s1-3,3.09-3.08a9.12,9.12,0,0,1,3.88,1,.61.61,0,0,0,.13,0,37.54,37.54,0,0,1,1.29,6.78,215.62,215.62,0,0,1-21.76,8.8Zm24.77-10A37.08,37.08,0,0,0,402.08,54c2.93-.15,6.1-.44,8.9.44s.61,3.46-.57,4.65a21.89,21.89,0,0,1-6.13,4ZM390.13,40.5a24.42,24.42,0,0,1,7.3,6.78c-2.22,1.61-4.33-.65-6.66-.78-1.51-.09-2.88,1.17-3.76,2.21-1.34,1.58-1.6,3.79-2.9,5.43a6.5,6.5,0,0,1-9.34.8c-3.31-3.06-1.83-8-.92-11.71.6-2.42.65-5-1.25-6.52A29.12,29.12,0,0,1,390.13,40.5Zm-21.77-3.12c.86-.2,1.73-.35,2.61-.48h0c4.58,1.94.76,8.74.74,12.38a8.2,8.2,0,0,0,5.18,8.09c4.16,1.57,8.2-2.11,9.68-5.6a7.77,7.77,0,0,1,2.56-3.71c1.71-1.26,3.56,0,5.18.74a3.5,3.5,0,0,0,3.67-.7,30.68,30.68,0,0,1,3.59,7.45c-1.85-.74-3.95-1.22-5.8-.26-.93.48-1.26,1.68-1.6,2.58A6,6,0,0,1,392.1,61c-1.33.9-3.53.66-5.06.66-3.13,0-7.67,1-9.45,3.93a6.83,6.83,0,0,0,.84,7.86q-4.5,1.55-9.06,2.9a7.4,7.4,0,0,0-3.07-2.66c-2.4-1.11-5.08,0-6.37-3.13-1.1-2.62,1.4-6,2.57-8.21a11.1,11.1,0,0,0,1.54-5.4c-.08-7.57-14.29-1.8-13.66-9.82C355.12,42.13,361.83,38.87,368.36,37.38ZM347.29,51.05a25.51,25.51,0,0,1,2.1-2.85c.68,7.4,15.35,2.28,13.42,10.8-.94,4.16-4.84,7.22-3.85,11.8a4.07,4.07,0,0,0,2.48,2.74c2.63.92,5.12.68,6.91,3.09a138.12,138.12,0,0,1-14,3.33,52.84,52.84,0,0,1-7.43.87,36,36,0,0,1-3.31-12.58.47.47,0,0,0,0-.52C343.17,61.84,344.26,55.87,347.29,51.05Zm-1.48,29.81c-.8,0-1.6,0-2.4-.07a11.73,11.73,0,0,1-3.83-.87c-4.3-1.86,1-6.33,2.93-7.64.17-.11.36-.21.53-.31A38,38,0,0,0,345.81,80.86Zm6,6.7a98.77,98.77,0,0,0,14.61-2c.85-.18,1.7-.39,2.55-.59a15.37,15.37,0,0,1-4.17,4.3c-1.81,1.5-2.45,3-3.34,5.07A33.59,33.59,0,0,1,351.79,87.56Zm10.55,7.14c.36-.88.68-1.78,1.11-2.62a10.68,10.68,0,0,1,2.93-2.87,11.71,11.71,0,0,0,3.74-4.38,1.16,1.16,0,0,0,0-.18,139.51,139.51,0,0,0,14.61-4.39c-.56,2.53-2.44,4.61-1.3,7.25.88,2,3.4,4.36,5.38,5.6a31.54,31.54,0,0,1-3.05,1.61A29,29,0,0,1,362.34,94.7Zm27.45-2.18A17,17,0,0,1,384.34,87c-1.06-1.74,1.12-5.08,1.5-7.13A120.7,120.7,0,0,0,402.94,72,30.39,30.39,0,0,1,389.79,92.52Zm21.84-27.6c-4.45,4-10.05,6.84-15.45,9.36a155.46,155.46,0,0,1-19.43,7.48c-10.68,3.34-22.14,5.6-33.37,4.81-3.56-.25-9.5-1-10-5.52-.53-4.9,5.09-10,9.22-12.24.07.71.16,1.41.27,2.11h0c-2.12,1.16-7.65,5.22-5.6,8.3,1.49,2.24,4.77,2.51,7.22,2.62,8,.34,16.3-2,23.91-4.22A255.59,255.59,0,0,0,395,68.27c5.1-2.09,11-4.09,15.26-7.68,1.31-1.09,4-3.64,2.88-5.62-1.82-3.2-8.4-2.1-11.47-1.93-.21-.52-.44-1-.68-1.53,4.62-.64,10.74-1,14.4,2.28C419.25,57.28,414.24,62.55,411.63,64.92Z"/><g class="cls-7"><path class="cls-2" d="M394.06,70.43c-1.93.52-3.75,1.35-5.62,2a44.88,44.88,0,0,0-5.77,2.27c-.67.36-.17,1.21.47,1.12a30.55,30.55,0,0,0,11.41-4.3A.63.63,0,0,0,394.06,70.43Z"/><path class="cls-2" d="M397.89,69.35c-.09-.55-.83-.64-1.23-.45A1.83,1.83,0,0,0,395.6,70a.65.65,0,0,0,.3.73A1.44,1.44,0,0,0,397.89,69.35Z"/><path class="cls-2" d="M377.22,50.4c-.63-.88-.78-2-1.35-2.87a.65.65,0,0,0-1-.13C373,49.55,374.34,54,377,54.84a1.6,1.6,0,0,0,1.95-2C378.75,51.84,377.83,51.23,377.22,50.4Z"/><path class="cls-2" d="M346.77,60c-2.68,2.43-3,7.37-.51,10a.79.79,0,0,0,1.23-.16c1.28-3,.66-6.23.39-9.4A.66.66,0,0,0,346.77,60Z"/><path class="cls-2" d="M361.4,89.94a1.2,1.2,0,0,0-.6-1c-.58-.36-3.08-1.24-3.11.13,0,1,1.35,1.79,2.19,2.07a1.24,1.24,0,0,0,1.17-.31l0,0a.65.65,0,0,0,.31-.71S361.4,90,361.4,89.94Z"/><path class="cls-2" d="M375.73,46.31c.55-.11.87-.76,1-1.25a1,1,0,0,0-2-.55C374.54,45.2,374.72,46.51,375.73,46.31Z"/></g><path class="cls-1" d="M142.62,69.51c-5.36,9.39-10.63,16.56-16.1,21.92a.38.38,0,0,1-.15.09,3.47,3.47,0,0,1-1.69.13c-1.85-.26-3.9-1.66-5.25-2.59l-.44-.3a7.51,7.51,0,0,1-2.67-8.46.54.54,0,0,1,.08-.41c.56-.67,1.11-1.3,1.62-1.87a.42.42,0,0,1,.38-.14.36.36,0,0,1,.18.08,4.69,4.69,0,0,0,2.26,1c2.84.4,6.06-1.92,8.64-3.78.76-.54,1.47-1.05,2.13-1.48s1.14-.7,1.75-1.06c2.21-1.31,4.71-2.8,6-4.76.74-1.11.44-2.7.15-4.23a13.93,13.93,0,0,1-.29-2.06.45.45,0,0,1,.21-.54c1.62-.67,3.94-1.55,5.38-1.35A1.48,1.48,0,0,1,146.22,61c.33,2.21-1.48,5.11-2.8,7.23C143.11,68.68,142.84,69.13,142.62,69.51Zm9.55,32.24a.4.4,0,0,0,.11-.75c-6.49-3.48-11.59-10.67-13.32-18.76a.38.38,0,0,0-.33-.31h0a.38.38,0,0,0-.41.2l-.14.24c-.06.1-.13.21-.18.31-.18.33-.37.66-.56,1-1.28,2.27-2.73,4.83-2.28,7.46.74,4.28,4.39,10.85,9.07,11.52a7.08,7.08,0,0,0,.82,0A55.63,55.63,0,0,0,152.17,101.75Zm24.56-2.69h0c-2.92-.31-6.14.69-9,1.57l-1.27.38a136.87,136.87,0,0,0-12.93,4.59l-1.21.5a74.51,74.51,0,0,0-8.58,4,.39.39,0,0,0-.15.16,8.63,8.63,0,0,0,0,7.35,10.83,10.83,0,0,0,6.22,6.25l.09,0,.1,0a.34.34,0,0,0,.2,0c.6-.23,1.19-.48,1.78-.75a.41.41,0,0,0,.23-.4c-.23-2.79,1-4.88,3-7.16a67.32,67.32,0,0,1,7-7.12,21.11,21.11,0,0,1,6.34-4.08,1.85,1.85,0,0,1,.9-.1c1.06.16,2.06,1.24,3,2.19a12.12,12.12,0,0,0,1.19,1.19.34.34,0,0,0,.2.09.14.14,0,0,0,.09,0,.4.4,0,0,0,.27-.14l.32-.38c.24-.29.49-.58.73-.89l.17-.24c1.6-2.13,3.36-4.75,2.78-6.16A1.44,1.44,0,0,0,176.73,99.06Zm29.38-38.3a.38.38,0,0,0-.3-.22l-.11,0c-3.82-.55-7.78-3.31-10.59-7.4-2-2.87-4-7.06-2.56-10.74a.4.4,0,0,0-.31-.54.38.38,0,0,0-.15,0,66.81,66.81,0,0,0-12.65,4.51,106.77,106.77,0,0,0-25.65,17.09.43.43,0,0,0-.13.28c-1.06,4.58.82,10.24,5.61,16.83,5,6.86,10,10.81,15.2,12.06l.06,0,.1,0a.43.43,0,0,0,.27-.06c2.35-1.44,4.64-3,6.81-4.64A94.06,94.06,0,0,0,206.1,61.13.38.38,0,0,0,206.11,60.76Z"/><path class="cls-3" d="M155.42,100.75a.39.39,0,0,1-.3.34l-1.14.27-.24,0a.33.33,0,0,1-.14,0,.2.2,0,0,1-.11,0c-7.29-3.36-13-11.29-14.54-20.2a.41.41,0,0,1,0-.34c.25-.41.5-.82.76-1.22a.37.37,0,0,1,.39-.18h0a.4.4,0,0,1,.31.31c1.93,8.91,7.58,16.81,14.75,20.6A.4.4,0,0,1,155.42,100.75Zm18.24-8.17c-6.46-1.93-11.47-7.53-14.54-11.89-2.86-4.06-6.57-10.12-5.86-15.8a.43.43,0,0,0-.22-.41l-.13,0a.43.43,0,0,0-.33.11c-.36.33-.71.68-1.07,1a.44.44,0,0,0-.11.3c-1.07,4.59.85,10.25,5.71,16.84S166.74,93,171.8,94.3h0a.45.45,0,0,0,.25,0l1.66-1a.4.4,0,0,0,.19-.39A.41.41,0,0,0,173.66,92.58Zm39.42-51.25a3.76,3.76,0,0,0-2.74-1.46,5,5,0,0,0-.57-.06A54.72,54.72,0,0,0,196.38,41a.39.39,0,0,0-.28.2s0,0,0,.05c-1.24,2.26-1.15,5,.28,7.85,2.14,4.31,7,8.13,11,8.71l.29,0a.38.38,0,0,0,.39-.21c2.11-3.91,4.26-8.08,5.29-12.3C213.79,43.54,213.7,42.25,213.08,41.33Z"/><path class="cls-2" d="M207.56,58.55l-.12.22c-.22.41-.46.82-.69,1.23l-.11.18a.39.39,0,0,1-.38.2,4.26,4.26,0,0,1-.5-.06c-4.49-.64-8-4.06-10.12-6.82-1.22-1.57-5-7.06-2.58-11.74a.43.43,0,0,1,.27-.21c.61-.13,1.22-.26,1.83-.37h.13a.41.41,0,0,1,.25.15.39.39,0,0,1,.06.41c-1.29,2.93-.24,5.94.87,8,2.29,4.15,6.93,7.7,10.8,8.28a.41.41,0,0,1,.3.21A.46.46,0,0,1,207.56,58.55ZM125.08,91.89h0a3.44,3.44,0,0,1-.45,0,13.28,13.28,0,0,1-6.12-3.22,8,8,0,0,1-2.69-6.73.43.43,0,0,0-.26-.42l-.09,0a.4.4,0,0,0-.38.17c-1.63,2.29-2.24,4.17-1.87,5.72.6,2.5,3,4.44,4.94,5.63a7.39,7.39,0,0,0,2.8,1.11,5.37,5.37,0,0,0,4.35-1.49.39.39,0,0,0,.12-.43A.4.4,0,0,0,125.08,91.89Zm23.68,31.73c-4.41-2.09-7.2-7.93-5.86-12.25a.42.42,0,0,0-.14-.44.4.4,0,0,0-.19-.07.34.34,0,0,0-.27.06c-.39.25-.79.51-1.17.78-2.55,1.81-3,4.45-1.3,8.09l.08.18c.88,1.92,2.08,4.54,4.52,4.89l.13,0a10.58,10.58,0,0,0,4.14-.52A.4.4,0,0,0,149,124,.39.39,0,0,0,148.76,123.62ZM184.1,58.44a12.44,12.44,0,0,0-4.66-1.71A10.62,10.62,0,0,0,169.32,61a12,12,0,0,0-1.88,9.62,10.36,10.36,0,0,0,5.46,6.67,12.44,12.44,0,0,0,3.89,1.24,10.37,10.37,0,0,0,10.31-4.49,11.6,11.6,0,0,0,1.9-9A10.33,10.33,0,0,0,184.1,58.44ZM170.78,94.21c-6.34-2-11.22-7.59-14.2-11.9-2.71-3.91-6.24-9.75-5.59-15.24a.4.4,0,0,0-.23-.41.35.35,0,0,0-.11,0,.4.4,0,0,0-.34.11c-2,2-3.93,4.12-5.66,6.21-1.5,1.82-2.89,3.67-4.13,5.48a.46.46,0,0,0-.06.3c1.75,9.66,8,18.27,15.86,21.94l.11,0a.42.42,0,0,0,.16,0,69.33,69.33,0,0,0,14.25-5.76.36.36,0,0,0,.21-.38A.4.4,0,0,0,170.78,94.21Z"/><path class="cls-8" d="M133.72,72.13c-.51.32-1,.63-1.5,1L129.27,75l-2.48,1.58-.38.24c-1.74,1.13-3.54,2.3-5.49,2a4.57,4.57,0,0,1-2.18-1,.39.39,0,0,1-.15-.27.37.37,0,0,1,.1-.3l.4-.48c5.88-7.19,12.42-12.34,19.42-15.32a.39.39,0,0,1,.21,0,.44.44,0,0,1,.16.06.42.42,0,0,1,.19.32,14.73,14.73,0,0,0,.23,1.78c.3,1.73.64,3.69-1,5.25A27.36,27.36,0,0,1,133.72,72.13Zm12.06-1.57a6.1,6.1,0,0,1-2.12-1.46.4.4,0,0,0-.23-.12h-.11a.44.44,0,0,0-.3.2A120.53,120.53,0,0,1,135.31,81c-.28.37-1,1.31-1,1.31a.4.4,0,0,0-.06.32.39.39,0,0,0,.2.27l.43.23a12.06,12.06,0,0,1,1.37.81.42.42,0,0,0,.18.08h.14a.4.4,0,0,0,.27-.19c.68-1.23,1.43-2.38,2.16-3.49l.43-.67c.12-.19.25-.37.38-.56l.3-.43a.62.62,0,0,0,.09-.26.36.36,0,0,0,.19-.15,72.12,72.12,0,0,1,5.5-7.08.41.41,0,0,0,.09-.35A.4.4,0,0,0,145.78,70.56Zm27.56,37.22a11.94,11.94,0,0,1-1.14-1.19,5.91,5.91,0,0,0-2.44-2l-.35-.08c-1.23-.17-2.39.64-3.4,1.36-.32.22-.63.44-.91.6a21.21,21.21,0,0,0-3.82,3l-1.07,1c-3.36,3-8,7.24-7.85,11.87a.37.37,0,0,0,.19.33.39.39,0,0,0,.15.06.37.37,0,0,0,.23,0l1.55-.77,1.45-.72c7.4-3.59,13.11-7.77,17.46-12.78a.41.41,0,0,0,.09-.3A.4.4,0,0,0,173.34,107.78Zm-4-7.81a.4.4,0,0,0,.3-.48c-.1-.42-.17-.85-.23-1.29a13.53,13.53,0,0,0-.27-1.5.38.38,0,0,0-.22-.26l-.11,0a.37.37,0,0,0-.23,0,68.18,68.18,0,0,1-11.71,4.44.58.58,0,0,0-.26.13h0a.29.29,0,0,0-.16,0c-.92.24-1.84.47-2.79.67-1.19.26-2.43.49-3.68.68a.39.39,0,0,0-.34.37,12.29,12.29,0,0,0,.3,3.62.39.39,0,0,0,.21.27.28.28,0,0,0,.12,0,.41.41,0,0,0,.22,0c1.87-.79,3.8-1.55,5.61-2.25A118.93,118.93,0,0,1,169.3,100Zm14.42-34.64a6.58,6.58,0,0,0-4.95-3.71A5.85,5.85,0,0,0,173.22,64a6.79,6.79,0,0,0-1,5.56,5.53,5.53,0,0,0,3.15,3.57,6.79,6.79,0,0,0,2,.59,5.71,5.71,0,0,0,5.75-2.5A6,6,0,0,0,183.72,65.33Z"/><path class="cls-9" d="M159.41,103.11a23.38,23.38,0,0,0-3.68-1.23c-.39-.13-.77-.28-1.15-.44-.34.08-.67.17-1,.24-1.19.26-2.43.49-3.68.68a.39.39,0,0,0-.34.37,12.29,12.29,0,0,0,.3,3.62.39.39,0,0,0,.21.27.28.28,0,0,0,.12,0,.41.41,0,0,0,.22,0c1.87-.79,3.8-1.55,5.61-2.25C157.09,104,158.23,103.54,159.41,103.11Z"/><path class="cls-9" d="M138.32,68.84c1.45-1.4,1.33-3.11,1.07-4.7-5.74,6.08-14.49,13.48-19.5,11.7-.26.32-.54.62-.8.94l-.4.48a.37.37,0,0,0-.1.3.39.39,0,0,0,.15.27,4.57,4.57,0,0,0,2.18,1c2,.28,3.75-.89,5.49-2l.38-.24L129.27,75l2.95-1.88c.48-.32,1-.63,1.5-1A27.36,27.36,0,0,0,138.32,68.84Z"/><path class="cls-9" d="M169.41,104.51c-1.23-.17-2.39.64-3.4,1.36-.32.22-.63.44-.91.6a21.21,21.21,0,0,0-3.82,3l-1.07,1c-3.36,3-8,7.24-7.85,11.87a.37.37,0,0,0,.19.33.39.39,0,0,0,.15.06.37.37,0,0,0,.23,0l1.55-.77.68-.34a41.08,41.08,0,0,1,5.79-8.89,29,29,0,0,1,10-7.3,3.42,3.42,0,0,0-1.22-.73Z"/><path class="cls-9" d="M135.31,81c-.28.37-1,1.31-1,1.31a.4.4,0,0,0-.06.32.39.39,0,0,0,.2.27l.43.23a12.06,12.06,0,0,1,1.37.81.42.42,0,0,0,.18.08h.14a.4.4,0,0,0,.27-.19c.4-.72.82-1.41,1.25-2.08a49.53,49.53,0,0,1,.3-5.19C137.43,78,136.4,79.52,135.31,81Z"/><path class="cls-9" d="M184.2,67.12a7.75,7.75,0,0,1-5.2,3.7,4.39,4.39,0,0,1-5-2.16,7,7,0,0,1-.58-4.85c-.06.07-.12.12-.17.19a6.79,6.79,0,0,0-1,5.56,5.53,5.53,0,0,0,3.15,3.57,6.79,6.79,0,0,0,2,.59,5.71,5.71,0,0,0,5.75-2.5A6.33,6.33,0,0,0,184.2,67.12Z"/><path class="cls-4" d="M202.71,51.62c-3.55-1.24-5.7-4.88-7.39-8.16a9.21,9.21,0,0,0,1,5.59c2.14,4.31,7,8.13,11,8.71l.29,0a.38.38,0,0,0,.39-.21,77.59,77.59,0,0,0,3.86-7.94C209.28,51.67,206.25,52.86,202.71,51.62Z"/><path class="cls-4" d="M173.66,92.58c-6.46-1.93-11.47-7.53-14.54-11.89a47.55,47.55,0,0,1-3.4-5.5,31.76,31.76,0,0,0,11.15,17,18.23,18.23,0,0,0,4.93,2.08h0a.45.45,0,0,0,.25,0l1.66-1a.4.4,0,0,0,.19-.39A.41.41,0,0,0,173.66,92.58Z"/><path class="cls-4" d="M155.21,100.35a29.65,29.65,0,0,1-12.78-14.49c.47,3.67,2.56,7.28,4.66,10.07a37.78,37.78,0,0,0,2.85,3.36,22,22,0,0,0,3.55,2.09.2.2,0,0,0,.11,0,.33.33,0,0,0,.14,0l.24,0,1.14-.27a.4.4,0,0,0,.09-.74Z"/><path class="cls-5" d="M167.74,100.62l-1.27.38a136.87,136.87,0,0,0-12.93,4.59l-1.21.5a74.51,74.51,0,0,0-8.58,4,.39.39,0,0,0-.15.16,8.63,8.63,0,0,0,0,7.35,12.24,12.24,0,0,0,1.71,2.91c.28-11.78,14.31-14.76,23.35-20.11Z"/><path class="cls-5" d="M144.13,102.65a7.08,7.08,0,0,0,.82,0,55.63,55.63,0,0,0,7.22-1,.4.4,0,0,0,.11-.75c-.48-.25-.95-.54-1.41-.84-4,.74-8,.39-10.89-3.12a16.05,16.05,0,0,1-3-7.49c-.33-2,.21-4,.37-6a.41.41,0,0,1,0,.09c-1.28,2.27-2.73,4.83-2.28,7.46C135.8,95.41,139.45,102,144.13,102.65Z"/><path class="cls-5" d="M198.52,70.87c-5.44,5.81-11.55,11.6-19,14.74-8.42,3.56-15.06-1.42-19.62-8.18A25.42,25.42,0,0,1,156,66.83a16.61,16.61,0,0,1,.22-5.51c-.82.7-1.64,1.4-2.43,2.12a.43.43,0,0,0-.13.28c-1.06,4.58.82,10.24,5.61,16.83,5,6.86,10,10.81,15.2,12.06l.06,0,.1,0a.43.43,0,0,0,.27-.06c2.35-1.44,4.64-3,6.81-4.64a96.89,96.89,0,0,0,20.84-21.34C201.22,68.08,199.83,69.48,198.52,70.87Z"/><path class="cls-5" d="M133.28,80a42.24,42.24,0,0,1-6.56,5.76c-4.51,3.08-8.12,1.15-10.74-2.31a7.33,7.33,0,0,0,3,5.36l.44.3c1.35.93,3.4,2.33,5.25,2.59a3.47,3.47,0,0,0,1.69-.13.38.38,0,0,0,.15-.09c5.25-5.14,10.31-12,15.44-20.8C139.12,73.77,136.24,76.89,133.28,80Z"/><path class="cls-10" d="M142.57,113.76a8.22,8.22,0,0,1,.33-2.39.42.42,0,0,0-.14-.44.4.4,0,0,0-.19-.07.34.34,0,0,0-.27.06c-.39.25-.79.51-1.17.78-2.35,1.66-2.87,4-1.64,7.25A20.37,20.37,0,0,1,142.57,113.76Z"/><path class="cls-10" d="M203,56.79c-5.57-2.12-8.61-7.41-10.7-12.64-.5,4,2.28,8,3.3,9.35,2.14,2.76,5.63,6.18,10.12,6.82a4.26,4.26,0,0,0,.5.06.39.39,0,0,0,.38-.2l.11-.18c.23-.41.47-.82.69-1.23l.12-.22a.46.46,0,0,0,0-.38.41.41,0,0,0-.3-.21,10.43,10.43,0,0,1-2.13-.58A12.81,12.81,0,0,1,203,56.79Z"/><path class="cls-10" d="M145.42,85a23.58,23.58,0,0,1-2.75-9.51c-.75,1-1.48,2-2.15,3a.46.46,0,0,0-.06.3c1.75,9.66,8,18.27,15.86,21.94l.11,0a.42.42,0,0,0,.16,0,69.33,69.33,0,0,0,14.25-5.76.36.36,0,0,0,.21-.38.4.4,0,0,0-.27-.35c-.34-.11-.67-.23-1-.36a24.51,24.51,0,0,1-11.54,2.74C152.23,96.36,147.92,89.7,145.42,85Z"/><path class="cls-10" d="M125.08,91.89h0a3.44,3.44,0,0,1-.45,0,10.66,10.66,0,0,1-4-1.62,13.13,13.13,0,0,1-5.41.49A15.8,15.8,0,0,0,118.13,93a7.39,7.39,0,0,0,2.8,1.11,5.37,5.37,0,0,0,4.35-1.49.39.39,0,0,0,.12-.43A.4.4,0,0,0,125.08,91.89Z"/><path class="cls-10" d="M169.32,61a12,12,0,0,0-1.88,9.62,10.36,10.36,0,0,0,5.46,6.67,12.44,12.44,0,0,0,3.89,1.24,10.37,10.37,0,0,0,10.31-4.49,11.94,11.94,0,0,0,2.13-6.8,13.08,13.08,0,0,1-12.63,9c-5.6-.16-7.79-6.07-7.4-10.73a15.73,15.73,0,0,1,2.47-6.78A12,12,0,0,0,169.32,61Z"/><path class="cls-6" d="M211.21,52.45c1.36-3,3.14-6.35,3.09-9.7-.09-6.1-12.45-3.14-15.52-2.75-18.88,2.42-36.08,13.86-49.4,26.94-1.06,1-2.07,2.1-3.06,3.19a5.6,5.6,0,0,1-2.44-1.67c.4-.73.81-1.46,1.2-2.2.71-1.38,2.85-5,1.23-6.55-1.86-1.73-5.95.35-7.77,1.08-9.41,3.92-16.52,11.08-22.61,19a.4.4,0,0,0-.12.16l-.65.85c-2.35,3.15-3.72,6.29-1,9.62,2,2.35,6.69,6,9.9,3.83,4-2.72,7.1-6.94,10-10.92A15.13,15.13,0,0,1,136,84.52a13,13,0,0,0-1.66,5.7c0,5,5.13,13.09,10.67,13.07,1.31-.08,2.6-.22,3.89-.39a13.31,13.31,0,0,0,.37,3.77,60.92,60.92,0,0,0-5.84,2.89.52.52,0,0,0-.28.17c-1.07.62-2.12,1.27-3.13,2-3.42,2.43-1.5,7.46.21,10.32,2.29,3.83,5.38,3.95,9.29,2.5,9.91-3.67,19.51-9.35,26-17.86,1.26-1.72,3.88-4.67,3.1-7.06-.68-2.09-4.76-1.05-6.12-.79-.78.16-1.56.33-2.35.52-.26-1-.26-2-.54-3,13.53-6.81,25.25-17.81,33.71-29.86,1.31-1.86,2.51-3.78,3.63-5.74a.09.09,0,0,0,0,0C208.53,58,209.92,55.27,211.21,52.45ZM193.42,41.94c.6-.13,1.2-.26,1.81-.37-3,6.79,5.4,15.81,12,16.78l-.12.22c-.26.48-.53,1-.8,1.41-4.26-.41-7.8-3.46-10.34-6.73C193.61,50.23,191.49,45.65,193.42,41.94Zm16.32-1.73c3.22.23,4,2,3.23,5-1,4.2-3.18,8.36-5.25,12.2-6.21-.65-14.82-9.65-11.27-16v0A54.63,54.63,0,0,1,209.74,40.21Zm-37.85,53.7c-6-1.51-10.89-6.59-14.46-11.43-3.22-4.38-7-10.84-5.64-16.52a.33.33,0,0,0,0-.1l1.07-1c-.7,5.67,2.84,11.68,5.93,16.08,3.57,5.07,8.64,10.22,14.75,12C173,93.29,172.45,93.6,171.89,93.91ZM150.59,67c-.64,5.47,2.71,11.25,5.66,15.52,3.47,5,8.43,10.14,14.41,12a68.93,68.93,0,0,1-14.17,5.72c-8.29-3.86-14-12.82-15.64-21.65q1.93-2.82,4.11-5.46Q147.6,70,150.59,67Zm3.07,34c-7.64-3.53-12.91-11.79-14.32-19.91a.14.14,0,0,0,0-.06l.75-1.22c1.83,8.45,7.23,16.79,15,20.87C154.57,100.82,154.11,100.92,153.66,101Zm-7.83-40c.37,2.55-2.39,6.24-3.56,8.28-4.36,7.64-9.69,15.62-16,21.83-2.19.79-5.37-1.59-7-2.71a7.08,7.08,0,0,1-2.52-8,.52.52,0,0,0,0-.3c.56-.67,1.11-1.3,1.62-1.87,4.38,3.46,9.81-1.88,13.49-4.23,2.57-1.64,6.17-3.36,7.9-5.93,1.22-1.81,0-4.59-.07-6.54a.8.8,0,0,0,0-.15C141.45,60.66,145.54,59,145.83,61Zm-7.16.8c.11,2.29,1.36,4.81-.62,6.72A41,41,0,0,1,132,72.74c-1.8,1.17-3.62,2.3-5.43,3.46-2.43,1.57-4.91,3.39-7.58,1.32l.41-.49C124.65,70.62,131,65.1,138.67,61.83Zm-20.33,30.8c-2-1.21-4.21-3.09-4.76-5.39-.4-1.67.53-3.59,1.81-5.39a8.43,8.43,0,0,0,2.82,7.06c1.45,1.35,4.38,3.24,6.81,3.38C122.86,94.12,120.84,94.17,118.34,92.63Zm16.34-10.07c.32-.44.63-.89.95-1.31a120.78,120.78,0,0,0,7.74-11.87,6.61,6.61,0,0,0,2.26,1.55A73.14,73.14,0,0,0,140.1,78a.42.42,0,0,0-.28.42c-.23.33-.47.65-.69,1-.82,1.27-1.77,2.69-2.6,4.18A17.07,17.07,0,0,0,134.68,82.56Zm.78,8.51c-.5-2.88,1.47-5.78,2.79-8.19.1-.19.22-.37.32-.56,1.64,7.69,6.52,15.27,13.52,19a57.25,57.25,0,0,1-7.16.94C140,102.31,136.16,95.19,135.46,91.07Zm9.14,33.41c-2.38-.25-3.55-3-4.41-4.86-1.29-2.81-1.64-5.6,1.17-7.6l1.16-.77c-1.45,4.69,1.7,10.66,6.06,12.73A10.27,10.27,0,0,1,144.6,124.48Zm11.15-3.71c-.92.45-1.93,1-3,1.49-.11-4.94,5.47-9.46,8.79-12.55a20.49,20.49,0,0,1,3.75-2.89c1.22-.71,2.8-2.32,4.34-1.85,1.32.41,2.31,2.16,3.44,3.11A53.09,53.09,0,0,1,155.75,120.77Zm20.93-21.32c3,.32-1.28,5.71-1.94,6.61-.33.43-.68.84-1,1.26-1.46-1.23-3.19-4.17-5.43-3.35a21.89,21.89,0,0,0-6.46,4.15,68.59,68.59,0,0,0-7,7.16c-1.91,2.25-3.29,4.45-3,7.45-.58.27-1.16.52-1.75.75,0,0,0,0,0,0-4.79-1.55-8.5-8.38-6-13.07a86.12,86.12,0,0,1,9.74-4.43,134.21,134.21,0,0,1,12.89-4.57C169.65,100.47,173.4,99.1,176.68,99.45Zm-7.47.13A118.44,118.44,0,0,0,155.87,104c-1.88.73-3.76,1.47-5.63,2.26a11.9,11.9,0,0,1-.29-3.52c1.24-.18,2.48-.41,3.7-.67h0c.93-.2,1.86-.43,2.78-.68a.44.44,0,0,0,.48-.13,68.21,68.21,0,0,0,11.78-4.46C169,97.71,169,98.67,169.21,99.58Zm12.26-11.93q-3.27,2.47-6.78,4.62l-.09,0c-6.31-1.51-11.34-6.86-15-11.91-3.19-4.4-6.86-10.84-5.54-16.51,0,0,0-.05,0-.07a106.37,106.37,0,0,1,25.57-17,65.69,65.69,0,0,1,12.56-4.48c-1.48,3.74.45,8,2.61,11.12,2.48,3.61,6.48,7,11,7.58A93.47,93.47,0,0,1,181.47,87.65Z"/><path class="cls-6" d="M185,58.36a11.44,11.44,0,0,0-16.17,2.28c-3.87,5.69-3.06,12.48,2.66,16.55a11.46,11.46,0,0,0,15.57-2.12C191.63,69.74,190.47,62.45,185,58.36Zm1.73,15.49c-3.13,4.65-8.9,5.57-13.69,3.12C167,73.84,166,66.64,169.65,61.26c3.56-4.64,9.31-5.48,14.24-2.47C189.41,62.14,190.22,68.72,186.77,73.85Z"/><path class="cls-6" d="M172.77,63.59c-2.27,3.48-1.72,7.43,1.83,9.78a6.63,6.63,0,0,0,9-1.75C189,64.73,178.08,56.91,172.77,63.59Zm10,7.41a5.57,5.57,0,0,1-7.23,1.77c-3.49-1.6-3.95-5.6-2-8.55C178.11,58.47,186.84,64.78,182.8,71Z"/><g class="cls-7"><path class="cls-2" d="M207.81,41.81c-1-.86-2.36-.61-3.57-.44a7.24,7.24,0,0,0-3.52,1.15.61.61,0,0,0,0,1c1.85,1.16,6.15,1.39,7.33-.8A.73.73,0,0,0,207.81,41.81Z"/><path class="cls-2" d="M210.93,42a1.11,1.11,0,0,0-1.75-.74,1.34,1.34,0,0,0-.48.57,1,1,0,0,0,.28,1.11,1.19,1.19,0,0,0,.7.29A1.12,1.12,0,0,0,210.93,42Z"/><path class="cls-2" d="M183.22,47a54,54,0,0,0-22.53,13.9c-.47.5.29,1.19.81.83,7.22-5,15.15-8.65,22.42-13.49C184.64,47.78,184,46.79,183.22,47Z"/><path class="cls-2" d="M137.89,88.57a.62.62,0,0,0-1.13,0c-.57,1.46-.21,4,1.06,5a.66.66,0,0,0,1-.25,3.38,3.38,0,0,0-.14-2.34A15.6,15.6,0,0,0,137.89,88.57Z"/><path class="cls-2" d="M137.1,65.81a3.36,3.36,0,0,0-2,1.26,12.8,12.8,0,0,0-1.8,2,.63.63,0,0,0,.57,1,3.91,3.91,0,0,0,2.27-1.25,4.7,4.7,0,0,0,1.68-2.26A.65.65,0,0,0,137.1,65.81Z"/><path class="cls-2" d="M170,108.15a8.31,8.31,0,0,0-2.46,1.53,5.25,5.25,0,0,0-1.85,2.14.65.65,0,0,0,.84.86,9.9,9.9,0,0,0,2.4-1.61,5.54,5.54,0,0,0,1.88-2.09A.63.63,0,0,0,170,108.15Z"/><path class="cls-2" d="M146.13,114.64a7,7,0,0,0-.42-1.59.64.64,0,0,0-1.08-.16c-.84,1-.34,2.62,0,3.68s1.25,2.87,2.61,2.71a.67.67,0,0,0,.56-.56c.14-1-.76-1.82-1.17-2.63A8.14,8.14,0,0,1,146.13,114.64Z"/><path class="cls-2" d="M122.54,86.92a21.49,21.49,0,0,1-2-2.15.61.61,0,0,0-1.09.44A5,5,0,0,0,121,88c.74.74,1.9,1.88,3,1.64a.65.65,0,0,0,.5-.87C124.26,87.86,123.23,87.46,122.54,86.92Z"/><path class="cls-2" d="M181.66,68.14c-1-.1-1.63.55-2.33,1.2a5.51,5.51,0,0,1-1,.69c-.33.18-.85.63-.6,1.07.55,1,1.83.65,2.63.17a3.27,3.27,0,0,0,1.84-2.36A.68.68,0,0,0,181.66,68.14Z"/></g><path class="cls-3" d="M5.28,48.36C2.93,48.21,1.85,44,1.34,42l-.08-.3c-.54-2.06-1.8-6.89,1.56-8a18.13,18.13,0,0,1,5.56-1c3.27,0,4,3.43,4.41,5.71.06.29.12.58.19.88.48,2.21,1.08,5-.72,6.75s-5.11,2.23-6.93,2.34h0Z"/><path class="cls-1" d="M18.2,35.51a.41.41,0,0,1-.38-.29,9.19,9.19,0,0,0-1.4-3.11.41.41,0,0,1-.07-.37.41.41,0,0,1,.27-.26c4-1.22,8.25-2.1,12.35-3,2-.4,3.91-.81,5.83-1.25q6.62-1.51,13.23-3l2-.47a41.29,41.29,0,0,1,5.16-1h0a.42.42,0,0,1,.32.16.4.4,0,0,1,.05.38,9,9,0,0,0-.54,3.24.4.4,0,0,1-.33.39c-4.1.75-8.25,1.79-12.25,2.8-2,.49-4,1-6,1.46l-5.78,1.34c-4.08.94-8.3,1.91-12.42,2.93Zm1.21,5.28h.07c1.11-.19,2.43-.54,3.7-.88L25,39.43l12.44-3q3-.72,6-1.47c4.1-1,8.33-2.07,12.51-3a.44.44,0,0,0,.28-.22.39.39,0,0,0,0-.35,11.42,11.42,0,0,1-1.12-3.83.39.39,0,0,0-.15-.28.43.43,0,0,0-.24-.08h-.08c-4.05.75-8.15,1.77-12.1,2.77-2,.49-4,1-5.94,1.45l-5.82,1.35c-4.07.94-8.28,1.91-12.41,2.93a.41.41,0,0,0-.29.49c.15.62.28,1.21.38,1.71l.07.33c.05.21.1.45.16.71.11.47.24,1,.34,1.55A.4.4,0,0,0,19.41,40.79Zm39-6.49a9.2,9.2,0,0,1-1.73-2.07.42.42,0,0,0-.34-.18h-.09c-4.35,1-8.75,2.06-13,3.12-2.08.52-4.15,1-6.23,1.54l-.64.16-12,2.92-1.61.41c-1.07.28-2.18.57-3.26.76a.39.39,0,0,0-.33.44,5.88,5.88,0,0,1-.05,2.09.42.42,0,0,0,.1.37.4.4,0,0,0,.29.12h.08c7.55-1.57,15.17-3.41,22.54-5.19,5.29-1.27,10.75-2.59,16.13-3.8a.39.39,0,0,0,.3-.29A.4.4,0,0,0,58.44,34.3Z"/><path class="cls-8" d="M18.14,37.49a24.44,24.44,0,0,1,.76,4.59,3.11,3.11,0,0,1-.76,2.45,4.5,4.5,0,0,1-3.32,1.16,9,9,0,0,1-1.35-.11.39.39,0,0,1-.29-.57,7.9,7.9,0,0,0,.17-4.6c-.06-.31-.11-.67-.17-1.06-.3-2.11-.77-5.3-2.42-6.29L10.65,33a.4.4,0,0,1,0-.69A7.16,7.16,0,0,1,14,31.22a2.64,2.64,0,0,1,2.4,1.37A18.74,18.74,0,0,1,18,37.11Zm54-11.71a1.56,1.56,0,0,1-.63-1.35.41.41,0,0,0-.37-.42l-1.86-.17L65,23.47c-.9-.08-1.82-.19-2.74-.29a47.83,47.83,0,0,0-5.6-.44h-.38a.44.44,0,0,0-.4.41A10.37,10.37,0,0,0,59,34.52a.4.4,0,0,0,.25.09.34.34,0,0,0,.22-.07c1.86-1.23,3.73-2.44,5.6-3.65l2.65-1.71c.68-.45,1.39-.89,2.11-1.34s1.49-.93,2.23-1.41a.37.37,0,0,0,.18-.31A.4.4,0,0,0,72.09,25.78Z"/><path class="cls-9" d="M11.83,34.24a15.47,15.47,0,0,1,1.35,5.11c.06.39.11.75.17,1.06a7.9,7.9,0,0,1-.17,4.6.39.39,0,0,0,.29.57,9,9,0,0,0,1.35.11l.62,0c.13-.43.27-.86.37-1.3C16.59,40.91,15.21,35.9,11.83,34.24Z"/><path class="cls-9" d="M66.62,29.88c-1,.16-2,.28-3.08.34a12.3,12.3,0,0,1-8.22-2.69,10.41,10.41,0,0,0,3.68,7,.4.4,0,0,0,.25.09.34.34,0,0,0,.22-.07c1.86-1.23,3.73-2.44,5.6-3.65Z"/><path class="cls-4" d="M12.79,38.39a14.44,14.44,0,0,0-.95-3.31,18.69,18.69,0,0,1,.3,1.87,7.34,7.34,0,0,1-3.59,7.41c-3.09,1.82-5.61-.33-7.37-3a3,3,0,0,0,.08.32l.08.3c.51,2,1.59,6.25,3.94,6.4h0c1.82-.11,5.14-.55,6.93-2.34s1.2-4.54.72-6.75C12.91,39,12.85,38.68,12.79,38.39Z"/><path class="cls-5" d="M58.56,34.7a.4.4,0,0,0-.12-.4c-.18-.16-.34-.35-.51-.52-13,2.62-26.07,5.36-38.74,9.35a3.49,3.49,0,0,1-.07.37.42.42,0,0,0,.1.37.4.4,0,0,0,.29.12h.08c7.55-1.57,15.17-3.41,22.54-5.19,5.29-1.27,10.75-2.59,16.13-3.8A.39.39,0,0,0,58.56,34.7Z"/><path class="cls-5" d="M18.3,35.49c4.12-1,8.34-2,12.42-2.93l5.78-1.34c2-.47,4-1,6-1.46,4-1,8.15-2.05,12.25-2.8a.4.4,0,0,0,.33-.39,9.85,9.85,0,0,1,.13-1.65,357.91,357.91,0,0,0-37.87,8.82c.17.44.35.92.51,1.48a.41.41,0,0,0,.38.29Z"/><path class="cls-5" d="M19.41,40.79h.07c1.11-.19,2.43-.54,3.7-.88L25,39.43l12.44-3q3-.72,6-1.47c4.1-1,8.33-2.07,12.51-3a.44.44,0,0,0,.28-.22.39.39,0,0,0,0-.35,11.31,11.31,0,0,1-.63-1.58A221.91,221.91,0,0,0,18.86,39.7c.06.25.11.51.16.77A.4.4,0,0,0,19.41,40.79Z"/><path class="cls-6" d="M75.64,24.52a.43.43,0,0,0-.06-.58.48.48,0,0,0-.36-.18c-3.25-.24-6.5-.57-9.74-.85s-6.89-1-10.22-.72a57.92,57.92,0,0,0-6.62,1.34c-4.51,1-9,2-13.51,3-6.37,1.46-13,2.54-19.28,4.5-1.82-1.09-4.24,0-5.91,1a.47.47,0,0,0-.19.21c-1.89-.49-4.13,0-5.91.47C2.28,33.09,1,33.4.36,35s-.28,3.7,0,5.36c.39,2.36,1.65,8.12,4.72,8.6a.43.43,0,0,0,.23,0,12.69,12.69,0,0,0,6.93-2.16,5,5,0,0,0,.73-.71c2.06.43,4.42.25,5.94-1.35C32.38,42,45.69,38.4,59.12,35.41l.11,0h0l0,0s.05,0,.07,0h0l.08,0c3-2,6-3.92,9-5.88a70.35,70.35,0,0,0,6.92-4.66A.4.4,0,0,0,75.64,24.52Zm-3.56,0h0v0Zm1.69.14h.13l-.08.06ZM19.57,41.36c1.64-.27,3.29-.79,4.89-1.17l12.69-3.08c6.4-1.56,12.79-3.23,19.22-4.66a10.13,10.13,0,0,0,1.81,2.15c-12.91,2.9-25.72,6.29-38.67,9A6.58,6.58,0,0,0,19.57,41.36ZM37.38,36,24.94,39c-1.71.42-3.86,1.08-5.53,1.35-.16-.86-.37-1.67-.5-2.26s-.26-1.28-.45-2.06c6.05-1.5,12.14-2.85,18.22-4.28s12-3.1,18-4.22a11.77,11.77,0,0,0,1.15,4C49.68,32.93,43.54,34.53,37.38,36ZM48.12,24.67a63.45,63.45,0,0,1,7.1-1.48,9.42,9.42,0,0,0-.57,3.38c-6.12,1.12-12.19,2.84-18.24,4.26S24.25,33.61,18.2,35.11a9.72,9.72,0,0,0-1.47-3.25c5.9-1.79,12.17-2.83,18.16-4.2Q41.51,26.14,48.12,24.67ZM12,45.74C10.4,47.31,7.44,47.84,5.31,48c-2.19-.14-3.25-4.79-3.67-6.4C1,39.21,0,35,3,34a17.65,17.65,0,0,1,5.44-.93c2.93,0,3.55,3.08,4,5.39S13.85,43.88,12,45.74Zm1.56-.56a8.13,8.13,0,0,0,.2-4.84c-.36-2.11-.65-6.35-2.77-7.62l-.12-.06c1.63-.9,4-1.86,5.19.14a19.63,19.63,0,0,1,1.72,4.8,23.72,23.72,0,0,1,.74,4.51C18.71,45.07,15.78,45.55,13.54,45.18Zm54-16.34c-2.75,1.79-5.52,3.56-8.25,5.37a9.92,9.92,0,0,1-3-10.91.39.39,0,0,0,0-.15,86.27,86.27,0,0,1,8.69.71l6.11.55a2,2,0,0,0,.78,1.69C70.4,27,68.91,27.93,67.5,28.84Z"/><g class="cls-7"><path class="cls-2" d="M4.91,36.43a1.15,1.15,0,0,0-2.07.27c-.65,1.69.1,4.61,1.78,5.44a.76.76,0,0,0,1-.27,3.46,3.46,0,0,0,.28-2.49A8.25,8.25,0,0,0,4.91,36.43Z"/><path class="cls-2" d="M62.66,29.58c-.63-.75-1.79-.7-2.69-.81-.49-.05-1.89-.67-2,.24s.94,1.65,1.75,1.93c1.06.36,2.37.54,3.09-.5A.73.73,0,0,0,62.66,29.58Z"/></g><path class="cls-1" d="M104,148.09a.35.35,0,0,1-.24-.08l-8.77-6.7c-12.43-9.5-25.27-19.32-38.13-28.66a.4.4,0,0,1,.2-.72l1.7-.12a.48.48,0,0,1,.23.07c5.27,3.59,10.43,7.58,15.42,11.43,2.45,1.89,4.89,3.78,7.35,5.62s4.91,3.75,7.29,5.61c4.91,3.82,10,7.78,15.2,11.23a.39.39,0,0,1,.18.34l0,1.59a.4.4,0,0,1-.23.35A.33.33,0,0,1,104,148.09Z"/><path class="cls-8" d="M104,113.18l-.09-3.16a.41.41,0,0,0-.13-.28.39.39,0,0,0-.27-.11h0c-5.58.19-11.26.49-16.75.78l-7.14.37-7.13.33c-4,.17-8.12.34-12.17.6a.38.38,0,0,0-.36.29.38.38,0,0,0,.15.43c4.89,3.39,9.7,7.1,14.36,10.69q3.64,2.82,7.31,5.59c2.43,1.82,4.88,3.73,7.25,5.58,4.78,3.72,9.72,7.56,14.79,11a.48.48,0,0,0,.23.07.41.41,0,0,0,.18,0,.42.42,0,0,0,.22-.35C104.59,134.36,104.28,123.59,104,113.18Zm-6.33,21a.43.43,0,0,1-.19,0,.39.39,0,0,1-.23-.07c-4.94-3.38-9.77-7.12-14.44-10.73-2.49-1.92-5.06-3.91-7.62-5.82a.39.39,0,0,1-.14-.43.38.38,0,0,1,.35-.29c7.35-.57,14.57-1,21.48-1.23h0a.41.41,0,0,1,.28.11.4.4,0,0,1,.12.28c.07,2,.16,3.93.25,5.9.18,3.9.37,7.93.34,11.89A.4.4,0,0,1,97.65,134.19Z"/><path class="cls-9" d="M104,145.32a.41.41,0,0,0,.18,0,.42.42,0,0,0,.22-.35c0-.61,0-1.24,0-1.85-.81-.62-1.62-1.22-2.39-1.83-4.94-3.88-10.08-7.5-15.16-11.19s-10.22-7.62-15.15-11.66c-2.61-2.13-5.51-4.38-8.09-6.87l-3.35.19a.38.38,0,0,0-.36.29.33.33,0,0,0,0,.1l.4.51c4.8,3.34,9.53,7,14.11,10.51q3.64,2.82,7.31,5.59c2.43,1.82,4.88,3.73,7.25,5.58,4.78,3.72,9.72,7.56,14.79,11A.48.48,0,0,0,104,145.32Z"/><path class="cls-6" d="M104.47,109.51a.54.54,0,0,0-.5-.5c-8,.26-15.9.75-23.85,1.15-8.12.4-16.28.61-24.38,1.26a.44.44,0,0,0-.51.3.36.36,0,0,0,0,.09h0a.47.47,0,0,0,.27.58c16.42,11.89,32.47,24.34,48.6,36.63l.06,0,.06,0a.38.38,0,0,0,.56-.05.49.49,0,0,0,.19-.38C105.3,135.66,104.84,122.53,104.47,109.51Zm-45.76,2.7c7.81,5.32,15.21,11.37,22.76,17S96.21,141,104,146.1l0,1.59C88.39,135.83,72.88,123.83,57,112.33ZM103.49,110c.33,11.59.71,23.28.52,34.89-7.6-5.08-14.73-11.06-22-16.53S67.71,117.24,60.3,112.11c6.43-.4,12.88-.61,19.3-.93C87.56,110.79,95.52,110.3,103.49,110Z"/><path class="cls-6" d="M73.86,117.36c8,5.9,15.63,12.3,23.84,17.85a.42.42,0,0,0,.57-.05.46.46,0,0,0,.18-.38c.11-6.4-.4-12.84-.59-19.24a.52.52,0,0,0-.07-.23.43.43,0,0,0-.43-.27c-7.73.27-15.51.73-23.22,1.34a.44.44,0,0,0-.5.29A.48.48,0,0,0,73.86,117.36Zm23.6,16.47c-7.57-5.18-14.7-11.05-22-16.54,7.14-.56,14.32-1,21.46-1.23C97.07,122,97.51,127.92,97.46,133.83Z"/><g class="cls-7"><path class="cls-2" d="M69,114.52a2.94,2.94,0,0,0-1.45-.65c-.56-.06-.84.54-.76,1a2.15,2.15,0,0,0,.94,1.22,1.19,1.19,0,0,0,1.62,0,.87.87,0,0,0,.26-.66A1.18,1.18,0,0,0,69,114.52Z"/><path class="cls-2" d="M71.19,116.66a1.14,1.14,0,0,0-.53-.53.8.8,0,0,0-1.09,1.09,1.14,1.14,0,0,0,.53.53A.8.8,0,0,0,71.19,116.66Z"/></g><path class="cls-3" d="M338.12,219.42a.4.4,0,0,1-.27-.11.39.39,0,0,1-.12-.36,2.21,2.21,0,0,1,1.32-2c10.67-2.42,21.49-4.81,31.95-7.13l16.86-3.75,19-4.23,3.13-.71a4.08,4.08,0,0,1,.92-.11,2,2,0,0,1,1.91,1.35.39.39,0,0,1,0,.35.42.42,0,0,1-.27.22c-15.74,3.59-31.77,7.1-47.27,10.49q-12.26,2.69-24.49,5.38l-2.62.58Z"/><path class="cls-1" d="M413.27,203.36a.4.4,0,0,0-.39-.25h-.12l-2.17.49-1.08.23q-12.19,2.7-24.38,5.36c-15.47,3.38-31.47,6.88-47.18,10.47a.4.4,0,0,0-.31.39,16.72,16.72,0,0,0,.32,3.12,12.69,12.69,0,0,0,1.86,5.37,2.31,2.31,0,0,0,2,.82,12.7,12.7,0,0,0,3.38-.69c.43-.13.83-.25,1.14-.32l22-4.86,10.09-2.23c11.24-2.49,22.86-5.06,34.31-7.54a2,2,0,0,0,1.33-1C415.37,210.33,413.77,204.73,413.27,203.36Zm-1.66,5.34a2,2,0,0,1-1.71,1,1.31,1.31,0,0,1-1.28-.84,1.39,1.39,0,0,1,.05-1.11,1.8,1.8,0,0,1,1-.91,1.31,1.31,0,0,1,.44-.07,1.65,1.65,0,0,1,1.36.73A1.24,1.24,0,0,1,411.61,208.7Z"/><path class="cls-5" d="M346.33,228.36l22-4.86,10.09-2.23c11.24-2.49,22.86-5.06,34.31-7.54a2,2,0,0,0,1.33-1,5.1,5.1,0,0,0,.49-2.37c-2.52.67-5.05,1.31-7.61,1.85-8.76,1.83-17.5,3.69-26.28,5.44-8,1.61-15.91,3.73-23.8,5.84-3.57,1-7.1,2.06-10.68,3s-6,.27-7.92-1.7a10.27,10.27,0,0,0,1.55,3.8,2.31,2.31,0,0,0,2,.82,12.7,12.7,0,0,0,3.38-.69C345.62,228.55,346,228.43,346.33,228.36Z"/><path class="cls-4" d="M365.32,213.45c11.91-2.6,24.13-5.28,36.29-8-9.18,1.16-18.31,3-27.36,4.83-5.24,1.07-10.47,2.2-15.74,3.14-3.71.66-7.46,1.1-11.17,1.74-3,.52-6,1.51-9,2.31a2.93,2.93,0,0,0-.63,1.49.39.39,0,0,0,.12.36.4.4,0,0,0,.27.11h.09l2.62-.58Q353.07,216.12,365.32,213.45Z"/><path class="cls-6" d="M414.42,205.24c-.37-1.73-1.2-5.42-3.64-4.87L404,201.89l-51.16,11.38q-7,1.54-13.93,3.11c-2.52.85-1.82,5.08-1.52,7s1.16,6.42,3.75,6.72c1.75.19,4.34-.93,6-1.31l10.43-2.31q25.26-5.58,50.53-11.14l3.49-.76c.68-.15,1.86-.18,2.38-.69C416,212,414.91,207.54,414.42,205.24Zm-30.08,2,22.63-5,3.14-.71c1.34-.3,1.89,0,2.39,1-23.88,5.45-47.84,10.58-71.76,15.87l-2.62.58c.14-.81.44-1.46,1.06-1.67C354.22,214,369.29,210.64,384.34,207.29Zm28.31,6.05c-14.81,3.21-29.6,6.5-44.4,9.77l-22,4.86c-1.58.35-5,1.85-6.11.34a12.55,12.55,0,0,1-1.79-5.2,17.3,17.3,0,0,1-.31-3.05c23.81-5.44,47.71-10.55,71.55-15.83l3.26-.72,0,0C413.63,205.52,415.47,212.73,412.65,213.34Z"/><path class="cls-6" d="M410.52,206.2a2.2,2.2,0,0,0-2.57,2c-.17,2.39,3.17,2.66,4.16.84A2,2,0,0,0,410.52,206.2ZM409,208.69a1.21,1.21,0,0,1,.84-1.49c.79-.25,1.78.5,1.42,1.33S409.38,209.7,409,208.69Z"/><g class="cls-7"><path class="cls-2" d="M385.13,216.12c-5.09-.32-10.93,1.28-15.57,3.31-.62.27-.22,1.1.32,1.15,5,.47,10.83-1.23,15.44-3.05A.72.72,0,0,0,385.13,216.12Z"/><path class="cls-2" d="M388.74,215.07a2,2,0,0,0-1.84.6.89.89,0,0,0,.39,1.47,2,2,0,0,0,1.88-.44A1,1,0,0,0,388.74,215.07Z"/></g></g></g></svg>