<svg xmlns="http://www.w3.org/2000/svg" viewBox="0 0 355.31 230.78"><defs><style>.cls-1{fill:#fff;}</style></defs><g id="Layer_2" data-name="Layer 2"><g id="OBJECTS"><path class="cls-1" d="M262.75,170.74a7.57,7.57,0,0,1-6.12-6.84c0-.06,0-.08-.08-.08s-.07,0-.08.08a7.56,7.56,0,0,1-6.12,6.84s0,0,0,0,0,0,0,0a7.56,7.56,0,0,1,6.12,6.84c0,.06,0,.08.08.08s.07,0,.08-.08a7.57,7.57,0,0,1,6.12-6.84s0,0,0,0S262.77,170.74,262.75,170.74Z"/><path class="cls-1" d="M97,122.2a7.54,7.54,0,0,1-6.12-6.84.09.09,0,0,0-.08-.08.08.08,0,0,0-.08.08,7.56,7.56,0,0,1-6.12,6.84,0,0,0,0,0,0,0s0,0,0,0a7.58,7.58,0,0,1,6.12,6.85.07.07,0,0,0,.08.07.08.08,0,0,0,.08-.07A7.56,7.56,0,0,1,97,122.25l0,0S97,122.2,97,122.2Z"/><path class="cls-1" d="M170.61,37.91a7.58,7.58,0,0,1-6.12-6.85.07.07,0,0,0-.08-.07.08.08,0,0,0-.08.07,7.56,7.56,0,0,1-6.12,6.85,0,0,0,0,0,0,0s0,0,0,0a7.56,7.56,0,0,1,6.12,6.84c0,.05,0,.08.08.08a.08.08,0,0,0,.08-.08A7.58,7.58,0,0,1,170.61,38s0,0,0,0S170.63,37.91,170.61,37.91Z"/><path class="cls-1" d="M334.47,80.78a4.71,4.71,0,0,1-3.83-4.28,0,0,0,1,0-.1,0,4.72,4.72,0,0,1-3.83,4.28v0s0,0,0,0a4.72,4.72,0,0,1,3.83,4.28.05.05,0,1,0,.1,0,4.71,4.71,0,0,1,3.83-4.28s0,0,0,0Z"/><path class="cls-1" d="M76.63,11.52A4.74,4.74,0,0,1,72.8,7.24a0,0,0,0,0-.1,0,4.73,4.73,0,0,1-3.83,4.28s0,0,0,0,0,0,0,0a4.73,4.73,0,0,1,3.83,4.29s0,0,0,0,0,0,0,0a4.74,4.74,0,0,1,3.83-4.29s0,0,0,0Z"/><path class="cls-1" d="M278.75,226.42a4.73,4.73,0,0,1-3.83-4.28s0,0-.05,0a0,0,0,0,0-.05,0,4.75,4.75,0,0,1-3.83,4.28,0,0,0,0,0,0,0l0,0a4.73,4.73,0,0,1,3.83,4.28s0,0,.05,0,0,0,.05,0a4.71,4.71,0,0,1,3.83-4.28v0S278.76,226.42,278.75,226.42Z"/><path class="cls-1" d="M355.3,4.33A4.73,4.73,0,0,1,351.47.05s0,0-.05,0a0,0,0,0,0-.05.05,4.75,4.75,0,0,1-3.83,4.28,0,0,0,0,0,0,0h0a4.75,4.75,0,0,1,3.83,4.29s0,0,.05,0a.05.05,0,0,0,.05,0,4.73,4.73,0,0,1,3.83-4.29,0,0,0,0,0,0,0S355.31,4.33,355.3,4.33Z"/><path class="cls-1" d="M110.48,177.69a4.73,4.73,0,0,1-3.84-4.28,0,0,0,0,0,0,0s0,0,0,0a4.71,4.71,0,0,1-3.83,4.28s0,0,0,0v0a4.71,4.71,0,0,1,3.83,4.28s0,.05,0,.05a0,0,0,0,0,0-.05,4.73,4.73,0,0,1,3.84-4.28v0S110.49,177.69,110.48,177.69Z"/><path class="cls-1" d="M33.05,141a4.73,4.73,0,0,1-3.83-4.28s0,0,0,0a0,0,0,0,0-.05,0A4.74,4.74,0,0,1,25.29,141l0,0h0a4.74,4.74,0,0,1,3.83,4.28,0,0,0,0,0,.05.05s0,0,0-.05A4.73,4.73,0,0,1,33.05,141h0S33.06,141,33.05,141Z"/><path class="cls-1" d="M7.78,25.18A4.75,4.75,0,0,1,3.94,20.9s0,0,0,0,0,0-.05,0A4.73,4.73,0,0,1,0,25.18s0,0,0,0a0,0,0,0,0,0,0,4.73,4.73,0,0,1,3.83,4.28s0,.05.05.05,0,0,0-.05a4.75,4.75,0,0,1,3.84-4.28,0,0,0,0,0,0,0S7.79,25.18,7.78,25.18Z"/></g></g></svg>