<?xml version="1.0" encoding="UTF-8"?>
<svg width="70px" height="24px" viewBox="0 0 70 24" version="1.1" xmlns="http://www.w3.org/2000/svg" xmlns:xlink="http://www.w3.org/1999/xlink">
    <!-- Generator: Sketch 53.2 (72643) - https://sketchapp.com -->
    <title>bingoo</title>
    <desc>Created with Sketch.</desc>
    <defs>
        <linearGradient x1="100%" y1="50%" x2="0%" y2="50%" id="linearGradient-1">
            <stop stop-color="#FF7900" offset="0%"></stop>
            <stop stop-color="#FF1E25" offset="100%"></stop>
        </linearGradient>
    </defs>
    <g id="Page-1" stroke="none" stroke-width="1" fill="none" fill-rule="evenodd">
        <g id="logo2-color" transform="translate(-10.000000, -33.000000)" fill="url(#linearGradient-1)" fill-rule="nonzero">
            <path d="M15.3864099,42.0500646 L15.4492005,42.0421622 C16.4015291,41.8683066 17.2622748,41.7813801 18.0314633,41.7813801 C20.7419371,41.7813801 22.2881398,42.8613759 22.6701178,45.0214 C22.753839,45.4902833 22.7956989,45.9328181 22.7956989,46.3490179 C22.7956989,48.3984066 21.8041409,49.8287425 19.820995,50.6400687 C18.6122702,51.1300253 17.2989136,51.375 15.8808858,51.375 C14.4942534,51.375 13.0082245,51.1405619 11.4227543,50.6716786 L10,34.7772928 L15.3864099,33.75 L15.3864099,42.0500646 Z M15.2688172,47.9519573 C15.6055478,47.9839859 15.9175141,48 16.2047255,48 C16.9326579,48 17.4996443,47.8985775 17.9057018,47.6957295 C18.4058457,47.4448386 18.655914,47.0605008 18.655914,46.5427046 C18.655914,46.4679712 18.6509621,46.3932388 18.6410583,46.3185053 C18.5915391,45.9394999 18.175584,45.75 17.3931805,45.75 C16.8781808,45.75 16.2072056,45.8300704 15.3802349,45.9902135 L15.2688172,47.9519573 Z M27.7134972,42 L28.4408602,50.4351504 L23.5483871,51.375 L23.6862032,48.5319549 L23.8469887,42.3211153 L27.7134972,42 Z M25.6182796,41.25 C25.0472719,41.25 24.5595435,41.0484934 24.1550797,40.6454741 C23.7506159,40.2424549 23.5483871,39.7564684 23.5483871,39.1875 C23.5483871,39.0768673 23.5563176,38.9715043 23.572179,38.871408 C23.6356243,38.4341453 23.8312443,38.0522047 24.159045,37.7255747 C24.5608652,37.3251896 25.0472719,37.125 25.6182796,37.125 C26.1892872,37.125 26.6770157,37.3265066 27.0814794,37.7295259 C27.4859432,38.1325451 27.688172,38.6185316 27.688172,39.1875 C27.688172,39.7564684 27.4859432,40.2424549 27.0814794,40.6454741 C26.6770157,41.0484934 26.1892872,41.25 25.6182796,41.25 Z M33.8449921,40.3764651 C35.1163931,39.4588171 36.3464293,39 37.5351375,39 L37.6669284,39 C38.6644097,39 39.5107056,39.2923321 40.2058415,39.8770049 C40.9009774,40.4616778 41.3260634,41.6323169 41.4811123,43.3889574 C41.5689734,44.0968573 41.6129032,44.8178557 41.6129032,45.5519741 C41.6129032,47.3400768 41.3467399,49.2094289 40.8144054,51.1600864 L36.131952,50.2319556 C36.7779891,48.2236173 37.1010028,46.6872354 37.1010028,45.6227637 C37.1010028,44.4271995 36.6978817,43.818939 35.8916274,43.7979642 C34.961334,43.8032079 34.3695729,44.3433012 34.1163264,45.4182603 L34.3876606,50.3656693 L30.0773227,51.75 L29.1935484,41.0450339 L33.7907253,39.3775447 L33.8449921,40.3764651 Z M48.6611889,50.744213 L48.5987016,50.7519841 C48.4945555,50.7571649 48.3930146,50.7597553 48.2940759,50.7597553 C47.0495305,50.7597553 45.8271346,50.3621347 44.6268513,49.5668816 C43.426568,48.7716285 42.6988584,47.6046704 42.4437005,46.0659722 C42.4072494,45.8483785 42.3838169,45.6359688 42.3734023,45.4287368 C42.368195,45.3406631 42.3655914,45.2525908 42.3655914,45.1645172 C42.3655914,43.9625712 42.8147145,42.7878419 43.7129742,41.6402943 C44.6112339,40.4927467 45.8492516,39.7894634 47.4270643,39.5304233 C47.9425873,39.4268072 48.4763278,39.375 49.0283019,39.375 C50.767541,39.375 52.6864032,39.8956628 54.7849462,40.937004 C54.1288261,49.0656822 52.6603888,53.9951413 50.3795902,55.7255291 C49.2548128,56.5751806 48.0545475,57 46.7787584,57 C45.4613108,57 44.0605674,56.549277 42.5764861,55.6478175 L45.0134916,51.3814484 C45.7685505,51.9979638 46.4428861,52.3062169 47.0365186,52.3062169 C47.1614938,52.3062169 47.4231569,52.2582952 47.8215155,52.1624504 C48.2198742,52.0666056 48.4997625,51.5938645 48.6611889,50.744213 Z M49.5246661,46.6445531 C49.7646549,45.6561869 49.887256,44.4988428 49.8924731,43.172486 C49.3081527,42.8908273 48.7499264,42.75 48.2177775,42.75 C48.056046,42.75 47.7704115,42.7832864 47.3608655,42.8498603 C46.9513195,42.9164342 46.5613437,43.1801653 46.1909263,43.6410615 C45.8987661,44.0148994 45.7526882,44.4143368 45.7526882,44.8393855 L45.7526882,44.9469274 C45.7579053,45.0237434 45.7683395,45.0979978 45.7839909,45.1696927 C45.8726824,45.7278892 46.1674467,46.1682945 46.6682928,46.4909218 C47.0491445,46.7469752 47.4691185,46.875 47.9282273,46.875 L48.0534382,46.875 C48.1421297,46.8698789 48.2308199,46.8596369 48.3195114,46.8442737 C48.5595001,46.8186684 48.9612143,46.7520955 49.5246661,46.6445531 Z M55.9817163,44.2535574 C56.088631,44.6813939 56.3221084,45.0645221 56.6821513,45.4029481 C57.1942691,45.8843184 57.8179123,46.125 58.5530998,46.125 C59.2882873,46.125 59.9103597,45.8843184 60.4193356,45.4029481 C60.9283115,44.9215778 61.1827957,44.3497675 61.1827957,43.6875 C61.1827957,43.0252325 60.9283115,42.4534222 60.4193356,41.9720519 C59.9103597,41.4906816 59.2882873,41.25 58.5530998,41.25 C58.0157989,41.25 57.538076,41.3785529 57.1199238,41.6356614 C57.2740102,41.4413025 57.4428626,41.2531825 57.6264813,41.071301 C58.7681555,39.940428 60.1430405,39.375 61.7511775,39.375 C63.3541603,39.375 64.7264682,39.940428 65.8681424,41.071301 C67.0098166,42.202174 67.5806452,43.5742266 67.5806452,45.1875 C67.5806452,46.8007734 67.0098166,48.172826 65.8681424,49.303699 C64.7264682,50.434572 63.3541603,51 61.7511775,51 C60.1430405,51 58.7681555,50.434572 57.6264813,49.303699 C56.484807,48.172826 55.9139785,46.8007734 55.9139785,45.1875 C55.9139785,44.8666444 55.9365577,44.5553303 55.9817163,44.2535574 Z M68.4010711,44.2535574 C68.5079858,44.6813939 68.7414633,45.0645221 69.1015061,45.4029481 C69.6136239,45.8843184 70.2372672,46.125 70.9724547,46.125 C71.7076421,46.125 72.3297145,45.8843184 72.8386904,45.4029481 C73.3476664,44.9215778 73.6021505,44.3497675 73.6021505,43.6875 C73.6021505,43.0252325 73.3476664,42.4534222 72.8386904,41.9720519 C72.3297145,41.4906816 71.7076421,41.25 70.9724547,41.25 C70.4351537,41.25 69.9574308,41.3785529 69.5392786,41.6356614 C69.693365,41.4413025 69.8622175,41.2531825 70.0458361,41.071301 C71.1875103,39.940428 72.5623953,39.375 74.1705324,39.375 C75.7735151,39.375 77.145823,39.940428 78.2874972,41.071301 C79.4291715,42.202174 80,43.5742266 80,45.1875 C80,46.8007734 79.4291715,48.172826 78.2874972,49.303699 C77.145823,50.434572 75.7735151,51 74.1705324,51 C72.5623953,51 71.1875103,50.434572 70.0458361,49.303699 C68.9041619,48.172826 68.3333333,46.8007734 68.3333333,45.1875 C68.3333333,44.8666444 68.3559126,44.5553303 68.4010711,44.2535574 Z M65.5189287,38.2496681 C65.1990025,38.2496681 64.8879985,38.0815761 64.7133774,37.7792711 C63.7727177,36.1517757 62.8932392,35.289164 62.167988,35.2839518 L62.161615,35.2839518 C61.4236178,35.2839518 60.4880565,36.1752304 59.5270032,37.7909985 C59.2606104,38.2418499 58.688312,38.3851842 58.2447489,38.110243 C57.8050096,37.8366048 57.6635283,37.2502374 57.9311957,36.7980829 C59.3013978,34.4956134 60.6843459,33.375 62.1603404,33.375 L62.1794595,33.375 C64.1219599,33.3880304 65.4743175,35.3412855 66.3219309,36.8098103 C66.5844999,37.2632678 66.4353709,37.8496352 65.9918078,38.1154551 C65.8439534,38.2066678 65.6795292,38.2496681 65.5189287,38.2496681 Z M77.1855954,37.8746681 C76.8656692,37.8746681 76.5546651,37.7065761 76.380044,37.4042711 C75.4393844,35.7767757 74.5599058,34.914164 73.8346547,34.9089518 L73.8282816,34.9089518 C73.0902844,34.9089518 72.1547232,35.8002304 71.1936698,37.4159985 C70.927277,37.8668499 70.3549787,38.0101842 69.9114156,37.735243 C69.4716763,37.4616048 69.330195,36.8752374 69.5978624,36.4230829 C70.9680645,34.1206134 72.3510126,33 73.827007,33 L73.8461261,33 C75.7886266,33.0130304 77.1409842,34.9662855 77.9885976,36.4348103 C78.2511665,36.8882678 78.1020376,37.4746352 77.6584745,37.7404551 C77.5106201,37.8316678 77.3461958,37.8746681 77.1855954,37.8746681 Z" id="bingoo"></path>
        </g>
    </g>
</svg>