<?xml version="1.0" encoding="UTF-8"?>
<svg width="200px" height="68px" viewBox="0 0 200 68" version="1.1" xmlns="http://www.w3.org/2000/svg" xmlns:xlink="http://www.w3.org/1999/xlink">
    <!-- Generator: Sketch 53.2 (72643) - https://sketchapp.com -->
    <title>bingoo</title>
    <desc>Created with Sketch.</desc>
    <g id="Page-1" stroke="none" stroke-width="1" fill="none" fill-rule="evenodd">
        <g id="launch-screen" transform="translate(-107.000000, -334.000000)" fill="#FFFFFF" fill-rule="nonzero">
            <path d="M122.15437,359.546283 L122.331028,359.523864 C125.010353,359.030657 127.432013,358.784057 129.596083,358.784057 C137.221853,358.784057 141.57201,361.847875 142.646684,367.975603 C142.882229,369.305768 143,370.561186 143,371.741895 C143,377.555763 140.210306,381.613454 134.630833,383.915088 C131.230152,385.305036 127.535095,386 123.545551,386 C119.644337,386 115.463475,385.334927 111.002841,384.004762 L107,338.914306 L122.15437,336 L122.15437,359.546283 Z M122,375.871886 C122.994157,375.957296 123.9152,376 124.763158,376 C126.912291,376 128.586251,375.72954 129.785088,375.188612 C131.261703,374.51957 132,373.494669 132,372.113879 C132,371.91459 131.98538,371.715303 131.95614,371.516014 C131.809941,370.505333 130.581883,370 128.27193,370 C126.751454,370 124.77048,370.213521 122.328947,370.640569 L122,375.871886 Z M157.769953,360 L160,384.293233 L145,387 L145.422535,378.81203 L145.915493,360.924812 L157.769953,360 Z M152.5,357 C150.982751,357 149.686787,356.462649 148.612069,355.387931 C147.537351,354.313213 147,353.017249 147,351.5 C147,351.204979 147.021073,350.924012 147.063218,350.657088 C147.231802,349.491054 147.751592,348.472546 148.622605,347.601533 C149.690299,346.533839 150.982751,346 152.5,346 C154.017249,346 155.313213,346.537351 156.387931,347.612069 C157.462649,348.686787 158,349.982751 158,351.5 C158,353.017249 157.462649,354.313213 156.387931,355.387931 C155.313213,356.462649 154.017249,357 152.5,357 Z M175.483146,353.88649 C179.168558,351.295484 182.734065,350 186.179775,350 L186.561798,350 C189.453198,350 191.906357,350.825408 193.921348,352.476249 C195.93634,354.12709 197.168537,357.432424 197.617978,362.39235 C197.87266,364.391127 198,366.426887 198,368.499692 C198,373.548452 197.228472,378.826623 195.685393,384.334362 L182.11236,381.713757 C183.985028,376.043155 184.921348,371.705135 184.921348,368.699568 C184.921348,365.323857 183.752821,363.606416 181.41573,363.547193 C178.719088,363.561999 177.003749,365.086968 176.269663,368.122147 L177.05618,382.091302 L164.561798,386 L162,355.774213 L175.325843,351.066009 L175.483146,353.88649 Z M217.742138,383.898148 L217.566038,383.920635 C217.272535,383.935626 216.986375,383.943122 216.707547,383.943122 C213.200192,383.943122 209.755258,382.79256 206.372642,380.491402 C202.990025,378.190244 200.939207,374.813514 200.220126,370.361111 C200.1174,369.731478 200.051363,369.116846 200.022013,368.517196 C200.007337,368.262344 200,368.007497 200,367.752646 C200,364.274674 201.265711,360.875458 203.79717,357.554894 C206.328629,354.234331 209.817588,352.199298 214.264151,351.449735 C215.716988,351.14991 217.221166,351 218.77673,351 C223.678222,351 229.085924,352.506599 235,355.519841 C233.150934,379.041123 229.012611,393.30509 222.584906,398.312169 C219.415078,400.770735 216.032513,402 212.437107,402 C208.7243,402 204.77675,400.69578 200.59434,398.087302 L207.462264,385.742063 C209.590157,387.526023 211.490558,388.417989 213.163522,388.417989 C213.515725,388.417989 214.253139,388.279322 215.375786,388.001984 C216.498433,387.724646 217.287209,386.356714 217.742138,383.898148 Z M220.022684,372.329609 C220.660369,369.454362 220.986137,366.087543 221,362.22905 C219.447377,361.409679 217.96409,361 216.550095,361 C216.120351,361 215.361379,361.096833 214.273157,361.290503 C213.184935,361.484172 212.148713,362.25139 211.164461,363.592179 C210.38815,364.679707 210,365.841707 210,367.078212 L210,367.391061 C210.013863,367.614526 210.041588,367.830539 210.083176,368.039106 C210.318842,369.66295 211.102073,370.944129 212.432892,371.882682 C213.44487,372.627564 214.5608,373 215.780718,373 L216.113422,373 C216.349088,372.985102 216.58475,372.955307 216.820416,372.910615 C217.4581,372.836126 218.525512,372.64246 220.022684,372.329609 Z M254.510934,385 C249.962204,385 246.073243,383.394914 242.843936,380.184694 C239.614629,376.974474 238,373.079615 238,368.5 C238,363.920385 239.614629,360.025526 242.843936,356.815306 C246.073243,353.605086 249.962204,352 254.510934,352 C259.045086,352 262.926757,353.605086 266.156064,356.815306 C269.385371,360.025526 271,363.920385 271,368.5 C271,373.079615 269.385371,376.974474 266.156064,380.184694 C262.926757,383.394914 259.045086,385 254.510934,385 Z M246.513417,372 C248.606451,372 250.377453,371.308812 251.826476,369.926415 C253.275499,368.544018 254,366.901896 254,365 C254,363.098104 253.275499,361.455982 251.826476,360.073585 C250.377453,358.691188 248.606451,358 246.513417,358 C244.420383,358 242.644909,358.691188 241.186941,360.073585 C239.728973,361.455982 239,363.098104 239,365 C239,366.901896 239.728973,368.544018 241.186941,369.926415 C242.644909,371.308812 244.420383,372 246.513417,372 Z M290.510934,385 C285.962204,385 282.073243,383.394914 278.843936,380.184694 C275.614629,376.974474 274,373.079615 274,368.5 C274,363.920385 275.614629,360.025526 278.843936,356.815306 C282.073243,353.605086 285.962204,352 290.510934,352 C295.045086,352 298.926757,353.605086 302.156064,356.815306 C305.385371,360.025526 307,363.920385 307,368.5 C307,373.079615 305.385371,376.974474 302.156064,380.184694 C298.926757,383.394914 295.045086,385 290.510934,385 Z M282.513417,372 C284.606451,372 286.377453,371.308812 287.826476,369.926415 C289.275499,368.544018 290,366.901896 290,365 C290,363.098104 289.275499,361.455982 287.826476,360.073585 C286.377453,358.691188 284.606451,358 282.513417,358 C280.420383,358 278.644909,358.691188 277.186941,360.073585 C275.728973,361.455982 275,363.098104 275,365 C275,366.901896 275.728973,368.544018 277.186941,369.926415 C278.644909,371.308812 280.420383,372 282.513417,372 Z M265.306223,348.999047 C264.382212,348.999047 263.483971,348.516321 262.97963,347.648163 C260.262818,342.97433 257.722709,340.497086 255.62804,340.482118 L255.609633,340.482118 C253.478151,340.482118 250.776064,343.041687 248.000351,347.681842 C247.230955,348.976595 245.578044,349.388221 244.296946,348.598646 C243.026891,347.812814 242.618265,346.128887 243.391342,344.830392 C247.348758,338.218172 251.342987,335 255.605952,335 L255.661172,335 C261.271499,335.037421 265.177377,340.646769 267.625453,344.86407 C268.383804,346.166307 267.95309,347.850234 266.671991,348.613615 C266.244959,348.875559 265.770069,348.999047 265.306223,348.999047 Z M298.306223,347.999047 C297.382212,347.999047 296.483971,347.516321 295.97963,346.648163 C293.262818,341.97433 290.722709,339.497086 288.62804,339.482118 L288.609633,339.482118 C286.478151,339.482118 283.776064,342.041687 281.000351,346.681842 C280.230955,347.976595 278.578044,348.388221 277.296946,347.598646 C276.026891,346.812814 275.618265,345.128887 276.391342,343.830392 C280.348758,337.218172 284.342987,334 288.605952,334 L288.661172,334 C294.271499,334.037421 298.177377,339.646769 300.625453,343.86407 C301.383804,345.166307 300.95309,346.850234 299.671991,347.613615 C299.244959,347.875559 298.770069,347.999047 298.306223,347.999047 Z" id="bingoo"></path>
        </g>
    </g>
</svg>