<svg xmlns="http://www.w3.org/2000/svg" viewBox="0 0 160.52 242.94"><defs><style>.cls-1{fill:#e8e2e0;}.cls-2{fill:#fdb44d;}.cls-3{fill:#fff;}.cls-4{fill:#ef433e;}.cls-5{fill:#6cc9d0;}.cls-6{fill:#90c76a;}.cls-7{fill:#ffcb97;}.cls-8{fill:#d23a36;}.cls-9{fill:#fa9149;}.cls-10{fill:#7baa55;}.cls-11{fill:#47b3b2;}.cls-12{fill:#ffb48e;}.cls-13{fill:#d7eaf4;}.cls-14{fill:#663210;}.cls-15{opacity:0.5;}</style></defs><g id="Layer_2" data-name="Layer 2"><g id="OBJECTS"><path class="cls-1" d="M142.73,197.82c-5.63-2.23-11.62-3.15-17.6-3.89a259.57,259.57,0,0,0-27.71-2.11c-21-.39-43,1.32-63.58,5.89-7.2,1.6-27.3,8-25.47,18.46-.53,4.94,4.61,8,9,9.81,7.9,3.33,16.56,3.82,24.93,5,6.65.9,11.19,5.15,17.26,7.33a27.2,27.2,0,0,0,8.24,1.45c4.34.21,8.66,1.46,12.9,2.32,5.79,1.18,11.56,1.4,17.22-.45a13.43,13.43,0,0,0,5.19-3.2c2.34-2.28.54-6.88,3.1-8.8,3.53-2.64,9.36-2,13.54-2.7s8.4-1.33,12.56-2.26c6.79-1.51,16.26-4.37,19-11.65S149.27,200.42,142.73,197.82Z"/><path class="cls-2" d="M78.85,143.3a.38.38,0,0,1-.24-.09c-6.9-5.45-15.29-8.69-21.83-10.9a.37.37,0,0,1-.26-.3.41.41,0,0,1,.13-.39c3.39-2.79,7.65-4.27,11.72-5.56h.12a.4.4,0,0,1,.36.21c1.45,2.74,4.64,4.54,8.32,4.71h.59c4.07,0,7.77-1.93,9.43-4.93a.41.41,0,0,1,.25-.19h.1a.42.42,0,0,1,.21.06.3.3,0,0,0,.16,0,13.77,13.77,0,0,1,10,6.88.38.38,0,0,1,0,.33.35.35,0,0,1-.23.23c-7.69,2.78-13.77,6-18.61,9.81A.38.38,0,0,1,78.85,143.3Z"/><path class="cls-3" d="M78,130.13c-4.32,0-7.86-1.8-9-4.58-.76-1.85-.51-4,.74-6.33a.44.44,0,0,1,.38-.29h0c.77,0,1.53.09,2.3.12a.39.39,0,0,1,.38.41c0,.3,0,.6,0,.9-.07,1.59-.15,3.09.83,4.27s3,1.54,4.52,1.57h.15a6.63,6.63,0,0,0,4.33-1.41c1.34-1.2,1.28-2.83,1.22-4.57,0-.25,0-.5,0-.75a.38.38,0,0,1,.38-.4l2.2-.09h0a.4.4,0,0,1,.38.28.43.43,0,0,1,0,.11c1.15,2.66,1.1,5.09-.16,7C85.1,128.69,81.78,130.13,78,130.13Z"/><path class="cls-4" d="M30.3,76.65C27.55,76.65,25,71.07,25,71s-.16-.16-.19-.16a.44.44,0,0,0-.35.22.35.35,0,0,0,0,.37c.14.32.31.67.51,1a.4.4,0,0,1,0,.41.42.42,0,0,1-.34.18h0c-.3,0-.6,0-.9,0A7.14,7.14,0,0,0,19,74.63a.38.38,0,0,1-.25.09l-.12,0a.41.41,0,0,1-.27-.26c-1.83-6-1-12.92,2.6-21.09a.38.38,0,0,0,0-.24c0-.06,0-.34-.22-.34h-.15a.16.16,0,0,0-.13,0,.38.38,0,0,1-.13.09,20,20,0,0,0-4,2.27l-.38.29c-.94.73-2.12,1.64-3,1.64a1.1,1.1,0,0,1-.84-.35,2.53,2.53,0,0,1-.42-1.92,32.21,32.21,0,0,1,2.74-10.25c2.5-5.86,7.21-10.9,14.42-15.39.09-.05.22-.1.17-.31s-.15-.36-.32-.36l-.16,0a56.82,56.82,0,0,0-8.4,2.18,6.1,6.1,0,0,0-.58.22A13,13,0,0,1,15.62,32a1.31,1.31,0,0,1-1.19-.51,1.76,1.76,0,0,1,.09-1.66c1.89-4.38,5.74-8.14,9.24-11.25C30.12,13,38.75,8.56,50.15,5a84.43,84.43,0,0,1,24.37-3.9c12,0,21.91,3.19,29.35,9.49a.35.35,0,0,0,.15.09l.12,0a.38.38,0,0,0,.34-.19.27.27,0,0,0,0-.2,30,30,0,0,0-.41-5.56L104,4.37a14.29,14.29,0,0,1-.3-2.31.55.55,0,0,1,.16-.42.61.61,0,0,1,.45-.18c.92,0,3.46,1.79,3.48,1.81A12.27,12.27,0,0,1,112,16a.3.3,0,0,0,0,.28.45.45,0,0,0,.34.15h.15a.5.5,0,0,1,.23,0h.2a27.83,27.83,0,0,1,9.9-2h.17c1,0,1.62.31,1.82.89.64,1.85-4,5.63-4,5.67a.2.2,0,0,0,0,.31c.06.13.1.18.16.21,15.23,9.21,20.54,34.4,15.77,51.24a.33.33,0,0,0,0,.14.44.44,0,0,1-.15.35.45.45,0,0,1-.25.09l-.12,0A7.62,7.62,0,0,0,134,73l-.48,0h0a.4.4,0,0,1-.35-.6q.28-.52.51-1a.37.37,0,0,0,0-.37.45.45,0,0,0-.34-.21c-.06,0-.14,0-.2.15-1,2.1-2.37,5.18-5.06,5.54l-.33,0c-2.48,0-3-3.66-3.12-5.23-.12-1.83-.06-3.65,0-5.41a28.69,28.69,0,0,0-.68-9.24.39.39,0,0,1,0-.28A18.13,18.13,0,0,0,125.65,48a.35.35,0,0,0-.38-.34.36.36,0,0,0-.26.09.24.24,0,0,0-.06.21,18.43,18.43,0,0,1-4.49,12.51A26.14,26.14,0,0,1,118.05,63L118,63a1.85,1.85,0,0,1-1.18.65.78.78,0,0,1-.57-.24c-.42-.44-.43-1.33-.39-2.45v-.41c0-.88,0-1.78.05-2.69.1-4.89.21-9.94-1.7-14.35-.06-.14-.14-.14-.18-.14l-.15,0a.34.34,0,0,0-.2.09c-9.37,9.56-18.74,16.1-28.62,20-1.84.72-3.75,1.32-5.61,1.89l-.82.27a12.44,12.44,0,0,1-3.34.77,1.48,1.48,0,0,1-1.35-.58c-.3-.47-.23-1.15.21-2.08C75,61.91,76,60.1,77,58.36a53.13,53.13,0,0,0,4.18-8.49.23.23,0,0,0,0-.23.43.43,0,0,0-.34-.16.32.32,0,0,0-.24.09c-4.91,4.69-11,7.87-16.23,10.37a93.41,93.41,0,0,1-10.93,4.25l-.46.15a17.58,17.58,0,0,1-5,1.14,2.28,2.28,0,0,1-2.1-.89c-.49-.81-.28-2.06.63-3.83a34.07,34.07,0,0,0,3.16-9.29.42.42,0,0,0-.11-.35.34.34,0,0,0-.26-.15.24.24,0,0,0-.19.11C43.82,57.15,35.69,62.2,28.43,64a.28.28,0,0,0-.23.33c0,.15.12.36.34.36l.1,0a33.08,33.08,0,0,0,4.07-1.28.35.35,0,0,1,.14,0,.37.37,0,0,1,.23.07.4.4,0,0,1,.17.34c0,1.75,0,3.63.18,6a9.08,9.08,0,0,1-1,5.53A2.51,2.51,0,0,1,30.3,76.65Z"/><path class="cls-5" d="M118.07,127.35a.4.4,0,0,1-.31.39c-5,1.08-9.92,2.36-14.54,3.81-1.24.38-2.55.82-4.11,1.36l-.13,0a.4.4,0,0,1-.36-.22,14.58,14.58,0,0,0-10.54-7.41.41.41,0,0,1-.33-.53,7.93,7.93,0,0,0-.21-5.33.42.42,0,0,1,0-.36.41.41,0,0,1,.32-.18c3.75-.21,7.09-.53,10.24-1h0a.51.51,0,0,1,.26.09.31.31,0,0,0,.1.08,73.41,73.41,0,0,0,7.22,2.26c1.12.3,2.24.61,3.35,1l.68.19C112.68,122.3,118.05,123.84,118.07,127.35Zm-49.53-8.51a98.13,98.13,0,0,1-13-1.77h-.08a.47.47,0,0,0-.22.07l-.09,0A58.12,58.12,0,0,0,45.78,120c-3.81,1.56-6.21,2.81-7.31,6.91a.4.4,0,0,0,0,.32.44.44,0,0,0,.26.18,146.05,146.05,0,0,1,15.72,4.1l.62.21.13,0a.4.4,0,0,0,.27-.11c3.56-3.22,8.15-4.85,12.55-6.24a.4.4,0,0,0,.26-.49,7.85,7.85,0,0,1,.55-5.54.38.38,0,0,0,0-.37A.38.38,0,0,0,68.54,118.84Z"/><path class="cls-3" d="M79.44,149.86c-4.1,0-8.94-1.15-10.52-3.72a.3.3,0,0,0-.16-.13.38.38,0,0,1-.15-.09.36.36,0,0,0-.26-.11.32.32,0,0,1-.14,0c-17.74-7.15-36.38-11-52.28-13.83a.4.4,0,0,1-.29-.22.41.41,0,0,1,0-.36L17,128.71c.55-1.1,1.1-2.2,1.67-3.29a.4.4,0,0,1,.35-.21h0a176.74,176.74,0,0,1,33.7,6.53c7.88,2.36,17.93,5.89,25.82,12.31a.35.35,0,0,0,.21.07h.13a.35.35,0,0,0,.21-.07c7.44-6.06,16.8-9.5,25.81-12.31a166.81,166.81,0,0,1,33.71-6.53h0a.4.4,0,0,1,.35.21c.57,1.1,1.13,2.21,1.69,3.32.44.88.88,1.76,1.33,2.63a.41.41,0,0,1,0,.36.4.4,0,0,1-.29.22c-16,2.85-34.83,6.74-52.66,14L89,146c-.08,0-.14,0-.19.14C87.53,148.87,83.13,149.86,79.44,149.86Z"/><path class="cls-6" d="M142.28,137.18c-.52,3.11-1,6.23-1.52,9.34l-.33,2a.39.39,0,0,1-.39.33,8.7,8.7,0,0,0-1.14.08,5.65,5.65,0,0,0-4.08,2.56,2.68,2.68,0,0,0,.15,2.59.23.23,0,0,1,.07.09h0a9.39,9.39,0,0,0,.76.68c1,.85,1.51,1.29,1.54,1.72a.53.53,0,0,1-.15.41l-.08.08a8.92,8.92,0,0,0-1.33,1.72,4.12,4.12,0,0,0-.34,2.5,4.31,4.31,0,0,0,.18.57c.27.76.54,1.56.18,2a4.5,4.5,0,0,1-.85.78,5.68,5.68,0,0,0-.59.49l-.09.08-.07.1a3.37,3.37,0,0,0-.4,2.73,4.88,4.88,0,0,0,2.77,2.65.38.38,0,0,1,.23.42l-.5,3.15c-.43,2.71-.86,5.43-1.31,8.13a.42.42,0,0,1-.31.33c-5.86,1.37-11.81,2.91-17.56,4.4-8.08,2.09-16.43,4.25-24.72,6h-.09a.38.38,0,0,1-.25-.09.42.42,0,0,1-.15-.31c.12-7.21.44-14.53.74-21.61s.64-14.66.75-22a.39.39,0,0,1,.25-.36c6.83-2.74,14.24-4.42,21.41-6.05,1.71-.39,3.41-.77,5.1-1.17l5.12-1.24c5.4-1.32,11-2.69,16.53-3.62h.07a.41.41,0,0,1,.28.11A.42.42,0,0,1,142.28,137.18ZM88.62,162a.43.43,0,0,0-.43,0A16.13,16.13,0,0,1,78.64,165a13.85,13.85,0,0,1-8.91-2.87.44.44,0,0,0-.26-.1.47.47,0,0,0-.17,0,.41.41,0,0,0-.23.37l.07,5.23a.4.4,0,0,0,.1.26,12.5,12.5,0,0,0,9.35,3.61,14.47,14.47,0,0,0,10-3.62.45.45,0,0,0,.12-.27c0-1.75.11-3.49.16-5.24A.4.4,0,0,0,88.62,162Zm-24-12.86a.39.39,0,0,0-.25-.36c-7.15-2.86-14.92-4.61-22.43-6.3l-5.17-1.18-5.25-1.26c-5-1.22-10.18-2.47-15.31-3.34h-.07a.43.43,0,0,0-.28.11.42.42,0,0,0-.11.35c.51,3,1,6.11,1.49,9.16l.35,2.18a.4.4,0,0,0,.37.33,8.15,8.15,0,0,1,1.45.22A5.41,5.41,0,0,1,23,151.69a2.62,2.62,0,0,1-.21,2.42l-.08.11a6.38,6.38,0,0,1-.8.68c-.68.51-1.38,1-1.42,1.65a.86.86,0,0,0,.25.67A5.43,5.43,0,0,1,22,159a4.52,4.52,0,0,1,.2,2.87c-.06.21-.12.38-.17.54a1.48,1.48,0,0,0,.58,2.08,4.83,4.83,0,0,1,.85.8h0l.06.07a3.44,3.44,0,0,1,.42,2.7,4.72,4.72,0,0,1-2.5,2.56.4.4,0,0,0-.21.42l.45,2.87c.46,2.85.91,5.7,1.38,8.55a.42.42,0,0,0,.31.33c5.86,1.37,11.8,2.91,17.55,4.4,8.08,2.09,16.44,4.26,24.74,6h.08a.38.38,0,0,0,.25-.09.39.39,0,0,0,.15-.31c-.12-7.21-.44-14.53-.74-21.61S64.73,156.5,64.62,149.16Z"/><path class="cls-4" d="M145.63,132.52c-.79,4.56-1.52,9.22-2.22,13.72l-.41,2.62a.41.41,0,0,1-.17.27.48.48,0,0,1-.23.07h-.09c-.34-.08-.68-.16-1-.21a.38.38,0,0,1-.27-.16.39.39,0,0,1-.07-.3l.35-2.17c.53-3.32,1.06-6.64,1.62-9.95a.38.38,0,0,0,0-.18A.41.41,0,0,0,143,136a.34.34,0,0,0-.12-.06l-.13,0h-.11c-5.44.86-10.94,2.2-16.26,3.49-1.77.44-3.55.87-5.31,1.28s-3.51.8-5.28,1.2c-7.64,1.72-15.54,3.49-22.74,6.45l-.09,0a.31.31,0,0,0-.22.31c-.1,7.52-.44,15.15-.76,22.54s-.65,15-.76,22.51a.27.27,0,0,0,.24.3l.1.42V194h.12c8.58-1.77,17.23-4,25.59-6.18,5.91-1.53,12-3.11,18-4.52.16,0,.21-.05.25-.12a.67.67,0,0,1,.06-.15c.43-2.68.87-5.41,1.3-8.15l.54-3.35a.39.39,0,0,1,.18-.27.33.33,0,0,1,.21-.07l.11,0a10.7,10.7,0,0,0,1.12.26.4.4,0,0,1,.32.46l-.46,3c-.48,3.15-1,6.41-1.54,9.61a.4.4,0,0,1-.28.32c-6.43,1.83-13,3.48-19.4,5.09L113.5,191c-2,.5-4,1-6,1.56-6,1.59-12.25,3.23-18.44,4.29H89a.37.37,0,0,1-.26-.1.39.39,0,0,1-.14-.3c.1-8.19.38-16.51.65-24.56.27-8.28.56-16.84.65-25.27a.39.39,0,0,1,.25-.36c18.21-7.28,37.22-11.13,55-14.22h.06a.45.45,0,0,1,.29.12A.41.41,0,0,1,145.63,132.52ZM88.38,169.28a.37.37,0,0,0-.18,0,.35.35,0,0,0-.24.08,15.93,15.93,0,0,1-9.41,2.9,13.72,13.72,0,0,1-8.73-2.79.39.39,0,0,0-.26-.09.38.38,0,0,0-.17,0,.4.4,0,0,0-.23.36c.13,10.18.26,18.66.68,27.45a.32.32,0,0,0,0,.16c1.29,2.61,4.84,4.29,9,4.29,3.3,0,7.37-1.12,8.93-4.28a.53.53,0,0,0,0-.18c.09-8.49.38-17.12.66-25.47l.07-2.06A.41.41,0,0,0,88.38,169.28Zm.39-8.63a.36.36,0,0,0,.12-.28c.13-4.47.22-8.5.27-12.31a.44.44,0,0,0-.24-.38l-.16,0a.39.39,0,0,0-.28.12c-2.07,2-6.16,2.45-9.32,2.46s-7.3-.28-9.73-2.43a.39.39,0,0,0-.27-.1l-.17,0a.4.4,0,0,0-.22.38c.11,3.69.2,7.68.27,12.2a.35.35,0,0,0,.1.25c2.07,2.37,5.55,3.72,9.54,3.72A14.65,14.65,0,0,0,88.77,160.65ZM68,146.71a.39.39,0,0,0-.25-.36C49.52,139,30.44,135.16,12.54,132.06h-.06a.45.45,0,0,0-.29.12.41.41,0,0,0-.11.35c.8,4.65,1.54,9.39,2.26,14l.36,2.31a.39.39,0,0,0,.18.27.41.41,0,0,0,.22.07l.09,0a11.71,11.71,0,0,1,1.34-.23.38.38,0,0,0,.27-.16.41.41,0,0,0,.08-.3l-.33-2c-.53-3.33-1.07-6.67-1.64-10a.54.54,0,0,1,0-.18.47.47,0,0,1,.16-.25l.1,0,.13,0h.11c5.84.92,11.73,2.37,17.44,3.76,1.75.43,3.49.86,5.23,1.27s3.45.8,5.19,1.19c7.3,1.66,14.85,3.37,21.68,6.17a.64.64,0,0,0,.14.08.29.29,0,0,1,.22.31c.11,7.52.44,15.15.76,22.54s.65,15,.76,22.51a.27.27,0,0,1-.24.3l-.13,0h-.1c-8.58-1.77-17.23-4-25.6-6.18-5.9-1.53-12-3.11-18.11-4.53-.08,0-.13,0-.21-.2-.47-2.86-.93-5.73-1.38-8.59l-.49-3.07a.4.4,0,0,0-.19-.27.37.37,0,0,0-.21-.06.25.25,0,0,0-.12,0,11.2,11.2,0,0,1-1.41.36.4.4,0,0,0-.32.45l.44,2.89c.49,3.18,1,6.46,1.56,9.69a.4.4,0,0,0,.28.32c6.94,2,14,3.75,20.94,5.48l3.78,1c1.94.49,3.87,1,5.82,1.51,5.71,1.49,11.62,3,17.5,4.05h.07a.42.42,0,0,0,.26-.1.43.43,0,0,0,.14-.32c-.42-9.25-.54-18.67-.66-27.78C68.36,161.47,68.27,154,68,146.71Z"/><path class="cls-2" d="M61.62,231.65a4.54,4.54,0,0,1-1.3-.45c-1.13-.6-1.67-2.13-1.62-4.55a.41.41,0,0,1,0-.18.47.47,0,0,0,0-.35.47.47,0,0,1,0-.17,30.48,30.48,0,0,1,.54-3.85c.77-4,2.64-6.47,5.71-7.41a4.85,4.85,0,0,1,1.38-.2A5.67,5.67,0,0,1,70.1,216a.41.41,0,0,1,.08.5.42.42,0,0,1-.35.2l-.11,0a4.36,4.36,0,0,0-1.22-.19c-1.74,0-3.47,1.19-4.87,3.35-1.73,2.67-3.7,8.09-1.6,11.25a.39.39,0,0,1,0,.44.42.42,0,0,1-.34.18Z"/><path class="cls-2" d="M84.83,234.24a.45.45,0,0,1-.19-.05L82.27,233a.39.39,0,0,1-.21-.27.41.41,0,0,1,.09-.34,15,15,0,0,0,3.51-8.42.39.39,0,0,1,.4-.38.39.39,0,0,1,.23.07,4.27,4.27,0,0,1,2.1,2.93c.24,2-.81,6.54-3.16,7.5a.23.23,0,0,0-.12.08A.43.43,0,0,1,84.83,234.24Z"/><path class="cls-2" d="M81.08,232.33a.33.33,0,0,1-.17,0c-1.11-.54-2.09-1-3-1.4a.41.41,0,0,1-.23-.28.42.42,0,0,1,.09-.36,14.75,14.75,0,0,0,3.63-8.63.37.37,0,0,1,.2-.33.36.36,0,0,1,.2-.06.39.39,0,0,1,.18,0l1.91,1,.95.49a.41.41,0,0,1,.2.47l0,.1a13.9,13.9,0,0,1-3.57,8.84l0,0A.41.41,0,0,1,81.08,232.33Z"/><path class="cls-2" d="M76.56,230.32a.4.4,0,0,1-.15,0c-.69-.28-1.4-.54-2.11-.79a.38.38,0,0,1-.25-.26.41.41,0,0,1,.07-.37,11.79,11.79,0,0,0,2.16-9.38.42.42,0,0,1,.13-.37.39.39,0,0,1,.27-.1l.12,0a26.66,26.66,0,0,1,3.66,1.49.38.38,0,0,1,.22.34,13.63,13.63,0,0,1-3.84,9.33A.38.38,0,0,1,76.56,230.32Z"/><path class="cls-2" d="M72.92,229h-.09q-.73-.22-1.5-.42l-.18-.05a.4.4,0,0,1-.26-.2.44.44,0,0,1,0-.32c1-2.73,2.11-6.24,1.59-9.15a.4.4,0,0,1,.39-.47h0a11.24,11.24,0,0,1,2.31.23.39.39,0,0,1,.32.34.41.41,0,0,1,0,.11,11,11,0,0,1-2.19,9.71A.49.49,0,0,1,72.92,229Z"/><path class="cls-5" d="M62.72,231.75a.39.39,0,0,1-.3-.13c-2.56-2.78-.85-7.73.4-10.43,1.38-3,3.51-4.8,5.69-4.8a4.74,4.74,0,0,1,2.55.8.38.38,0,0,1,.13.15c1.76,3.28,0,7.93-1.18,11a.5.5,0,0,1-.11.17,11.51,11.51,0,0,1-7.18,3.23Z"/><path class="cls-7" d="M148.08,159.53c1.25,2.87.09,4-1.13,5.25a13.22,13.22,0,0,0-1.11,1.22,4.19,4.19,0,0,0-.62,1.86,4.06,4.06,0,0,1-1,2.38A6.24,6.24,0,0,1,141,171c-2.33,0-5.29-.76-6.29-2.43a2.64,2.64,0,0,1,0-2.73.35.35,0,0,1,.07-.09,8.49,8.49,0,0,1,.68-.59c.79-.63,1.33-1.12,1.2-1.74-.05-.26-.11-.51-.17-.76-.39-1.66-.73-3.09.75-4.68a2.06,2.06,0,0,0,.72-1.36c0-.54-.58-1-1.22-1.61a10.93,10.93,0,0,1-1.2-1.17,2.29,2.29,0,0,1-.2-2.39c.85-1.43,3.53-1.64,5.06-1.64a10.78,10.78,0,0,1,1.9.14,11.92,11.92,0,0,1,5.92,3.26c1.16,1.27.63,2.57.16,3.71A3.34,3.34,0,0,0,148.08,159.53Zm-65-40a.4.4,0,0,0-.4-.38h0c-1.47,0-3,0-4.43,0s-2.89,0-4.35-.06h0a.41.41,0,0,0-.4.38c0,.22,0,.46,0,.7-.12,1.44-.27,3.23.85,4.16a5.78,5.78,0,0,0,3.65,1.16h.17a5.85,5.85,0,0,0,4.21-1.4c1-1.07.9-2.6.81-3.95C83.11,119.92,83.09,119.7,83.08,119.49Zm47.59-32.65h.09a4.06,4.06,0,0,0,2.91-2.49,3.39,3.39,0,0,0-.56-3.24l-.38.13.34-.22a.4.4,0,0,0-.36-.22.39.39,0,0,0-.15,0,17.73,17.73,0,0,0-1.78.81l-.1,0a.4.4,0,0,0-.22.35c-.05,1.6-.11,3-.19,4.4a.38.38,0,0,0,.14.33A.4.4,0,0,0,130.67,86.84Zm10.45-1.09a11.67,11.67,0,0,0-1.68-9.54,6.41,6.41,0,0,0-5.21-2.54,9.22,9.22,0,0,0-1.5.13h-.11l-.1,0a.43.43,0,0,0-.33.17,12.54,12.54,0,0,1-1.53,1.83.46.46,0,0,0-.11.36v1.08c0,1,0,2.06,0,3.13a.42.42,0,0,0,.19.35.39.39,0,0,0,.21.06.33.33,0,0,0,.17,0,16.51,16.51,0,0,1,5.65-1.6c.15,0,.24.09.24.27a.4.4,0,0,1-.35.44,13.87,13.87,0,0,0-2.55.49.44.44,0,0,0-.27.25.44.44,0,0,0,.05.37,3.87,3.87,0,0,1,.44,3.8,4.76,4.76,0,0,1-3.51,2.82l.08.39-.22-.4h-.06a.44.44,0,0,0-.25.08.43.43,0,0,0-.15.29c-.15,1.85-.36,3.61-.62,5.22a.37.37,0,0,0,.09.32.39.39,0,0,0,.3.14h0C135.55,93.58,139.93,90.5,141.12,85.75ZM24.8,80.62h-.08a.38.38,0,0,0-.35.2,4.14,4.14,0,0,0-.3,3.64A4.38,4.38,0,0,0,27,86.93l.11,0a.45.45,0,0,0,.25-.09.4.4,0,0,0,.15-.34c-.09-1.31-.15-2.68-.2-4.19a.33.33,0,0,0,0-.17l-.06-.09A3.92,3.92,0,0,0,24.8,80.62Zm2.3,7.08a5,5,0,0,1-3.48-2.56,4.75,4.75,0,0,1-.15-4.07.42.42,0,0,0,0-.39.42.42,0,0,0-.33-.16h0a10.16,10.16,0,0,0-2.35.46l-.12,0c-.19,0-.26-.19-.28-.31a.33.33,0,0,1,.24-.4,9.68,9.68,0,0,1,2.88-.47,5.73,5.73,0,0,1,3.16.85.44.44,0,0,0,.22.07.49.49,0,0,0,.2,0,.43.43,0,0,0,.2-.36c0-1.43,0-2.83-.06-4.2l0-.1a.4.4,0,0,0-.1-.39,13.1,13.1,0,0,1-1.38-1.77.38.38,0,0,0-.33-.18.38.38,0,0,0-.21,0,.33.33,0,0,1-.21.06h-.05a7.78,7.78,0,0,0-1.35-.12,6.85,6.85,0,0,0-6,3.63,10.84,10.84,0,0,0-.2,10.31c2.26,4,5.68,6,10.48,6a.43.43,0,0,0,.3-.14.39.39,0,0,0,.09-.33c-.26-1.6-.46-3.3-.61-5.07A.49.49,0,0,0,27.1,87.7ZM129.64,76.84a.46.46,0,0,0-.2,0,.45.45,0,0,0-.2,0,3.15,3.15,0,0,1-1.55.45,3.3,3.3,0,0,1-2.52-1.5c-1.49-1.92-1.34-4.63-1.2-7.08a40.05,40.05,0,0,0-.39-10.24.37.37,0,0,0-.32-.31h-.07a.42.42,0,0,0-.34.19,20.86,20.86,0,0,1-1.28,1.83l-.42.53c-.94,1.24-3.13,4.13-4.61,4.13a.93.93,0,0,1-.29,0c-1.43-.46-1.24-3-1.14-4.56,0-.23,0-.45,0-.63.21-4.45.46-10-1.18-14.59a.38.38,0,0,0-.29-.26h-.09a.44.44,0,0,0-.28.12C102,56.11,90.53,63.2,78.11,66.53l-.26.07a14.16,14.16,0,0,1-3.51.64,2,2,0,0,1-1.45-.41,1,1,0,0,1-.21-.81,10.66,10.66,0,0,1,1.86-4.44,78,78,0,0,0,4.84-9A.4.4,0,0,0,79,52a.38.38,0,0,0-.25.09C70.26,59.2,59.54,63.22,52,65.35a15.82,15.82,0,0,1-4.2.71c-1.39,0-2.3-.35-2.71-1-.55-.91-.26-2.52.85-4.68A36,36,0,0,0,48.43,54a.4.4,0,0,0-.19-.45.36.36,0,0,0-.2-.06.39.39,0,0,0-.28.12,45.78,45.78,0,0,1-13.55,9.16.41.41,0,0,0-.24.35c0,1.33,0,2.69.1,4a29.29,29.29,0,0,1,0,5.46,6.18,6.18,0,0,1-2,4.06,3.14,3.14,0,0,1-1.9.71,3.28,3.28,0,0,1-1.7-.52.42.42,0,0,0-.21-.06.46.46,0,0,0-.2,0,.39.39,0,0,0-.2.35v1.26c.05,9.15.12,21.69,6.54,28.48,2.88,3,7,5.41,12.77,7.24a102.36,102.36,0,0,0,31,4.39c1.89,0,3.83,0,5.78-.12,12.4-.5,25.21-1.82,34.93-8,10.6-6.72,10.78-22,10.91-33.19A.43.43,0,0,0,129.64,76.84ZM22.87,165.69a8.49,8.49,0,0,0-.68-.58c-.79-.63-1.34-1.12-1.2-1.74q.07-.41.18-.78c.38-1.61.74-3.12-.77-4.67a2,2,0,0,1-.73-1.32c0-.55.6-1.07,1.27-1.66a10.79,10.79,0,0,0,1.22-1.22,2.28,2.28,0,0,0,.17-2.34c-.82-1.38-3.4-1.59-4.87-1.59a11,11,0,0,0-3,.33,13.23,13.23,0,0,0-5.08,3c-1.27,1.38-.67,2.58-.14,3.64A7.47,7.47,0,0,1,9.76,158,3.56,3.56,0,0,1,9.47,160a3.49,3.49,0,0,0,0,3.21,12.88,12.88,0,0,0,1.64,2,17.4,17.4,0,0,1,1.2,1.36,2.67,2.67,0,0,1,.36,1.45,3,3,0,0,0,.87,2.28,6.33,6.33,0,0,0,3.16.66c2.33,0,5.28-.76,6.29-2.42a2.66,2.66,0,0,0,0-2.74A.86.86,0,0,0,22.87,165.69ZM67.19,209h0a.39.39,0,0,0-.29.13.37.37,0,0,0-.1.33,17.44,17.44,0,0,1,0,4.08.44.44,0,0,0,.09.29.42.42,0,0,0,.27.14A5.87,5.87,0,0,1,71,215.82a.41.41,0,0,0,.29.13l.12,0a.39.39,0,0,0,.28-.32,6.63,6.63,0,0,0-1.38-5A4.29,4.29,0,0,0,67.19,209Z"/><path class="cls-5" d="M93.84,237.82a10.24,10.24,0,0,1-4.73-1.27l-3-1.56a.37.37,0,0,1-.21-.33.39.39,0,0,1,.16-.35,8.59,8.59,0,0,0,3-6.64,4.82,4.82,0,0,0-1.75-4.1c-2.5-1.77-8.89-5.89-14.42-5.89h-.33l-.15,0a.47.47,0,0,1-.43-.22A.89.89,0,0,1,72,217a6.85,6.85,0,0,0-.21-5.23,5.87,5.87,0,0,0-3.2-3.2.39.39,0,0,1-.26-.35.42.42,0,0,1,.23-.38,23,23,0,0,1,7.19-2.16h0l.1,0c3.11.82,3.91,3,4.75,5.34a19.16,19.16,0,0,0,1.12,2.67c1.77,3.25,6.53,4.49,8.49,4.87,3.74.73,7.34,2.13,8.37,7.4a16.7,16.7,0,0,1-2.08,11.21.41.41,0,0,1-.22.17A7.34,7.34,0,0,1,93.84,237.82Z"/><path class="cls-2" d="M97.31,236.91a.38.38,0,0,1-.27-.1.4.4,0,0,1-.09-.47c1.62-3.34,2.61-8.43,1.16-12.31A7.38,7.38,0,0,0,94,219.61a24.9,24.9,0,0,0-4.06-1.2c-3.19-.76-6.49-1.53-8.42-5.06a21,21,0,0,1-1.2-2.78c-.65-1.71-1.2-3.19-2.73-4.11a.41.41,0,0,1-.18-.47.41.41,0,0,1,.38-.28h0a6.6,6.6,0,0,1,2.49.73c1.73.93,2.91,2.86,4.06,4.73.51.82,1,1.6,1.48,2.24A6.55,6.55,0,0,0,90.24,216l.38,0c3.12.29,6.07.56,8.17,3.54a18,18,0,0,1,2.36,5.47c1.38,4.93-.11,9.79-3.64,11.82A.35.35,0,0,1,97.31,236.91Z"/><path class="cls-5" d="M90.53,215.17c-2.76-.57-4.21-2.08-5.93-4.67l-.37-.55a26.7,26.7,0,0,0-1.7-2.41.41.41,0,0,1,0-.51,8.78,8.78,0,0,1,3.54-2.42,6.18,6.18,0,0,1,2.44-.54,6.53,6.53,0,0,1,3,.79.41.41,0,0,1,.21.47,18.39,18.39,0,0,0-.66,9.36.39.39,0,0,1-.11.37.38.38,0,0,1-.28.12Z"/><path class="cls-2" d="M57.67,225.77c-16.65-2-29.12-5.13-40.42-10.16C10,212.39,1.64,207.57,1,198.74c-.8-11.07,8.15-17.65,17.38-19.26h.06a.41.41,0,0,1,.24.08.38.38,0,0,1,.16.26q.42,2.7.88,5.4c0,.14.09.2.21.21,6.6,1.87,13.29,3.55,19.75,5.18L44,191.69c2,.51,4,1.05,6.07,1.58,6.2,1.64,12.61,3.33,19,4.37a.4.4,0,0,1,.29.21c1.4,2.74,5.15,4.5,9.55,4.5s8.08-1.76,9.46-4.49a.38.38,0,0,1,.29-.22c6.06-1,12.16-2.6,18.06-4.15,2-.51,3.93-1,5.88-1.52l4-1c6.94-1.74,14.12-3.54,21.11-5.54.21,0,.27-.08.3-.22.5-2.89.95-5.79,1.37-8.51a.4.4,0,0,1,.4-.34h0c8.86.32,18.27,5,19.35,14.66,1,8.64-1.5,14.52-7.73,18.48-6.66,4.25-14.7,6.14-23,7.85a181.63,181.63,0,0,1-27.86,3.3h-.06a.39.39,0,0,1-.35-.21,14.65,14.65,0,0,0-3.26-4.1c-.92-.78-2.45-.84-3.67-.89h-.31l-.69,0a.39.39,0,0,1-.35-.3,17.88,17.88,0,0,1,.6-9.85.4.4,0,0,1,.21-.25,162.36,162.36,0,0,1,45.44-13.12c.11,0,.21-.06.2-.24a.45.45,0,0,0-.42-.42c-.68.09-1.29.19-1.91.29l-1,.16h-.06a.4.4,0,0,1-.29-.12.39.39,0,0,1-.1-.36l0-.15a6.75,6.75,0,0,1,.6-1.93.32.32,0,0,0,0-.33.43.43,0,0,0-.36-.22c-.06,0-.15,0-.23.17a7.59,7.59,0,0,0-.67,2.1c0,.2-.09.41-.14.61a.48.48,0,0,1-.33.47,162.44,162.44,0,0,0-41,12.45.38.38,0,0,1-.17,0,.41.41,0,0,1-.19-.05,7.68,7.68,0,0,0-3.52-1,5.83,5.83,0,0,0-2.11.42,10.4,10.4,0,0,0-4.27,2.7.37.37,0,0,1-.28.13h0a.39.39,0,0,1-.27-.1,4.67,4.67,0,0,0-2.72-1.36,12.38,12.38,0,0,0-1.38-.07,24.09,24.09,0,0,0-11,3.17.41.41,0,0,1-.19,0l-.13,0-.32-.11c-12.2-4.24-24.81-8.63-37.47-11.7a.39.39,0,0,1-.25-.18.42.42,0,0,1-.05-.31.32.32,0,0,0,0-.17,8.77,8.77,0,0,0-2.43-4.51.29.29,0,0,0-.21-.1.41.41,0,0,0-.35.26.28.28,0,0,0,.07.34,8.24,8.24,0,0,1,2.14,3.82.43.43,0,0,1-.1.38.4.4,0,0,1-.29.12h-.09l-.91-.22L24,195.42h0a.4.4,0,0,0-.43.36.25.25,0,0,0,.22.31c14.06,3.06,28.05,7.92,41.57,12.62l.48.17a.4.4,0,0,1,.27.33v0a13.09,13.09,0,0,1,0,3.8l0,.54a.42.42,0,0,1-.36.37A7.81,7.81,0,0,0,62,215.43c-2.47,1.8-3.23,5.15-3.7,8.5-.06.46-.11,1-.14,1.47a.39.39,0,0,1-.15.28.38.38,0,0,1-.25.09Z"/><path class="cls-4" d="M71.75,108.27a.39.39,0,0,1-.25-.17c-1.33-1.91-2-4.55-2.14-8.29a.39.39,0,0,1,.12-.31.41.41,0,0,1,.28-.11h0c2.22.18,4.51.27,7,.27,3.27,0,6.8-.16,11.12-.48h0a.43.43,0,0,1,.28.11.39.39,0,0,1,.12.3c-.09,3.78-.6,6.32-1.66,8.23a.42.42,0,0,1-.27.2h-.08a.38.38,0,0,1-.25-.09.6.6,0,0,1-.08-.08,11.56,11.56,0,0,0-6.59-2.05,12.9,12.9,0,0,0-7.38,2.39.41.41,0,0,1-.22.07Z"/><path class="cls-8" d="M79.4,111.68l-.78,0a9.19,9.19,0,0,1-6.11-2.34.45.45,0,0,1-.12-.33.42.42,0,0,1,.18-.3,12.4,12.4,0,0,1,6.85-2.16,11,11,0,0,1,6.3,2,.4.4,0,0,1,.08.59A7.89,7.89,0,0,1,79.4,111.68Z"/><path class="cls-3" d="M57.43,91.06A2.32,2.32,0,0,1,55,88.8a2.58,2.58,0,0,1,2.56-2.5A2.24,2.24,0,0,1,59.74,88a2.29,2.29,0,0,1-.26,2.12A2.54,2.54,0,0,1,57.43,91.06Z"/><path class="cls-5" d="M55.56,91.41h0Z"/><path class="cls-3" d="M100.06,91.11a2.08,2.08,0,0,1-1.52-.62,2.74,2.74,0,0,1-.67-2,2.15,2.15,0,0,1,2.22-2.2,2.56,2.56,0,0,1,2.62,2.44A2.46,2.46,0,0,1,100.06,91.11Z"/><path class="cls-9" d="M151.39,209.5a16,16,0,0,0,7.81-12.65c-.38.83-.78,1.65-1.22,2.45-5.21,9.39-16.82,11.29-26.27,13.9-9,2.48-18.25,3.57-27.35,5.47-3.39.71-3.67-2.85-6.61-4-1.77-.68-4.14-.62-6.23-1a12.34,12.34,0,0,0,.29,1.42.39.39,0,0,0,.35.3l.69,0h.31c1.22.05,2.75.11,3.67.89a14.65,14.65,0,0,1,3.26,4.1.39.39,0,0,0,.35.21h.06a181.63,181.63,0,0,0,27.86-3.3C136.69,215.64,144.73,213.75,151.39,209.5Z"/><path class="cls-9" d="M80.57,204.16A16,16,0,0,0,87.33,201c2.72-1.94,6-2.23,9.19-3,7.73-1.81,15.41-3.8,23.11-5.75,3.4-.86,13.78-2.46,17.38-6.64-6.77,1.92-13.71,3.66-20.43,5.35l-4,1c-2,.49-3.91,1-5.88,1.52-5.9,1.55-12,3.16-18.06,4.15a.38.38,0,0,0-.29.22c-1.38,2.73-5.09,4.49-9.46,4.49s-8.15-1.76-9.55-4.5a.4.4,0,0,0-.29-.21c-6.37-1-12.78-2.73-19-4.37-2-.53-4-1.07-6.07-1.58l-4.33-1.09c-6.24-1.57-12.68-3.19-19-5,2.36,3.63,8.87,4,12.75,5,8.39,2.1,16.78,4.25,25.12,6.53,2.47.67,5,1.32,7.38,2.18C70.68,201.05,75.12,205.14,80.57,204.16Z"/><path class="cls-9" d="M57.67,225.77h0a.38.38,0,0,0,.25-.09.39.39,0,0,0,.15-.28c0-.51.08-1,.14-1.47s.18-1.17.29-1.75c-1.92.06-3.87-.06-5.75-.16a99.4,99.4,0,0,1-22.54-4.15c-12.71-3.76-25.73-12.46-28.65-25.2A17.08,17.08,0,0,0,1,198.74c.64,8.83,9,13.65,16.25,16.87C28.55,220.64,41,223.77,57.67,225.77Z"/><path class="cls-8" d="M82.37,201.22a35.22,35.22,0,0,1-5.53-11.91c-1.75-5.94-1.35-11.44-.72-17.27a12.72,12.72,0,0,1-6.3-2.61.39.39,0,0,0-.26-.09.38.38,0,0,0-.17,0,.4.4,0,0,0-.23.36c.13,10.18.26,18.66.68,27.45a.32.32,0,0,0,0,.16c1.29,2.61,4.84,4.29,9,4.29A14.49,14.49,0,0,0,82.37,201.22Z"/><path class="cls-8" d="M69.14,160.56c2.07,2.37,5.55,3.72,9.54,3.72l.6,0a13.59,13.59,0,0,1-6.75-6.7c-1.48-2.84-1.77-5.89-2-9a6.7,6.7,0,0,1-1.11-.78.39.39,0,0,0-.27-.1l-.17,0a.4.4,0,0,0-.22.38c.11,3.69.2,7.68.27,12.2A.35.35,0,0,0,69.14,160.56Z"/><path class="cls-10" d="M65.63,193.16h.08a.38.38,0,0,0,.25-.09.39.39,0,0,0,.15-.31c-.06-3.68-.18-7.39-.31-11.08-5,5.35-14.35,4.72-21.25,3.09-8.19-1.94-15.56-7.39-19.09-15l.27-.33c2.15-2.87.74-5.48-1.73-6.81a6.89,6.89,0,0,0,1.05-2,3.51,3.51,0,0,0-1.54-3.72,5.26,5.26,0,0,0,.54-1.38,3.84,3.84,0,0,0-1.28-4.14,2,2,0,0,1,.18.32,2.62,2.62,0,0,1-.21,2.42l-.08.11a6.38,6.38,0,0,1-.8.68c-.68.51-1.38,1-1.42,1.65a.86.86,0,0,0,.25.67A5.43,5.43,0,0,1,22,159a4.52,4.52,0,0,1,.2,2.87c-.06.21-.12.38-.17.54a1.48,1.48,0,0,0,.58,2.08,4.83,4.83,0,0,1,.85.8h0l.06.07a3.44,3.44,0,0,1,.42,2.7,4.72,4.72,0,0,1-2.5,2.56.4.4,0,0,0-.21.42l.45,2.87c.46,2.85.91,5.7,1.38,8.55a.42.42,0,0,0,.31.33c5.86,1.37,11.8,2.91,17.55,4.4C49,189.26,57.33,191.43,65.63,193.16Z"/><path class="cls-10" d="M132.08,180.28a48.44,48.44,0,0,1-25,6c-9.66-.46-11.12-9.7-11.73-17.43-.54-6.93,0-13.91.34-20.87l-2.08.79a.39.39,0,0,0-.25.36c-.11,7.34-.43,14.79-.75,22s-.62,14.4-.74,21.61a.42.42,0,0,0,.15.31.38.38,0,0,0,.25.09h.09c8.29-1.74,16.64-3.9,24.72-6,5.75-1.49,11.7-3,17.56-4.4a.42.42,0,0,0,.31-.33c.25-1.52.49-3.05.74-4.58A41.36,41.36,0,0,1,132.08,180.28Z"/><path class="cls-10" d="M17.59,148.52a.4.4,0,0,0,.37.33,8.15,8.15,0,0,1,1.45.22,4.89,4.89,0,0,1,.58.19,55.33,55.33,0,0,1-1.59-12.13l-2.19-.41h-.07a.43.43,0,0,0-.28.11.42.42,0,0,0-.11.35c.51,3,1,6.11,1.49,9.16Z"/><path class="cls-10" d="M76.84,164.88a13.1,13.1,0,0,1-7.11-2.77.44.44,0,0,0-.26-.1.47.47,0,0,0-.17,0,.41.41,0,0,0-.23.37l.07,5.23a.4.4,0,0,0,.1.26,11.38,11.38,0,0,0,6.54,3.36C74.92,169.13,75.58,166.94,76.84,164.88Z"/><path class="cls-11" d="M98.55,118.07a.31.31,0,0,1-.1-.08.51.51,0,0,0-.26-.09h0c-3.15.46-6.49.78-10.24,1a.41.41,0,0,0-.32.18.42.42,0,0,0,0,.36,8.74,8.74,0,0,1,.56,2.66l1.61-.19a97.84,97.84,0,0,0,12.54-2.58C101,119,99.76,118.54,98.55,118.07Z"/><path class="cls-11" d="M68.54,118.84a98.13,98.13,0,0,1-13-1.77h-.08a.47.47,0,0,0-.22.07l-.09,0c-1.11.25-2.15.52-3.17.8a50.54,50.54,0,0,0,16.12,4.36,9,9,0,0,1,.8-2.93.38.38,0,0,0,0-.37A.38.38,0,0,0,68.54,118.84Z"/><path class="cls-9" d="M97.94,133.17a.38.38,0,0,0,0-.33,12.14,12.14,0,0,0-2.41-3.14,22.3,22.3,0,0,1-4.45,4.11,22,22,0,0,1-12.21,3.6c-6.38,0-14-3.09-17.78-8.58a22.94,22.94,0,0,0-4.43,2.79.41.41,0,0,0-.13.39.37.37,0,0,0,.26.3c6.54,2.21,14.93,5.45,21.83,10.9a.38.38,0,0,0,.24.09.38.38,0,0,0,.25-.09c4.84-3.82,10.92-7,18.61-9.81A.35.35,0,0,0,97.94,133.17Z"/><path class="cls-11" d="M94.47,220c1.23,2.81,2,5.74.35,8.72-1.16,2.12-3.56,2.2-6.07,1.48a7.71,7.71,0,0,1-2.65,4.1.39.39,0,0,0-.16.35.37.37,0,0,0,.21.33l3,1.56a10.24,10.24,0,0,0,4.73,1.27,7.34,7.34,0,0,0,2.48-.42.41.41,0,0,0,.22-.17A16.7,16.7,0,0,0,98.62,226,8.05,8.05,0,0,0,94.47,220Z"/><path class="cls-11" d="M69.91,224.63a6.6,6.6,0,0,1-6.29,2,3.85,3.85,0,0,1-2.27-1.18c-.46,2.21-.41,4.54,1.07,6.15a.39.39,0,0,0,.3.13h0a11.51,11.51,0,0,0,7.18-3.23.5.5,0,0,0,.11-.17,27,27,0,0,0,1.85-6.58A13.79,13.79,0,0,1,69.91,224.63Z"/><path class="cls-11" d="M84.16,205.59A6.9,6.9,0,0,0,82.52,207a.41.41,0,0,0,0,.51,26.7,26.7,0,0,1,1.7,2.41l.37.55c1.72,2.59,3.17,4.1,5.93,4.67h.08a.38.38,0,0,0,.28-.12.39.39,0,0,0,.11-.37,15.57,15.57,0,0,1-.19-5.44A6.44,6.44,0,0,1,84.16,205.59Z"/><path class="cls-8" d="M33.25,63.72a.4.4,0,0,0-.17-.34.37.37,0,0,0-.23-.07.35.35,0,0,0-.14,0c-.88.34-1.74.62-2.59.87a8.7,8.7,0,0,1-2.44,2.86c-3.82,2.73-4.9-1.87-4.47-4.46.83-5.13,3.8-9.86,4.48-15,.73-5.54-5.93-2.21-8.19-.77-.39.25-4.42,3.17-4.56,1C14.78,45.57,16.07,43,17,41a35.63,35.63,0,0,1,2.15-3.9,27.86,27.86,0,0,0-4.82,7.51,32.21,32.21,0,0,0-2.74,10.25,2.53,2.53,0,0,0,.42,1.92,1.1,1.1,0,0,0,.84.35c.93,0,2.11-.91,3-1.64l.38-.29a20,20,0,0,1,4-2.27.38.38,0,0,0,.13-.09.16.16,0,0,1,.13,0h.15c.19,0,.21.28.22.34a.38.38,0,0,1,0,.24c-3.58,8.17-4.43,15.06-2.6,21.09a.41.41,0,0,0,.27.26l.12,0a.38.38,0,0,0,.25-.09A7.14,7.14,0,0,1,23.6,73c.3,0,.6,0,.9,0h0a.42.42,0,0,0,.34-.18.4.4,0,0,0,0-.41c-.2-.36-.37-.71-.51-1a.35.35,0,0,1,0-.37.44.44,0,0,1,.35-.22s.12,0,.19.16,2.59,5.63,5.34,5.63a2.51,2.51,0,0,0,2.12-1.45,9.08,9.08,0,0,0,1-5.53C33.26,67.35,33.21,65.47,33.25,63.72Z"/><path class="cls-8" d="M126.1,25.61c4.49,7.86,7.42,18.45,7.26,26.82-.23,11.86-1.66,12-4.6,5.21a44.14,44.14,0,0,0-3.28-6.43,18.23,18.23,0,0,1-1.58,5.21.39.39,0,0,0,0,.28,28.69,28.69,0,0,1,.68,9.24c-.06,1.76-.12,3.58,0,5.41.11,1.57.64,5.23,3.12,5.23l.33,0c2.69-.36,4.1-3.44,5.06-5.54.06-.14.14-.15.2-.15a.45.45,0,0,1,.34.21.37.37,0,0,1,0,.37q-.22.47-.51,1a.4.4,0,0,0,.35.6h0l.48,0a7.62,7.62,0,0,1,2.23.33l.12,0a.45.45,0,0,0,.25-.09.44.44,0,0,0,.15-.35.33.33,0,0,1,0-.14C140.92,58,137.34,36.8,126.1,25.61Z"/><path class="cls-12" d="M126.16,96.12c-5.25,16-23,18.81-37.61,19.31-13.63.47-28.55,1.19-41.52-3.6C39.36,109,34.91,103.49,32.16,96c-1.92-5.23-2.48-10.91-4.27-16.16.06,9,.44,20.6,6.53,27,2.88,3,7,5.41,12.77,7.24a102.36,102.36,0,0,0,31,4.39c1.89,0,3.83,0,5.78-.12,12.4-.5,25.21-1.82,34.93-8s10.66-19.31,10.86-30.06A100.49,100.49,0,0,1,126.16,96.12Z"/><path class="cls-12" d="M82.68,119.11h0c-1.47,0-3,0-4.43,0s-2.89,0-4.35-.06h0a.41.41,0,0,0-.4.38c0,.22,0,.46,0,.7s0,.59-.06.9a6.73,6.73,0,0,0,.73.44c2,1,4.65.65,6.68.06a9.29,9.29,0,0,0,2.37-1l0-.39c0-.23,0-.45,0-.66A.4.4,0,0,0,82.68,119.11Z"/><path class="cls-12" d="M129.54,93.13a.37.37,0,0,0,.09.32.39.39,0,0,0,.3.14h0c5.62,0,10-3.09,11.19-7.84a11.67,11.67,0,0,0-1.68-9.54c-.11-.14-.23-.27-.35-.4.7,4.71,0,10.7-4.13,13.09a13.16,13.16,0,0,1-5.05,1.55C129.8,91.38,129.68,92.28,129.54,93.13Z"/><path class="cls-12" d="M28.11,93.46a.39.39,0,0,0,.09-.33c-.14-.9-.27-1.85-.38-2.81a8.06,8.06,0,0,1-6.11-.95c-5.07-2.79-4.35-9.09-2.56-14a7.67,7.67,0,0,0-1.62,2,10.84,10.84,0,0,0-.2,10.31c2.26,4,5.68,6,10.48,6A.43.43,0,0,0,28.11,93.46Z"/><path class="cls-12" d="M16.69,171c2.33,0,5.28-.76,6.29-2.42a2.57,2.57,0,0,0,.1-2.41c-3.29,2.7-6.74,4-8.35.49a5.63,5.63,0,0,0-1.68-2.37c-2.07-1.5-1.17-3.48-1.17-5.52,0-2.23-1.63-3.67-2.5-5.5-1.21,1.36-.62,2.54-.1,3.59A7.47,7.47,0,0,1,9.76,158,3.56,3.56,0,0,1,9.47,160a3.49,3.49,0,0,0,0,3.21,12.88,12.88,0,0,0,1.64,2,17.4,17.4,0,0,1,1.2,1.36,2.67,2.67,0,0,1,.36,1.45,3,3,0,0,0,.87,2.28A6.33,6.33,0,0,0,16.69,171Z"/><path class="cls-12" d="M148.08,159.53a3.34,3.34,0,0,1,.36-2.66c.47-1.14,1-2.44-.16-3.71l-.7-.64c0,1.54-.68,3-1.21,4.64a3.7,3.7,0,0,0-.06,1.84c.5,2.25-.79,3.17-1.63,4.87a9,9,0,0,0-.79,2c-.62,2.42-2.57,2.51-4.59,2.74a13.31,13.31,0,0,1-4.78-.57,2.15,2.15,0,0,0,.21.43c1,1.67,4,2.43,6.29,2.43a6.24,6.24,0,0,0,3.23-.71,4.06,4.06,0,0,0,1-2.38,4.19,4.19,0,0,1,.62-1.86,13.22,13.22,0,0,1,1.11-1.22C148.17,163.55,149.33,162.4,148.08,159.53Z"/><path class="cls-13" d="M142.07,131.73a.41.41,0,0,0,0-.36c-.45-.87-.89-1.75-1.33-2.63l0-.09c-3.64.46-7.33,1.65-10.75,2.28a167.88,167.88,0,0,0-25.7,6.85,160.15,160.15,0,0,0-18,7.41c-6.7,3.35-8.4,3.29-13.8.13a87.39,87.39,0,0,0-13.81-6.58,138.14,138.14,0,0,0-42.33-8.61c-.21.42-.41.83-.62,1.24a.41.41,0,0,0,0,.36.4.4,0,0,0,.29.22c15.9,2.83,34.54,6.68,52.28,13.83a.32.32,0,0,0,.14,0,.36.36,0,0,1,.26.11.38.38,0,0,0,.15.09.3.3,0,0,1,.16.13c1.58,2.57,6.42,3.72,10.52,3.72,3.69,0,8.09-1,9.37-3.76,0-.11.11-.14.19-.14l.12,0c17.83-7.24,36.62-11.13,52.66-14A.4.4,0,0,0,142.07,131.73Z"/><path class="cls-14" d="M159.23,186.14C157,179,146.78,175.59,140,175.28c.16-1.07.32-2.13.49-3.19a7.24,7.24,0,0,0,4.36-.91l.06-.07s.06,0,.09-.05c1.44-1.28.68-3.46,2.1-4.74,1.16-1,2.84-2.83,2.73-4.54-.14-2.27-.61-3.84.3-6.08.5-1.2-.28-2.46-1.06-3.32a14.41,14.41,0,0,0-5-3.15c.91-5.82,1.79-11.65,2.81-17.45a.81.81,0,0,0,0-.31.76.76,0,0,0-.24-.44.83.83,0,0,0-.39-.21.86.86,0,0,0-.32,0l-2.66.46c-1.18-2.24-2.26-4.54-3.45-6.79a.59.59,0,0,0-.45-.4.36.36,0,0,0-.14,0h-.09a183.48,183.48,0,0,0-20,3c-.26-2.73-3.67-4.63-5.79-5.53-3.92-1.65-8.15-2.41-12.2-3.7a52.87,52.87,0,0,0,19-6.88c5.6-3.55,8.26-9.64,9.55-16.28a.72.72,0,0,0,.21,0c6.61,0,11.69-4,12.71-10.71.68-4.45-1.44-8.79-5-10.55a.65.65,0,0,0,.25-.36c4.7-16.62,0-41.78-15.41-51.91,2-1.64,5.12-4.73,3.24-7-1-1.2-3.45-.86-4.75-.73a31.42,31.42,0,0,0-7.59,1.73c.9-5.82-1.6-10.87-6.66-14.1-.95-.61-3.31-1.73-3.84,0a6.08,6.08,0,0,0,0,2.65c.26,1.72.5,3.35.59,5.05C86-4.6,60.11-.66,41.14,7.11,30.22,11.58,19.3,18.6,13.59,29.27c-3,5.61,4.13,3.44,6.76,2.53,1.54-.53,3.11-1,4.69-1.38C18.23,35.46,13.36,42,11.27,50.5c-.39,1.58-1.95,6.65,0,7.9s4.28-1.25,5.62-2.25a22.38,22.38,0,0,1,2.36-1.5c-2.63,6.58-4.08,13.73-1.77,20.63a.72.72,0,0,0,.11.19,12.1,12.1,0,0,0-2.44,8.32c.38,6.8,6.45,10.91,12.73,10.91a.78.78,0,0,0,.23,0,35.52,35.52,0,0,0,3.28,9.84c2.31,4.38,6.93,7.23,11.35,9.09a68,68,0,0,0,9.61,3.16,62.36,62.36,0,0,0-9.81,3.45c-3.13,1.42-4.3,3.34-5.11,6.55a189.65,189.65,0,0,0-18.79-2.68h-.08a.39.39,0,0,0-.15,0,.59.59,0,0,0-.45.4c-1.19,2.25-2.27,4.55-3.45,6.79l-2.66-.46a.86.86,0,0,0-.32,0,.83.83,0,0,0-.39.21.76.76,0,0,0-.24.44.81.81,0,0,0,0,.31c1,5.79,1.9,11.61,2.81,17.42a15,15,0,0,0-5,3.18,3.48,3.48,0,0,0-1.17,2.81,6.27,6.27,0,0,0,.64,1.67c.86,1.64-.09,2.62-.18,4.07-.13,2,.83,3.48,2.19,4.92s1.07,3.85,2.59,5.21c0,0,.06,0,.09.05l.06.07a7.25,7.25,0,0,0,4.36.91q.49,3.15,1,6.3c-8.42,1.4-13.94,5.24-17,13.21C-1.61,199,.6,206.12,6.88,210.85c14.21,10.68,33.54,14,50.79,16a7.22,7.22,0,0,0,1.55,4.86c2.77,3,8.72,0,11.24-2.24a56.5,56.5,0,0,1,14.67,6c2.48,1.43,5.23,3.45,8.18,3.73,6.72.63,10.14-6.3,9.31-12.19a21.07,21.07,0,0,0-1.48-5.37,185,185,0,0,0,31.54-4.17c8.36-1.9,18.32-4.61,24.29-11.2C161.43,201.42,161.07,192,159.23,186.14Zm-11.51-26.45c1.49,3.43-.66,4.05-2.2,6.07-.93,1.23-.46,3.14-1.55,4.19-2.5,1.51-11,.16-8.84-4,.7-.71,2.24-1.47,2-2.68-.42-2-1.06-3.43.49-5.09,2.06-2.22-.21-2.92-1.7-4.67-2-3.64,4.84-3.54,6.39-3.24a11.67,11.67,0,0,1,5.71,3.15C149.81,155.43,146.74,157.43,147.72,159.69ZM134.6,182.38c-14.11,3.3-28.09,7.42-42.28,10.39.24-14.53,1.27-29.06,1.49-43.6,8.42-3.37,17.67-5.13,26.45-7.2,7.15-1.7,14.37-3.64,21.63-4.85-.64,3.79-1.24,7.59-1.85,11.38a9.55,9.55,0,0,0-1.2.09c-2.67.4-5.92,2.67-4.22,5.73a.55.55,0,0,0,.1.11s0,0,0,0c.39.49,2.51,1.92,2.17,2.29a8.72,8.72,0,0,0-1.47,1.89,4.49,4.49,0,0,0-.38,2.75c.08.49.76,1.86.44,2.26s-1,.8-1.41,1.24l0,0L134,165l0,0s-.07.06-.09.11c-1.52,2.73.07,4.8,2.55,5.95C135.81,174.86,135.23,178.62,134.6,182.38Zm6.93-33.79c.65-4,1.29-8.09,2-12.12a.78.78,0,0,0,0-.34.71.71,0,0,0-.29-.47.08.08,0,0,0,0,0,1,1,0,0,0-.18-.09s-.05,0-.08,0a.67.67,0,0,0-.37,0c-7.25,1.14-14.45,3.1-21.59,4.77-9.33,2.18-19.19,4-28.09,7.67l-.06,0a.7.7,0,0,0-.49.68c-.21,15-1.3,30-1.52,45.06a.68.68,0,0,0,.56.69.52.52,0,0,0,.18,0h0a.45.45,0,0,0,.2,0c14.65-3,29.07-7.31,43.64-10.7a.59.59,0,0,0,.52-.34.36.36,0,0,0,0-.11.24.24,0,0,0,0-.09c.64-3.85,1.25-7.7,1.86-11.56.38.11.77.2,1.16.28-.66,4.19-1.28,8.39-2,12.57-7.82,2.22-15.72,4.16-23.6,6.15-8.06,2-16.2,4.44-24.42,5.84.2-16.61,1.12-33.21,1.3-49.82,17.64-7.05,36.28-11,54.95-14.19-.93,5.43-1.77,10.89-2.63,16.34A7.78,7.78,0,0,0,141.53,148.59ZM70.24,197.17c-.43-9.14-.56-18.29-.68-27.43,4.9,4,13.61,3.68,18.64-.1-.31,9.18-.63,18.36-.73,27.54C84.78,202.65,72.91,202.55,70.24,197.17Zm18-29.56c-4.55,4.47-14.36,4.87-18.73,0,0-1.75-.05-3.49-.07-5.24,4.92,4.13,13.85,3.8,19,0C88.38,164.12,88.32,165.87,88.27,167.61Zm.49-19.56q-.09,6.16-.27,12.31c-4.6,4.51-14.7,4.9-19-.06h0c-.07-4.07-.15-8.14-.28-12.2,2.58,2.28,6.87,2.53,10.09,2.53C82,150.62,86.49,150.27,88.76,148.05Zm9.64-29.61c3.45,1.35,7.06,2.16,10.61,3.22,2.48.74,8.64,2.19,8.66,5.69-4.9,1.06-9.77,2.32-14.57,3.81-1.37.43-2.75.89-4.12,1.37a15,15,0,0,0-10.85-7.63,8.37,8.37,0,0,0-.21-5.6c3.38-.19,6.83-.49,10.27-1A.7.7,0,0,0,98.4,118.44ZM78.85,142.9c-6.45-5.1-14.18-8.34-21.94-11,3.32-2.74,7.51-4.2,11.58-5.48a10.19,10.19,0,0,0,8.66,4.92c4.4.2,8.56-1.82,10.39-5.12a.72.72,0,0,0,.33.11,13.42,13.42,0,0,1,9.7,6.67A66.46,66.46,0,0,0,78.85,142.9Zm-6.46-23.45c0,1.88-.39,3.89.88,5.44,1.1,1.34,3.2,1.68,4.82,1.71a7.2,7.2,0,0,0,4.76-1.51c1.68-1.51,1.37-3.56,1.33-5.62l2.2-.09s0,.07,0,.1c4.91,11.43-14.08,13.15-17.06,5.92h0c-.64-1.58-.54-3.57.74-6,0,0,0,0,0-.08C70.86,119.38,71.62,119.42,72.39,119.45Zm10.29.06c.06,1.45.38,3.21-.66,4.31a5.67,5.67,0,0,1-3.93,1.28A5.44,5.44,0,0,1,74.53,124c-1.13-.94-.73-3.09-.65-4.53C76.84,119.59,79.78,119.58,82.68,119.51ZM130.87,82a18.78,18.78,0,0,1,1.84-.82.67.67,0,0,0,.06.12c1.59,2.1.25,4.55-2.1,5.13.09-1.5.15-3,.19-4.42Zm9.86,3.65c-1.26,5.06-6,7.52-10.8,7.53.29-1.73.49-3.5.63-5.25a.88.88,0,0,0,.28,0c3.33-.63,5.35-4.35,3.32-7.24a13.85,13.85,0,0,1,2.47-.49c1-.08,1-1.58,0-1.5a17.12,17.12,0,0,0-5.74,1.64c0-1.46,0-2.87.06-4.21a.19.19,0,0,0,0-.08,12.63,12.63,0,0,0,1.59-1.89.77.77,0,0,0,.34,0C139.57,73,142.05,80.33,140.73,85.66ZM21.28,53.51a.68.68,0,0,0,0-.48.63.63,0,0,0-.69-.65.54.54,0,0,0-.49.16,21.46,21.46,0,0,0-4.06,2.31c-1.35,1-4.28,3.61-4,0a32,32,0,0,1,2.71-10.12C17.55,38.14,23,33.26,29,29.54a.61.61,0,0,0,.35-.73.73.73,0,0,0-.89-.65s0,0,0,0A57.82,57.82,0,0,0,20,30.35c-1.13.39-6.44,2.87-5.06-.32,1.87-4.33,5.67-8,9.14-11.11C31.39,12.41,41,8.29,50.27,5.42c17-5.24,38.89-6.72,53.34,5.52a.75.75,0,0,0,.3.17h0a1.27,1.27,0,0,0,.28,0h0a.73.73,0,0,0,.64-.44.67.67,0,0,0,.06-.44,28.54,28.54,0,0,0-.41-5.54,17.15,17.15,0,0,1-.37-2.67c0-.86,3.43,1.52,3.45,1.54,3.84,3,5.09,7.71,4,12.34a.78.78,0,0,0,1,.9.63.63,0,0,0,.54,0,27.67,27.67,0,0,1,9.92-2c4,0-1.32,4.93-2.46,5.85a.59.59,0,0,0-.14.83.72.72,0,0,0,.29.34c15.48,9.36,20.2,34.53,15.6,50.79a.74.74,0,0,0,0,.29,8.09,8.09,0,0,0-2.85-.33c.2-.36.37-.71.52-1,.4-.87-.89-1.63-1.3-.75-.91,2-2.25,5-4.74,5.3-2.34.31-2.89-3.27-3-4.84-.34-5,.73-9.8-.7-14.73a18.48,18.48,0,0,0,1.79-8.65c0-1-1.54-1-1.5,0a18,18,0,0,1-4.4,12.24,28.53,28.53,0,0,1-2.47,2.57c-1.75,1.69-1.46-1-1.45-2.15,0-5.63.61-11.88-1.69-17.21a.59.59,0,0,0-.74-.35.66.66,0,0,0-.44.2c-8.23,8.38-17.5,15.57-28.49,19.91C83,63.9,81,64.51,79,65.12c-1.7.53-6.2,2.31-4.54-1.16,2.26-4.76,5.34-8.93,7.11-14,.26-.74-.74-1.22-1.25-.73C75.68,53.72,70,56.84,64.21,59.57a94.73,94.73,0,0,1-10.89,4.24c-2.21.72-9.76,3.62-6.41-2.87a35,35,0,0,0,3.19-9.4c.12-.67-.71-1.34-1.25-.73-5,5.72-13.09,11-20.51,12.75A.75.75,0,0,0,28.73,65a32.65,32.65,0,0,0,4.12-1.3c-.05,2,0,4,.18,6a8.91,8.91,0,0,1-1,5.3c-2.33,3.87-5.93-2.3-6.75-4.14-.39-.89-1.68-.12-1.29.75.14.33.32.68.51,1.06a7.68,7.68,0,0,0-5.83,1.65C16.58,67.32,18.42,60.06,21.28,53.51ZM24.72,81a3.44,3.44,0,0,1,2.14,1.31h0c0,1.39.11,2.8.2,4.2A3.68,3.68,0,0,1,24.72,81Zm-7,6.4c-3-5.36,0-14.45,7.17-13.23a.77.77,0,0,0,.53-.1,13.26,13.26,0,0,0,1.42,1.82.79.79,0,0,0,0,.23c0,1.36,0,2.77.06,4.2a7.61,7.61,0,0,0-6.38-.43c-.92.29-.53,1.74.4,1.45a9.53,9.53,0,0,1,2.26-.44A5.23,5.23,0,0,0,27,88.09h.17c.14,1.71.34,3.42.62,5.11C23.26,93.19,19.93,91.44,17.68,87.42Zm17,19.17c-6.61-7-6.37-20.2-6.44-29.47a3.35,3.35,0,0,0,4.05-.21,6.43,6.43,0,0,0,2.13-4.33c.4-3.12-.2-6.34-.08-9.49A46.39,46.39,0,0,0,48,53.84a34.86,34.86,0,0,1-2.43,6.35c-3.34,6.47,1,7.12,6.53,5.55,9.37-2.66,19.25-7,26.87-13.3a76.92,76.92,0,0,1-4.81,8.93A11.13,11.13,0,0,0,72.28,66c-.25,2.84,4.87,1.21,5.94.93,13.78-3.7,25.39-11.82,35.37-21.8,1.6,4.47,1.38,9.85,1.17,14.44-.07,1.49-.6,5,1.37,5.59s4.89-3.68,5.75-4.74a19.66,19.66,0,0,0,1.31-1.87,39.57,39.57,0,0,1,.38,10.14c-.14,2.43-.31,5.3,1.29,7.35s3.1,2,4.58,1.16c-.13,11.32-.31,26.26-10.72,32.86-9.91,6.28-23.34,7.46-34.74,7.92-12.25.5-25-.5-36.67-4.25C42.73,112.25,38.06,110.13,34.71,106.59ZM45.94,120.4a57.69,57.69,0,0,1,9.27-2.84.74.74,0,0,0,.22-.1,98.64,98.64,0,0,0,13.08,1.78,8.14,8.14,0,0,0-.57,5.81c-4.52,1.43-9.14,3.1-12.7,6.32h0l-.63-.21a146.48,146.48,0,0,0-15.76-4.11C39.93,123.07,42.27,121.9,45.94,120.4ZM19,125.61a175.67,175.67,0,0,1,33.63,6.51c9,2.69,18.32,6.25,25.67,12.24a.82.82,0,0,0,.44.16H79a.82.82,0,0,0,.44-.16c7.39-6,16.68-9.43,25.67-12.24a165.94,165.94,0,0,1,33.63-6.51c1,2,2,4,3,6-17.94,3.18-35.81,7.12-52.74,14a.59.59,0,0,0-.52.37c-2.33,5-16.52,4.35-19.19,0a.65.65,0,0,0-.37-.29.8.8,0,0,0-.53-.23C51.54,138.63,33.81,134.72,16,131.56,17,129.58,18,127.58,19,125.61ZM13.74,170c-1.08-1-.32-2.57-1.13-3.63s-2-2-2.81-3.31c-1.08-1.71.84-3.47.35-5.17-.44-1.53-1.92-2.78-.44-4.4a12.88,12.88,0,0,1,4.92-2.94c1.52-.52,9.32-.86,7.18,3-1.44,1.71-3.81,2.51-1.7,4.68,1.58,1.61.9,3.14.48,5.09-.25,1.21,1.29,2,2,2.68C24.76,170.12,16.24,171.47,13.74,170Zm50.48-20.78c.22,14.54,1.25,29.07,1.49,43.6-14.19-3-28.17-7.09-42.28-10.39-.63-3.81-1.23-7.62-1.84-11.42,2.3-1.18,3.7-3.19,2.25-5.81,0-.05-.06-.07-.09-.11l0,0a6,6,0,0,0-.91-.84c-1-.75-.56-1.12-.27-2.19a4.94,4.94,0,0,0-.2-3.13A6.23,6.23,0,0,0,21,156.94c-.72-.74,1.43-1.77,2-2.47,0,0,0,0,0,0s.07-.06.1-.11c1.57-2.79-1.13-5-3.58-5.64a7.87,7.87,0,0,0-1.52-.23c-.61-3.78-1.21-7.56-1.85-11.33,6.89,1.16,13.75,3,20.54,4.59C45.82,143.85,55.47,145.66,64.22,149.17Zm-44,22.37c.63,3.88,1.23,7.77,1.88,11.65a.24.24,0,0,0,0,.09.36.36,0,0,0,0,.11.59.59,0,0,0,.52.34c14.57,3.39,29,7.68,43.64,10.7a.45.45,0,0,0,.2,0h0a.48.48,0,0,0,.18,0,.67.67,0,0,0,.56-.69c-.22-15-1.31-30-1.52-45.06a.7.7,0,0,0-.49-.68l-.06,0c-8.56-3.51-18-5.29-27-7.41-7.5-1.77-15.08-3.83-22.69-5a.67.67,0,0,0-.37,0s0,0-.08,0a.49.49,0,0,0-.18.08l0,0a.75.75,0,0,0-.29.47.78.78,0,0,0,0,.34c.69,4,1.32,8,2,12a9.53,9.53,0,0,0-1.38.25c-.85-5.44-1.69-10.88-2.62-16.29,18.73,3.24,37.44,7.17,55.15,14.27.54,16.57.33,33.17,1.08,49.74-7.84-1.35-15.6-3.62-23.29-5.56-8.25-2.08-16.53-4.1-24.71-6.43-.72-4.18-1.34-8.38-2-12.57A11.55,11.55,0,0,0,20.17,171.54ZM59.1,226.66a.81.81,0,0,0,0-.68,32.34,32.34,0,0,1,.53-3.8c.63-3.28,2.08-6.08,5.44-7.1a5,5,0,0,1,4.73,1.17c-2.53-.77-4.84.71-6.53,3.33-1.89,2.91-3.77,8.42-1.61,11.68a4.16,4.16,0,0,1-1.18-.42C59.35,230.23,59.06,228.48,59.1,226.66Zm26,7a.72.72,0,0,0-.25.16c-.79-.42-1.58-.83-2.38-1.23A15.3,15.3,0,0,0,86.06,224,4,4,0,0,1,88,226.6C88.23,228.6,87.18,232.83,85.08,233.68Zm-.49-10.36a13.58,13.58,0,0,1-3.5,8.59s0,0,0,0q-1.5-.74-3-1.41a15.17,15.17,0,0,0,3.73-8.89l1.41.73c.43.22.93.46,1.44.73A.79.79,0,0,0,84.59,223.32Zm-8,6.6c-.7-.28-1.41-.55-2.13-.8a12.27,12.27,0,0,0,2.25-9.7,26.78,26.78,0,0,1,3.61,1.47A13.41,13.41,0,0,1,76.56,229.92ZM75.1,219s0,0,0,.06A10.74,10.74,0,0,1,73,228.52l-.06.1c-.55-.17-1.13-.31-1.7-.46,1-2.7,2.15-6.32,1.61-9.36A10.7,10.7,0,0,1,75.1,219ZM62.72,231.35c-2.39-2.59-.8-7.26.46-10,1.49-3.23,4.38-5.92,7.66-3.83,1.68,3.13-.06,7.66-1.21,10.7A11.1,11.1,0,0,1,62.72,231.35Zm8.58-15.8a6.26,6.26,0,0,0-4.16-2,17.63,17.63,0,0,0,0-4.17C70,209.52,71.7,212.89,71.3,215.55Zm18,20.65-3-1.56c3.21-2.27,4.62-9,1.28-11.4-4-2.83-10-6.11-15-6a.59.59,0,0,0-.2,0l-.06-.15c1.31-3.36-.37-7.7-3.64-8.94a22.48,22.48,0,0,1,7.06-2.12c4.06,1.07,3.9,4.68,5.62,7.82,1.62,3,5.65,4.47,8.77,5.08,4.31.84,7.15,2.48,8,7.08a16.44,16.44,0,0,1-2,10.93A8.61,8.61,0,0,1,89.29,236.2Zm8,.31c2.72-5.58,3.25-14.54-3.19-17.27-4.33-1.83-9.64-1.24-12.29-6.08-1.52-2.79-1.61-5.56-4.08-7a6.3,6.3,0,0,1,2.35.69c2.38,1.28,3.79,4.77,5.42,6.87a7,7,0,0,0,4.68,2.72c3.27.31,6.19.47,8.26,3.41a17.41,17.41,0,0,1,2.3,5.35C102.16,230.12,100.56,234.65,97.31,236.51Zm-6.7-21.73c-2.59-.54-4-1.91-5.68-4.5-.6-.9-1.28-2-2.09-3a8.16,8.16,0,0,1,3.37-2.3,5.45,5.45,0,0,1,5.06.24A19.19,19.19,0,0,0,90.61,214.78Zm60.56-5.61c-6.75,4.3-15.15,6.2-22.89,7.79a180.81,180.81,0,0,1-27.83,3.29h0A14.9,14.9,0,0,0,97.09,216c-1.1-.95-2.87-.94-4.22-1l-.67,0c-.87-3.28-.35-6.44.59-9.64a163.6,163.6,0,0,1,45.32-13.09c1-.13.55-1.58-.39-1.44s-1.88.29-2.82.44a7,7,0,0,1,.59-2c.46-.86-.84-1.61-1.3-.76a11.39,11.39,0,0,0-.84,2.81,1,1,0,0,0,0,.17A162.37,162.37,0,0,0,92.19,204c-2-1-3.78-1.47-6-.63a10.73,10.73,0,0,0-4.44,2.8,5.12,5.12,0,0,0-3-1.46c-4.23-.41-8.94,1.1-12.64,3.15-12.38-4.3-25-8.72-37.83-11.82a.76.76,0,0,0,0-.34A9.18,9.18,0,0,0,25.85,191c-.68-.69-1.74.37-1.06,1.06a7.8,7.8,0,0,1,2,3.64c-.92-.22-1.84-.45-2.77-.65s-1.34,1.24-.4,1.45c14.21,3.09,28.29,8,42,12.78v0a14.55,14.55,0,0,1,0,4.27,8.28,8.28,0,0,0-3.92,1.54c-2.69,2-3.43,5.69-3.85,8.77-.07.46-.12,1-.15,1.49C43.8,223.7,30.28,221,17.41,215.24c-7.1-3.15-15.39-7.94-16-16.53-.76-10.51,7.7-17.21,17-18.84.29,1.8.57,3.61.89,5.41a.61.61,0,0,0,.58.54c8,2.27,16,4.23,24,6.26,8.28,2.09,16.64,4.57,25.09,6,3.2,6.24,16.52,6.32,19.72,0,8.07-1.33,16-3.69,24-5.68,8.38-2.11,16.8-4.17,25.11-6.54a.61.61,0,0,0,.58-.54c.5-2.83.94-5.68,1.38-8.52,8.74.32,17.93,5,19,14.31C159.57,198.72,157.79,205,151.17,209.17Z"/><path class="cls-14" d="M89.48,98.78a.75.75,0,0,0-.09-.35.6.6,0,0,0-.66-.4,116.32,116.32,0,0,1-19.75.2.61.61,0,0,0-.67.41.74.74,0,0,0-.08.34c.11,7.13,2,12.9,9.71,13.72C87.24,113.69,89.4,106.71,89.48,98.78ZM88,99.59c-.07,3-.43,5.91-1.61,8,0,0,0,0,0,0a12.49,12.49,0,0,0-14.48.28c-1.43-2.08-2-4.93-2.07-8.09A116.42,116.42,0,0,0,88,99.59ZM72.79,109a11,11,0,0,1,12.7-.18c-1.39,1.63-3.53,2.58-6.85,2.41A8.76,8.76,0,0,1,72.79,109Z"/><path class="cls-14" d="M63.2,86.36A6.25,6.25,0,0,0,57,80.3c-3.84-.18-6.51,3.06-6.68,6.65a6.26,6.26,0,0,0,3.15,5.25,13.17,13.17,0,0,0-3.69,1.74c-.07,0,0,.18,0,.17,4.2-.45,8.44-.71,12.64-1a.11.11,0,0,0,.06-.21,9.89,9.89,0,0,0-1.9-.79A6.69,6.69,0,0,0,63.2,86.36Zm-7.8,2.42c.11-2.25,3.25-3,4-.68C60.28,91.06,55.56,91.67,55.4,88.78Zm.16,2.63h0Z"/><path class="cls-14" d="M97.07,92.15a10,10,0,0,0-1.89.78.11.11,0,0,0,.06.21c4.2.26,8.44.52,12.64,1,.09,0,.11-.12,0-.17a13.09,13.09,0,0,0-3.7-1.74A6.28,6.28,0,0,0,107.38,87a6.66,6.66,0,0,0-6.17-6.63,6.13,6.13,0,0,0-6.62,5.39A6.73,6.73,0,0,0,97.07,92.15Zm5.24-3.37a2.05,2.05,0,0,1-2.25,1.93,1.88,1.88,0,0,1-1.79-2.18C98.37,85.87,102.19,86.29,102.31,88.78Z"/><path class="cls-14" d="M60.43,74.63l0,0,0,0,0,0a.13.13,0,0,0,0-.17c-3.69-4.58-9.89.53-11.19,4.75a.06.06,0,0,0,.09.06c3.44-2.14,6.72-4.57,11-4.56Z"/><path class="cls-14" d="M97.21,74.59l0,0,0,0h0c4.27,0,7.55,2.42,11,4.56a.06.06,0,0,0,.09-.06c-1.29-4.22-7.5-9.33-11.19-4.75a.13.13,0,0,0,0,.17Z"/><g class="cls-15"><path class="cls-3" d="M83.23,7.1c-14.8-6.24-35.87-1-47.67,9.6-.44.41,0,1.28.61,1.05,15.35-6,30.26-9.5,46.84-9C84,8.75,84,7.43,83.23,7.1Z"/><path class="cls-3" d="M86.06,8.2a.64.64,0,0,0,0,.89,3.28,3.28,0,0,0,3.82.44.76.76,0,0,0,.26-1C89.43,7.1,87.06,7.17,86.06,8.2Z"/><path class="cls-3" d="M17.47,152.63c-.31-.12-.7-.44-1.07-.59a3.08,3.08,0,0,0-2.33.34A5.46,5.46,0,0,0,11.83,155c-.2.46.28.84.68.89a9.13,9.13,0,0,0,2.66,0,3.76,3.76,0,0,0,1.75-.75c.37-.31.55-.81.9-1.09C18.33,153.55,18,152.81,17.47,152.63Z"/><path class="cls-3" d="M145.17,154.25c-.23-.38-.33-.83-.77-1.05a5.53,5.53,0,0,0-1.42-.48,5.26,5.26,0,0,0-1.43-.06,5.46,5.46,0,0,1-.7,0c-.23,0-.38.13-.59.14a.62.62,0,0,0-.44,1.05,2.88,2.88,0,0,0,.72.8c.35.23.7.45,1.06.66a5.51,5.51,0,0,0,1.43.44,2.25,2.25,0,0,0,1.68-.34A.78.78,0,0,0,145.17,154.25Z"/><path class="cls-3" d="M47.09,125.44c.93-.42,2.57-1.42,1.83-2.69s-2.46-.46-3.41,0a3.2,3.2,0,0,0-2,2.52.66.66,0,0,0,.49.65A4.64,4.64,0,0,0,47.09,125.44Z"/><path class="cls-3" d="M107.38,126.67c.83.28,2.43.26,2.73-.82s-1-2-1.87-2.27a4,4,0,0,0-3.58.35.7.7,0,0,0-.14,1.08A6.51,6.51,0,0,0,107.38,126.67Z"/><path class="cls-3" d="M102.73,123.05a1.73,1.73,0,0,0-2.17-.08.67.67,0,0,0-.29.72,1.45,1.45,0,0,0,2.59.43A.88.88,0,0,0,102.73,123.05Z"/><path class="cls-3" d="M130.76,196c-6.75-.8-12.88,1.87-18.69,5.11a.62.62,0,0,0,.31,1.15,41.89,41.89,0,0,0,18.76-4.83C131.88,197,131.45,196.09,130.76,196Z"/><path class="cls-3" d="M134.86,195a2.11,2.11,0,0,0-2.06.51,1,1,0,0,0,0,1.36,1.91,1.91,0,0,0,2.55,0A1.13,1.13,0,0,0,134.86,195Z"/><path class="cls-3" d="M40.51,204.15a.63.63,0,0,0-.44,1.06c2,1.84,6.09,3.36,8.76,2.52a.75.75,0,0,0,.32-1.23C47.34,204.43,43.12,203.92,40.51,204.15Z"/><path class="cls-3" d="M95.41,227a2,2,0,0,0-1.65,1,2.69,2.69,0,0,0-.43,1h0l0,.09-.16.32c-.09.2-.2.43-.3.62a.64.64,0,0,0,.38.93,5.06,5.06,0,0,0,1.89-.06c1.16-.25,2.31-1.4,1.88-2.68A1.64,1.64,0,0,0,95.41,227Z"/><path class="cls-3" d="M67.7,225c-1.15-.72-2.68.06-3.68.79a.93.93,0,0,0,0,1.58,2.84,2.84,0,0,0,2.33.34,2.17,2.17,0,0,0,1.82-1.55A1.05,1.05,0,0,0,67.7,225Z"/><path class="cls-3" d="M123.79,148.29a.76.76,0,0,0-.2-1.49,36.82,36.82,0,0,0-11,.77,57.73,57.73,0,0,0-9.66,3.81c-.56.25-.26,1.12.31,1.12a52.16,52.16,0,0,0,9-.59C116.47,151.15,119.79,149.72,123.79,148.29Z"/><path class="cls-3" d="M127.06,147.6c-.19-.09-.17,0,.06.1a.93.93,0,0,0,.26.1,1.73,1.73,0,0,0,.31.14,2.89,2.89,0,0,0,2.61-.33,1.28,1.28,0,0,0,.57-.84,2,2,0,0,0,.12-.34.79.79,0,0,0-.35-.86l-.21-.08a1.09,1.09,0,0,0-.78-.28,4.63,4.63,0,0,0-2,.61,1.17,1.17,0,0,0-.37.22c-.18.08-.49.23-.18.15A.74.74,0,0,0,127.06,147.6Z"/><path class="cls-3" d="M50.16,149c-6.72-4.18-15.59-5.16-23.4-4.56-.55,0-.89.84-.31,1.12a50.1,50.1,0,0,0,23.3,5A.83.83,0,0,0,50.16,149Z"/><path class="cls-3" d="M53.59,149.53a1.51,1.51,0,0,0-.71.22.76.76,0,0,0-.27,1,1.4,1.4,0,0,0,.54.54,1.9,1.9,0,0,0,2.71.33,1.12,1.12,0,0,0,.29-1.09A1.93,1.93,0,0,0,53.59,149.53Z"/></g></g></g></svg>