<svg xmlns="http://www.w3.org/2000/svg" xmlns:xlink="http://www.w3.org/1999/xlink" viewBox="0 0 441.35 373.93"><defs><style>.cls-1{fill:#fca487;}.cls-2{opacity:0.3;fill:url(#linear-gradient);}.cls-3{opacity:0.1;}.cls-4{fill:#fff;}</style><linearGradient id="linear-gradient" x1="40.23" y1="153.11" x2="423.4" y2="153.11" gradientUnits="userSpaceOnUse"><stop offset="0" stop-color="#fff"/><stop offset="0.1" stop-color="#fdf6f8"/><stop offset="0.27" stop-color="#f7dde7"/><stop offset="0.49" stop-color="#edb4ca"/><stop offset="0.75" stop-color="#df7ca2"/><stop offset="1" stop-color="#d03c75"/></linearGradient></defs><g id="Layer_2" data-name="Layer 2"><g id="OBJECTS"><path class="cls-1" d="M441.35,0H19.61A45.33,45.33,0,0,0,3.66,19.56C-3,35.63.18,53.68,6.91,69.18c9.19,21.18,24.33,39.33,41.33,54.72,14.42,13,27.07,30.08,19.21,50-2.93,7.43-5.83,14.5-5.92,22.63-.08,7.9,3.26,15.08,8.16,21.11,7.14,8.8,17.6,14.87,27.45,20.11,13.07,7,27.06,12,40.05,19.13,5.38,3,11,6.38,14.18,11.78s.71,12-2.05,17.15c-2.49,4.61-4.62,9.3-2.39,14.51,5.4,12.58,24.78,16.37,36.47,18.87,23.48,5,47.9,6.09,71.84,6.14,27.79.05,55.82-1.75,83.17-6.84,11.46-2.13,22.91-5,33.46-10.11,7.36-3.55,15.25-9.33,16.43-18,2.56-18.88-25.65-24.17-21.31-43.26,1.77-7.8,7.63-14.44,13.1-20A155,155,0,0,1,400,210.74c12.81-9.22,25.15-18.16,36.66-29.1q2.4-2.28,4.72-4.63Z"/><path class="cls-2" d="M90,126.5c10.78,11.63,20.24,26.83,14.36,44.64-2.19,6.63-4.36,12.93-4.42,20.18a33,33,0,0,0,6.1,18.84c5.34,7.85,13.16,13.26,20.53,17.93,9.77,6.2,20.24,10.71,30,17.07,4,2.64,8.19,5.69,10.6,10.5s.54,10.75-1.53,15.31c-1.86,4.11-3.45,8.29-1.78,12.94,4,11.22,18.53,14.6,27.27,16.83,17.56,4.48,35.83,5.43,53.73,5.48,20.78,0,41.75-1.56,62.2-6.1,8.58-1.9,17.14-4.48,25-9,5.5-3.17,11.41-8.33,12.29-16.07,1.91-16.84-19.18-21.55-15.94-38.58,1.32-7,5.71-12.88,9.79-17.81A122.67,122.67,0,0,1,353,204c9.57-8.22,18.8-16.2,27.41-26a172.84,172.84,0,0,0,28.89-44.78c7.85-17.89,12.1-37.62,13.51-57.69,1.34-19.08.48-38.95-4.49-57.26A113.07,113.07,0,0,0,411.67,0H60C29.85,27.48,30,61.79,90,126.5Z"/><g class="cls-3"><path class="cls-4" d="M345.39,17.91c14.92,18.7-1.3,38.26-12.84,53.56-11.18,14.82-20.94,31.26-10.13,49.27,9.14,15.23,27.09,21.93,40.13,32.86,5.47,4.59,10.6,10.72,8.32,18.38-3.19,10.68-16.38,17.74-24.47,24.08-9.19,7.21-18.09,15.2-22.95,26.2-4.63,10.51-2.17,20,2.51,29.84,4.19,8.84,7.7,18,3.52,27.48-3.11,7.09-9.56,12.14-15.88,16.06-14.77,9.17-32.4,13.9-49,18.32-6.88,1.83-13.83,3.51-20.58,5.84-.86.29-.5,1.67.38,1.4,6.34-1.95,12.77-3.52,19.21-5.05a.68.68,0,0,0,.33.11c20.81,1.21,44-1.27,63.57-9.17,8.77-3.55,17.88-9.19,21.77-18.41a24.9,24.9,0,0,0,.43-17.35,26.6,26.6,0,0,0-2.19-5c-5.52-9.66-6.93-19.51-2.5-29.95,8.53-20.07,29.91-32,47-43.36,7.54-5,16-10.87,19.16-19.9s-4.42-17.38-11.1-22.19c-14.87-10.68-49.18-16.7-44.53-42,1.7-9.28,8.24-17.5,13.84-24.67,5.78-7.4,12-14.46,17.14-22.36,9-13.78,9-29.23-.44-42.79-5.2-7.47-12-13.54-19.17-19.11H324.47C332.29,5,339.58,10.62,345.39,17.91Z"/><path class="cls-4" d="M100,80.43c38.65,32.58-36.77,78-.75,110.37,12.89,11.6,32.37,14.62,48.36,19.67,9,2.84,17.65,6.2,24.4,13,8.37,8.44,8.74,19.48,6.3,30.41-2.08,9.29-5.51,18.21-6.18,27.78s3.09,17.9,8.88,25.28c13.49,17.22,33.74,27.5,53.82,35a281.93,281.93,0,0,0,28.72,8.87,178.92,178.92,0,0,0,33.23,14.26c16.48,5.27,34.21,9.06,51.56,8.81a.74.74,0,0,0,0-1.48c-14.53-.48-29.16-3.73-43.18-7.46A179.14,179.14,0,0,1,274,353.47c3.05.72,6.12,1.38,9.2,1.82,8.13,1.16,16.29,1.83,24.25,4a.77.77,0,0,0,.42-1.49c-12.61-4-26-5-38.86-8.09-1.52-.37-3-.75-4.55-1.14-18.2-10.2-34.57-24.4-45.11-42.54a73.6,73.6,0,0,1-9.46-27.62c-1.58-12.39,1.31-24.37,5.2-36.06,3-9.11,7.7-19.13,6.28-28.95-.86-5.94-4.95-10.6-9.68-14-12.73-9-30.48-10.67-45.36-13.59-16.49-3.23-37.84-8.43-37.06-29.58.39-10.42,6.38-20.38,11.79-28.95,5.27-8.36,11.36-16.17,16.63-24.53,7.51-11.9,10.68-25.69-1.79-35.07C143,58,125.14,55.65,115.47,41.57c-9.84-14.33-5.53-28.5,2.65-41.57H70.69a80.81,80.81,0,0,0-6.32,27.56c-.43,11.43,2.72,24,10.13,32.89C81.46,68.78,91.81,73.52,100,80.43Z"/></g></g></g></svg>