<?xml version="1.0" encoding="UTF-8"?>
<svg width="255px" height="58px" viewBox="0 0 255 58" version="1.1" xmlns="http://www.w3.org/2000/svg" xmlns:xlink="http://www.w3.org/1999/xlink">
    <!-- Generator: Sketch 53.2 (72643) - https://sketchapp.com -->
    <title>logo-with-text@2x</title>
    <desc>Created with Sketch.</desc>
    <g id="Page-1" stroke="none" stroke-width="1" fill="none" fill-rule="evenodd">
        <g id="New-Logo" transform="translate(-15.000000, -32.000000)">
            <g id="logo-with-text" transform="translate(6.000000, 19.000000)">
                <g id="logo" transform="translate(0.000000, 3.000000)">
                    <path d="M40.2555408,29 L58.7444592,29 C62.3105342,29 63.6036791,29.3713024 64.9073828,30.0685308 C66.2110865,30.7657592 67.2342408,31.7889135 67.9314692,33.0926172 C68.6286976,34.3963209 69,35.6894658 69,39.2555408 L69,57.7444592 C69,61.3105342 68.6286976,62.6036791 67.9314692,63.9073828 C67.2342408,65.2110865 66.2110865,66.2342408 64.9073828,66.9314692 C63.6036791,67.6286976 62.3105342,68 58.7444592,68 L40.2555408,68 C36.6894658,68 35.3963209,67.6286976 34.0926172,66.9314692 C32.7889135,66.2342408 31.7657592,65.2110865 31.0685308,63.9073828 C30.3713024,62.6036791 30,61.3105342 30,57.7444592 L30,39.2555408 C30,35.6894658 30.3713024,34.3963209 31.0685308,33.0926172 C31.7657592,31.7889135 32.7889135,30.7657592 34.0926172,30.0685308 C35.3963209,29.3713024 36.6894658,29 40.2555408,29 Z" id="Rectangle" fill="#133C9A"></path>
                    <path d="M30.2555408,20 L48.7444592,20 C52.3105342,20 53.6036791,20.3713024 54.9073828,21.0685308 C56.2110865,21.7657592 57.2342408,22.7889135 57.9314692,24.0926172 C58.6286976,25.3963209 59,26.6894658 59,30.2555408 L59,48.7444592 C59,52.3105342 58.6286976,53.6036791 57.9314692,54.9073828 C57.2342408,56.2110865 56.2110865,57.2342408 54.9073828,57.9314692 C53.6036791,58.6286976 52.3105342,59 48.7444592,59 L30.2555408,59 C26.6894658,59 25.3963209,58.6286976 24.0926172,57.9314692 C22.7889135,57.2342408 21.7657592,56.2110865 21.0685308,54.9073828 C20.3713024,53.6036791 20,52.3105342 20,48.7444592 L20,30.2555408 C20,26.6894658 20.3713024,25.3963209 21.0685308,24.0926172 C21.7657592,22.7889135 22.7889135,21.7657592 24.0926172,21.0685308 C25.3963209,20.3713024 26.6894658,20 30.2555408,20 Z" id="Rectangle" fill-opacity="0.8" fill="#3370FF"></path>
                    <path d="M19.2555408,10 L37.7444592,10 C41.3105342,10 42.6036791,10.3713024 43.9073828,11.0685308 C45.2110865,11.7657592 46.2342408,12.7889135 46.9314692,14.0926172 C47.6286976,15.3963209 48,16.6894658 48,20.2555408 L48,38.7444592 C48,42.3105342 47.6286976,43.6036791 46.9314692,44.9073828 C46.2342408,46.2110865 45.2110865,47.2342408 43.9073828,47.9314692 C42.6036791,48.6286976 41.3105342,49 37.7444592,49 L19.2555408,49 C15.6894658,49 14.3963209,48.6286976 13.0926172,47.9314692 C11.7889135,47.2342408 10.7657592,46.2110865 10.0685308,44.9073828 C9.37130244,43.6036791 9,42.3105342 9,38.7444592 L9,20.2555408 C9,16.6894658 9.37130244,15.3963209 10.0685308,14.0926172 C10.7657592,12.7889135 11.7889135,11.7657592 13.0926172,11.0685308 C14.3963209,10.3713024 15.6894658,10 19.2555408,10 Z" id="Rectangle" fill-opacity="0.8" fill="#37D2AC"></path>
                </g>
                <text id="超卖通" font-family="AlimamaShuHeiTi-Bold, Alimama ShuHeiTi" font-size="60" font-weight="bold" fill="#000000" fill-opacity="0.85">
                    <tspan x="86" y="63">超卖通</tspan>
                </text>
            </g>
        </g>
    </g>
</svg>